<?xml version="1.0" encoding="UTF-8" standalone="no"?><svg xmlns="http://www.w3.org/2000/svg" xmlns:xlink="http://www.w3.org/1999/xlink" contentStyleType="text/css" height="669px" preserveAspectRatio="none" style="width:1484px;height:669px;background:#FFFFFF;" version="1.1" viewBox="0 0 1484 669" width="1484px" zoomAndPan="magnify"><defs/><g><!--MD5=[9ba779de388c8d4e0d66e3a8d8cd1071]
cluster localnet--><g id="cluster_localnet"><path d="M51.9728,62.1395 C67.3345,24.521 104.3426,12.336 130.3615,51.2194 C152.5181,19.0188 176.5193,16.9055 196.9299,52.9231 C214.759,17.8991 247.9668,12.1405 268.1026,50.6917 C282.0635,17.0163 313.2049,23.0149 329.9288,47.768 C352.6081,9.6061 387.5795,15.4619 403.8809,53.9236 C428.7151,11.7861 453.3665,19.8822 480.0381,52.0402 C495.6043,17.5732 519.6624,9.8755 545.3729,42.1026 C568.4016,9.2791 593.1886,10.7152 612.6877,45.6111 C628.4562,10.743 659.306,13.7067 677.2037,43.4862 C699.9612,7.3619 737.9403,6 754.7092,49.328 C779.0668,14.6176 807.6645,20.4662 822.989,57.8796 C838.4167,26.3485 864.1838,21.8819 884.2101,53.4154 C905.1602,24.6642 939.5468,21.8683 957.1184,57.2559 C975.9681,28.1554 1011.5084,19.1791 1028.9118,58.7675 C1033.6416,60.5685 1035.3698,65.3148 1031.0078,68.9815 C1068.6161,89.8398 1066.2873,110.7629 1035.1602,135.8871 C1069.7635,152.3283 1069.6079,181.2337 1041.1584,203.2863 C1071.6301,222.7759 1067.2316,248.3565 1038.0526,264.8361 C1070.3943,286.2203 1077.7152,306.6966 1044.4861,334.1654 C1071.1308,354.884 1075.5629,386.6678 1039.2746,402.5934 C1064.7953,423.6262 1068.1959,451.9918 1034.7788,469.0366 C1066.8923,488.1972 1076.2745,519.2616 1039.5113,542.8388 C1069.2912,569.3245 1062.9489,603.3634 1021.9118,611.7675 C1025.4321,608.6224 1029.7222,609.6255 1030.1337,614.8291 C1009.6361,645.5464 980.2252,646.1382 961.4055,613.0226 C943.4453,653.4248 913.3539,651.6871 889.0742,619.3025 C871.6437,655.9739 836.7924,658.9439 815.5379,623.1849 C797.0589,647.0271 769.2065,644.5131 754.9185,618.1269 C732.5313,650.5957 694.7533,654.9527 675.9382,614.2701 C659.8824,648.7568 632.0558,657.4492 606.2629,624.301 C587.0567,649.2505 569.3095,649.8739 547.8081,627.1131 C524.1616,655.2539 497.6925,659.6984 476.882,623.9641 C452.0603,661.7848 429.6081,660.9062 406.57,622.3227 C382.2907,662.597 357.0331,661.288 329.9669,625.1153 C308.4813,651.5139 289.3082,646.5973 270.7401,621.7438 C242.5851,651.2682 218.7727,660.7006 194.7182,617.4598 C171.2414,649.2367 149.992,649.4436 124.6503,619.5795 C97.3786,655.0351 57.6237,647.6929 44.9118,604.7675 C51.5373,606.9968 52.7835,610.5989 49.3309,616.594 C11.9267,599.581 16.4571,562.9088 46.7492,543.5046 C15.8508,525.4571 16.0221,498.1901 41.637,475.871 C12.2985,454.3332 13.4627,418.2615 49.5057,403.869 C19.7818,388.3024 12.8023,361.3652 44.5392,340.9473 C6,319.722 7.2261,282.9734 48.0011,265.3817 C19.9059,249.2868 22.2141,220.2892 50.0849,206.1637 C15.496,186.7983 22.4243,153.3994 52.4109,136.1803 C12.991,109.6864 6.8303,78.7611 51.9118,51.7675 C56.4515,54.7167 56.721,59.1357 51.9728,62.1395 " style="stroke:#181818;stroke-width:1.0;fill:none;"/><text fill="#000000" font-family="sans-serif" font-size="14" font-weight="bold" lengthAdjust="spacing" textLength="96" x="488.9118" y="69.7627">lab network</text></g><!--MD5=[59349bd08617b2b67e2cc262a8c26772]
cluster puszka1--><g id="cluster_puszka1"><polygon points="465.9118,479.7675,475.9118,469.7675,659.9118,469.7675,659.9118,585.7675,649.9118,595.7675,465.9118,595.7675,465.9118,479.7675" style="stroke:#181818;stroke-width:1.0;fill:none;"/><line style="stroke:#181818;stroke-width:1.0;fill:none;" x1="649.9118" x2="659.9118" y1="479.7675" y2="469.7675"/><line style="stroke:#181818;stroke-width:1.0;fill:none;" x1="465.9118" x2="649.9118" y1="479.7675" y2="479.7675"/><line style="stroke:#181818;stroke-width:1.0;fill:none;" x1="649.9118" x2="649.9118" y1="479.7675" y2="595.7675"/><text fill="#000000" font-family="sans-serif" font-size="14" font-weight="bold" lengthAdjust="spacing" textLength="118" x="499.9118" y="495.7627">Console server</text></g><!--MD5=[a24e2d3c6da327c728ec90627f18803f]
cluster DUT1--><g id="cluster_DUT1"><path d="M556.6834,97.1653 C561.7916,85.857 573.0362,82.887 580.3431,94.9384 C588.8075,81.5821 597.3999,82.4457 605.4121,95.3698 C614.1294,82.4938 624.2819,84.4969 630.7889,97.5344 C637.0502,83.0602 647.5646,83.2481 657.1866,94.0205 C665.5693,82.3608 676.0441,83.5228 681.9797,96.4846 C690.4995,84.729 701.7515,84.1456 710.6407,96.0369 C716.5855,80.7852 725.9284,79.2249 736.7075,91.4508 C743.1508,80.2614 752.5393,82.63 758.4935,91.9699 C766.3511,76.7837 780.2954,80.146 786.9724,93.1622 C795.3776,80.6156 804.7232,83.2816 811.0151,95.2359 C819.0735,81.8767 830.662,83.8608 838.3529,95.6356 C844.8432,85.7601 853.5846,84.0335 861.1606,94.413 C870.557,79.743 884.9066,82.7849 890.2787,98.2956 C899.7036,87.7194 912.3441,88.7811 918.9118,101.7675 C921.0532,101.1816 921.9341,102.4224 921.7454,104.3717 C935.0738,111.5879 936.2399,124.4417 922.1184,132.0281 C935.6834,138.9212 936.2218,149.5985 924.5139,158.7566 C936.4249,164.6045 938.5578,175.4194 927.4467,183.9477 C942.1636,190.4373 942.6751,201.8968 929.7087,210.725 C944.2589,216.917 942.5508,228.4656 932.3075,237.1005 C944.4983,244.5454 946.6188,254.6402 934.3023,263.9088 C944.4028,271.2667 946.7772,281.8828 934.15,289.1034 C945.9527,298.8157 940.9293,311.907 928.1995,316.2398 C940.9161,324.7994 940.9681,335.677 927.8968,343.9549 C940.7538,354.5213 937.706,363.1203 924.6791,370.5558 C937.295,381.6545 934.3126,390.6775 921.4278,398.8453 C933.013,412.4194 930.324,424.7333 911.9118,428.7675 C912.4428,428.4298 912.6813,428.6362 912.8096,429.1784 C907.2477,443.5239 894.6469,443.5205 887.0342,431.1576 C879.5174,444.6595 869.5827,443.8983 861.586,431.6316 C856.0557,443.7027 848.7807,443.5624 839.8376,435.2779 C831.3025,446.8209 819.2331,447.4347 811.3495,434.5191 C804.9781,446.7263 795.0209,448.0877 786.5209,436.7652 C777.5569,450.417 767.684,451.2335 759.0085,436.4857 C752.9473,449.5622 743.2688,450.0598 734.9806,438.6731 C724.749,450.9988 715.7878,449.5191 707.7163,436.362 C699.8989,447.2495 691.5765,444.0295 685.433,434.5322 C677.4118,448.1681 666.757,446.9252 657.3394,436.1385 C649.9015,445.3553 642.038,447.639 635.3333,435.3869 C625.2037,446.9068 615.6109,445.103 608.3804,432.1889 C600.8706,446.7129 590.931,447.6706 581.8176,433.6829 C564.7582,446.3103 553.1717,440.7772 546.9118,421.7675 C548.4804,420.3048 550.6564,420.7608 551.2038,422.9634 C538.2048,415.3487 538.1494,404.826 549.2276,395.4801 C539.5357,387.8841 537.8423,380.5304 549.4344,373.1312 C534.1574,365.7934 534.7601,356.9444 544.4204,345.1397 C532.7758,335.1672 532.8808,326.5617 547.4763,319.7471 C534.1067,311.5905 530.0903,298.8128 546.0427,289.2766 C533.2484,283.3623 531.4663,270.6258 543.8083,262.6057 C534.284,254.3543 534.4288,243.6648 545.9896,237.2256 C532.2631,227.8861 534.2469,217.2007 547.1901,208.9953 C533.701,201.7722 534.0037,193.3485 545.5181,184.4241 C532.4295,173.4423 532.2831,164.7164 548.0408,156.3241 C537.5219,148.2074 537.9323,134.8432 550.6036,128.893 C535.5317,115.7067 537.3323,104.8854 553.9118,94.7675 C555.9874,93.9853 557.178,94.9766 556.6834,97.1653 " style="stroke:#181818;stroke-width:1.0;fill:none;"/><text fill="#000000" font-family="sans-serif" font-size="14" font-weight="bold" lengthAdjust="spacing" textLength="43" x="711.4118" y="112.7627">DUT1</text></g><!--MD5=[bc33b001d8d0906d533ac6d1e2e5f35f]
cluster pi4_1--><g id="cluster_pi4_1"><polygon points="690.9118,147.7675,700.9118,137.7675,894.9118,137.7675,894.9118,269.7675,884.9118,279.7675,690.9118,279.7675,690.9118,147.7675" style="stroke:#181818;stroke-width:1.0;fill:none;"/><line style="stroke:#181818;stroke-width:1.0;fill:none;" x1="884.9118" x2="894.9118" y1="147.7675" y2="137.7675"/><line style="stroke:#181818;stroke-width:1.0;fill:none;" x1="690.9118" x2="884.9118" y1="147.7675" y2="147.7675"/><line style="stroke:#181818;stroke-width:1.0;fill:none;" x1="884.9118" x2="884.9118" y1="147.7675" y2="279.7675"/><text fill="#000000" font-family="sans-serif" font-size="14" font-weight="bold" lengthAdjust="spacing" textLength="128" x="724.9118" y="163.7627">Raspberry Pi 4B</text></g><!--MD5=[ba488c30fdfb4338c05fdc3f321c7f02]
cluster DUT2--><g id="cluster_DUT2"><path d="M145.9372,98.4362 C151.1266,87.1235 160.4385,82.3972 170.0272,93.7631 C176.5228,80.2787 188.9899,79.1095 196.2122,93.0699 C201.9386,78.45 215.2248,79.4746 223.0888,90.8608 C230.7563,78.6175 239.2271,79.7111 246.839,90.9171 C253.4298,79.1839 262.7944,78.4598 269.8074,90.5093 C276.759,74.3254 286.7881,71.8472 299.5711,84.4879 C307.4145,70.3592 315.5283,72.1924 324.7702,83.0791 C334.947,74.1714 342.5492,75.8655 347.479,88.5878 C356.381,74.9706 368.762,75.6659 375.8755,90.3805 C382.2738,79.2466 392.9716,80.7679 398.6065,91.1857 C407.1898,81.1431 416.2675,79.5944 423.4998,92.6422 C432.7264,80.951 441.9581,84.2664 448.8135,95.2854 C457.0874,82.3432 466.9405,78.357 477.3034,93.1388 C489.5489,83.1058 501.9296,86.8777 506.9118,101.7675 C509.5481,102.0366 510.1929,103.9898 508.464,105.8989 C521.9546,110.3669 520.1242,120.8329 511.9945,128.6552 C523.5157,138.4218 523.8373,146.3199 510.0964,154.2102 C522.8869,159.9372 520.5358,171.2069 510.512,177.3438 C521.905,182.6283 524.5677,194.7284 514.0394,203.0241 C522.5029,210.0018 524.0439,217.4183 513.7978,224.1824 C525.9426,231.2138 527.3805,243.1182 513.8971,250.2473 C526.3961,259.79 526.1744,267.6646 512.6713,275.9682 C522.9401,289.8948 515.066,301.5097 499.9118,303.7675 C503.7112,302.9289 505.3453,304.1219 504.6932,308.1452 C495.3001,319.6889 484.5747,319.4752 476.7546,306.3628 C469.4212,318.9529 458.606,319.3615 451.5292,306.1123 C443.1416,315.4202 435.3287,316.2766 427.6621,305.2655 C418.682,320.2972 409.8311,318.7278 399.6236,306.5293 C391.0193,318.6936 382.7379,317.1738 374.4538,306.1813 C367.2941,319.3911 355.7474,318.4677 347.0988,307.8937 C340.5036,319.0946 329.8407,320.5456 322.3611,308.8492 C315.0478,319.7369 305.1875,323.4147 296.6967,310.0978 C289.3039,319.3656 277.2025,319.8377 272.3366,307.2777 C265.883,320.9472 253.0885,321.4514 246.4879,307.4148 C237.8262,318.1139 230.5367,316.7305 223.4687,305.7246 C215.1577,320.2401 203.4304,320.1709 194.7363,306.1098 C187.6213,316.9287 179.7939,319.8558 170.2587,308.8206 C154.7835,323.2795 138.2194,317.9914 134.9118,296.7675 C136.1395,295.4429 137.5583,295.5489 138.4545,297.1667 C127.0634,292.752 124.6913,284.1744 132.5288,274.6902 C122.2709,268.3569 120.8908,256.3071 132.8119,250.2306 C119.8748,246.5568 116.5022,237.5322 125.9274,227.1796 C114.0517,222.2229 112.4131,210.0942 123.1758,202.603 C113.9632,193.2059 113.9868,183.4601 126.623,177.0054 C117.1466,167.7575 118.8239,160.8678 129.6748,154.3592 C118.0794,145.4869 118.949,132.7393 134.0323,128.334 C121.9919,115.0287 124.7319,101.2135 141.9118,94.7675 C144.6937,93.9596 146.6589,95.4 145.9372,98.4362 " style="stroke:#181818;stroke-width:1.0;fill:none;"/><text fill="#000000" font-family="sans-serif" font-size="14" font-weight="bold" lengthAdjust="spacing" textLength="43" x="299.4118" y="112.7627">DUT2</text></g><!--MD5=[c2b6ee0f47fae671b4df2eb4fd0b462f]
cluster pi4_2--><g id="cluster_pi4_2"><polygon points="278.9118,147.7675,288.9118,137.7675,482.9118,137.7675,482.9118,269.7675,472.9118,279.7675,278.9118,279.7675,278.9118,147.7675" style="stroke:#181818;stroke-width:1.0;fill:none;"/><line style="stroke:#181818;stroke-width:1.0;fill:none;" x1="472.9118" x2="482.9118" y1="147.7675" y2="137.7675"/><line style="stroke:#181818;stroke-width:1.0;fill:none;" x1="278.9118" x2="472.9118" y1="147.7675" y2="147.7675"/><line style="stroke:#181818;stroke-width:1.0;fill:none;" x1="472.9118" x2="472.9118" y1="147.7675" y2="279.7675"/><text fill="#000000" font-family="sans-serif" font-size="14" font-weight="bold" lengthAdjust="spacing" textLength="128" x="312.9118" y="163.7627">Raspberry Pi 4B</text></g><!--MD5=[97ab183161fd5d1db7fba7485cf76add]
entity Admin--><g id="elem_Admin"><ellipse cx="80.9118" cy="203.2675" fill="#F1F1F1" rx="8" ry="8" style="stroke:#181818;stroke-width:0.5;"/><path d="M80.9118,211.2675 L80.9118,238.2675 M67.9118,219.2675 L93.9118,219.2675 M80.9118,238.2675 L67.9118,253.2675 M80.9118,238.2675 L93.9118,253.2675 " fill="none" style="stroke:#181818;stroke-width:0.5;"/><text fill="#000000" font-family="sans-serif" font-size="14" lengthAdjust="spacing" textLength="46" x="57.9118" y="267.7627">Admin</text></g><!--MD5=[0a15fa6b25731c419b35daf228f01147]
entity uart3--><g id="elem_uart3"><polygon fill="#F1F1F1" points="165.9118,384.7675,175.9118,374.7675,243.9118,374.7675,243.9118,411.0644,233.9118,421.0644,165.9118,421.0644,165.9118,384.7675" style="stroke:#181818;stroke-width:0.5;"/><line style="stroke:#181818;stroke-width:0.5;" x1="233.9118" x2="243.9118" y1="384.7675" y2="374.7675"/><line style="stroke:#181818;stroke-width:0.5;" x1="165.9118" x2="233.9118" y1="384.7675" y2="384.7675"/><line style="stroke:#181818;stroke-width:0.5;" x1="233.9118" x2="233.9118" y1="384.7675" y2="421.0644"/><text fill="#000000" font-family="sans-serif" font-size="14" lengthAdjust="spacing" textLength="38" x="180.9118" y="407.7627">uart3</text></g><!--MD5=[0a3559258f00661ae38612ce0a5972ab]
entity uart4--><g id="elem_uart4"><polygon fill="#F1F1F1" points="53.4118,384.7675,63.4118,374.7675,130.4118,374.7675,130.4118,411.0644,120.4118,421.0644,53.4118,421.0644,53.4118,384.7675" style="stroke:#181818;stroke-width:0.5;"/><line style="stroke:#181818;stroke-width:0.5;" x1="120.4118" x2="130.4118" y1="384.7675" y2="374.7675"/><line style="stroke:#181818;stroke-width:0.5;" x1="53.4118" x2="120.4118" y1="384.7675" y2="384.7675"/><line style="stroke:#181818;stroke-width:0.5;" x1="120.4118" x2="120.4118" y1="384.7675" y2="421.0644"/><text fill="#000000" font-family="sans-serif" font-size="14" lengthAdjust="spacing" textLength="37" x="68.4118" y="407.7627">uart4</text></g><!--MD5=[7ed8e5a515328e98770c313e955925e8]
entity uart1--><g id="elem_uart1"><polygon fill="#F1F1F1" points="942.9118,384.7675,952.9118,374.7675,1020.9118,374.7675,1020.9118,411.0644,1010.9118,421.0644,942.9118,421.0644,942.9118,384.7675" style="stroke:#181818;stroke-width:0.5;"/><line style="stroke:#181818;stroke-width:0.5;" x1="1010.9118" x2="1020.9118" y1="384.7675" y2="374.7675"/><line style="stroke:#181818;stroke-width:0.5;" x1="942.9118" x2="1010.9118" y1="384.7675" y2="384.7675"/><line style="stroke:#181818;stroke-width:0.5;" x1="1010.9118" x2="1010.9118" y1="384.7675" y2="421.0644"/><text fill="#000000" font-family="sans-serif" font-size="14" lengthAdjust="spacing" textLength="38" x="957.9118" y="407.7627">uart1</text></g><!--MD5=[618195f2cf10a0e3c6cd11945ffd610b]
entity uart2--><g id="elem_uart2"><polygon fill="#F1F1F1" points="342.4118,384.7675,352.4118,374.7675,419.4118,374.7675,419.4118,411.0644,409.4118,421.0644,342.4118,421.0644,342.4118,384.7675" style="stroke:#181818;stroke-width:0.5;"/><line style="stroke:#181818;stroke-width:0.5;" x1="409.4118" x2="419.4118" y1="384.7675" y2="374.7675"/><line style="stroke:#181818;stroke-width:0.5;" x1="342.4118" x2="409.4118" y1="384.7675" y2="384.7675"/><line style="stroke:#181818;stroke-width:0.5;" x1="409.4118" x2="409.4118" y1="384.7675" y2="421.0644"/><text fill="#000000" font-family="sans-serif" font-size="14" lengthAdjust="spacing" textLength="37" x="357.4118" y="407.7627">uart2</text></g><!--MD5=[79a439086b036a57b90a01d7b2f8bbd1]
entity admin--><g id="elem_admin"><ellipse cx="425.9118" cy="527.2675" fill="#F1F1F1" rx="8" ry="8" style="stroke:#181818;stroke-width:0.5;"/><path d="M425.9118,535.2675 L425.9118,562.2675 M412.9118,543.2675 L438.9118,543.2675 M425.9118,562.2675 L412.9118,577.2675 M425.9118,562.2675 L438.9118,577.2675 " fill="none" style="stroke:#181818;stroke-width:0.5;"/><text fill="#000000" font-family="sans-serif" font-size="14" lengthAdjust="spacing" textLength="44" x="403.9118" y="591.7627">admin</text></g><!--MD5=[1b7d9ac22816f07bc1e0b2b4e72ee193]
entity lxd1--><g id="elem_lxd1"><rect fill="#F1F1F1" height="46.2969" rx="2.5" ry="2.5" style="stroke:#181818;stroke-width:0.5;" width="142" x="482.9118" y="533.7675"/><rect fill="#F1F1F1" height="10" style="stroke:#181818;stroke-width:0.5;" width="15" x="604.9118" y="538.7675"/><rect fill="#F1F1F1" height="2" style="stroke:#181818;stroke-width:0.5;" width="4" x="602.9118" y="540.7675"/><rect fill="#F1F1F1" height="2" style="stroke:#181818;stroke-width:0.5;" width="4" x="602.9118" y="544.7675"/><text fill="#000000" font-family="sans-serif" font-size="14" lengthAdjust="spacing" textLength="102" x="497.9118" y="566.7627">LXD container</text></g><!--MD5=[ab009f360940c6fc3ea64525d09c8a53]
entity icy--><g id="elem_icy"><polygon fill="#F1F1F1" points="214.9118,543.7675,224.9118,533.7675,368.9118,533.7675,368.9118,570.0644,358.9118,580.0644,214.9118,580.0644,214.9118,543.7675" style="stroke:#181818;stroke-width:0.5;"/><line style="stroke:#181818;stroke-width:0.5;" x1="358.9118" x2="368.9118" y1="543.7675" y2="533.7675"/><line style="stroke:#181818;stroke-width:0.5;" x1="214.9118" x2="358.9118" y1="543.7675" y2="543.7675"/><line style="stroke:#181818;stroke-width:0.5;" x1="358.9118" x2="358.9118" y1="543.7675" y2="580.0644"/><text fill="#000000" font-family="sans-serif" font-size="14" lengthAdjust="spacing" textLength="114" x="229.9118" y="566.7627">KVM USB switch</text></g><!--MD5=[cc9c79c5d84b1bdd347d22f65a913ba5]
entity storage1--><g id="elem_storage1"><path d="M555.4118,220.2675 C555.4118,210.2675 595.9118,210.2675 595.9118,210.2675 C595.9118,210.2675 636.4118,210.2675 636.4118,220.2675 L636.4118,245.5644 C636.4118,255.5644 595.9118,255.5644 595.9118,255.5644 C595.9118,255.5644 555.4118,255.5644 555.4118,245.5644 L555.4118,220.2675 " fill="#F1F1F1" style="stroke:#181818;stroke-width:0.5;"/><path d="M555.4118,220.2675 C555.4118,230.2675 595.9118,230.2675 595.9118,230.2675 C595.9118,230.2675 636.4118,230.2675 636.4118,220.2675 " fill="none" style="stroke:#181818;stroke-width:0.5;"/><text fill="#000000" font-family="sans-serif" font-size="14" lengthAdjust="spacing" textLength="61" x="565.4118" y="247.2627">USB SSD</text></g><!--MD5=[deffb35bdbe26b1f477c78152cebe976]
entity nitrogen1--><g id="elem_nitrogen1"><polygon fill="#F1F1F1" points="554.9118,384.7675,564.9118,374.7675,670.9118,374.7675,670.9118,411.0644,660.9118,421.0644,554.9118,421.0644,554.9118,384.7675" style="stroke:#181818;stroke-width:0.5;"/><line style="stroke:#181818;stroke-width:0.5;" x1="660.9118" x2="670.9118" y1="384.7675" y2="374.7675"/><line style="stroke:#181818;stroke-width:0.5;" x1="554.9118" x2="660.9118" y1="384.7675" y2="384.7675"/><line style="stroke:#181818;stroke-width:0.5;" x1="660.9118" x2="660.9118" y1="384.7675" y2="421.0644"/><text fill="#000000" font-family="sans-serif" font-size="14" lengthAdjust="spacing" textLength="76" x="569.9118" y="407.7627">Nitrogen 1</text></g><!--MD5=[03935356fa7d13446e6c381314345e06]
entity nitrogen2--><g id="elem_nitrogen2"><polygon fill="#F1F1F1" points="706.4118,384.7675,716.4118,374.7675,821.4118,374.7675,821.4118,411.0644,811.4118,421.0644,706.4118,421.0644,706.4118,384.7675" style="stroke:#181818;stroke-width:0.5;"/><line style="stroke:#181818;stroke-width:0.5;" x1="811.4118" x2="821.4118" y1="384.7675" y2="374.7675"/><line style="stroke:#181818;stroke-width:0.5;" x1="706.4118" x2="811.4118" y1="384.7675" y2="384.7675"/><line style="stroke:#181818;stroke-width:0.5;" x1="811.4118" x2="811.4118" y1="384.7675" y2="421.0644"/><text fill="#000000" font-family="sans-serif" font-size="14" lengthAdjust="spacing" textLength="75" x="721.4118" y="407.7627">Nitrogen 2</text></g><!--MD5=[0fa1bcb1596fdf58d4771b3f3d14f995]
entity lavaworker1--><g id="elem_lavaworker1"><rect fill="#F1F1F1" height="46.2969" rx="2.5" ry="2.5" style="stroke:#181818;stroke-width:0.5;" width="126" x="744.9118" y="209.7675"/><rect fill="#F1F1F1" height="10" style="stroke:#181818;stroke-width:0.5;" width="15" x="850.9118" y="214.7675"/><rect fill="#F1F1F1" height="2" style="stroke:#181818;stroke-width:0.5;" width="4" x="848.9118" y="216.7675"/><rect fill="#F1F1F1" height="2" style="stroke:#181818;stroke-width:0.5;" width="4" x="848.9118" y="220.7675"/><text fill="#000000" font-family="sans-serif" font-size="14" lengthAdjust="spacing" textLength="86" x="759.9118" y="242.7627">Lava worker</text></g><!--MD5=[338037127992e47fce517f5ce96452a3]
entity storage2--><g id="elem_storage2"><path d="M143.4118,220.2675 C143.4118,210.2675 183.9118,210.2675 183.9118,210.2675 C183.9118,210.2675 224.4118,210.2675 224.4118,220.2675 L224.4118,245.5644 C224.4118,255.5644 183.9118,255.5644 183.9118,255.5644 C183.9118,255.5644 143.4118,255.5644 143.4118,245.5644 L143.4118,220.2675 " fill="#F1F1F1" style="stroke:#181818;stroke-width:0.5;"/><path d="M143.4118,220.2675 C143.4118,230.2675 183.9118,230.2675 183.9118,230.2675 C183.9118,230.2675 224.4118,230.2675 224.4118,220.2675 " fill="none" style="stroke:#181818;stroke-width:0.5;"/><text fill="#000000" font-family="sans-serif" font-size="14" lengthAdjust="spacing" textLength="61" x="153.4118" y="247.2627">USB SSD</text></g><!--MD5=[aa2caa18f1a96f5db0b466cebf794ef3]
entity lavaworker2--><g id="elem_lavaworker2"><rect fill="#F1F1F1" height="46.2969" rx="2.5" ry="2.5" style="stroke:#181818;stroke-width:0.5;" width="126" x="332.9118" y="209.7675"/><rect fill="#F1F1F1" height="10" style="stroke:#181818;stroke-width:0.5;" width="15" x="438.9118" y="214.7675"/><rect fill="#F1F1F1" height="2" style="stroke:#181818;stroke-width:0.5;" width="4" x="436.9118" y="216.7675"/><rect fill="#F1F1F1" height="2" style="stroke:#181818;stroke-width:0.5;" width="4" x="436.9118" y="220.7675"/><text fill="#000000" font-family="sans-serif" font-size="14" lengthAdjust="spacing" textLength="86" x="347.9118" y="242.7627">Lava worker</text></g><!--MD5=[2bff9d89c5f69e56c8e3bc7e37ff91e0]
entity info--><g id="elem_info"><rect fill="#F1F1F1" height="22.2969" rx="2.5" ry="2.5" style="stroke:#181818;stroke-width:0.5;" width="425" x="1053.4118" y="221.7675"/><text fill="#000000" font-family="sans-serif" font-size="14" lengthAdjust="spacing" textLength="405" x="1063.4118" y="237.7627">Overall view of Oniroproject development infrastructure</text></g><!--MD5=[0107dd0e916c8a84e566bc61b25a61c4]
link uart1 to icy--><g id="link_uart1_icy"><path d="M958.4238,424.3185 C949.4268,432.3875 938.5158,440.3475 926.9118,444.7675 C814.5098,487.5855 496.3008,413.9985 385.9118,461.7675 C353.4098,475.8325 326.0978,506.8095 309.4328,529.3705 " fill="none" id="uart1-icy" style="stroke:#181818;stroke-width:1.0;"/><polygon fill="#181818" points="306.4458,533.4795,314.9733,528.5518,309.3858,529.4352,308.5024,523.8478,306.4458,533.4795" style="stroke:#181818;stroke-width:1.0;"/><polygon fill="#181818" points="962.1588,420.8625,952.8362,424.0388,958.4888,424.2583,958.2694,429.9109,962.1588,420.8625" style="stroke:#181818;stroke-width:1.0;"/></g><!--MD5=[d8d5d3854bce64a0574935d4abd1d8a9]
link uart2 to icy--><g id="link_uart2_icy"><path d="M365.8798,425.2835 C349.4768,454.2215 323.3678,500.2775 306.9578,529.2255 " fill="none" id="uart2-icy" style="stroke:#181818;stroke-width:1.0;"/><polygon fill="#181818" points="304.4108,533.7185,312.3287,527.8614,306.8764,529.3687,305.3691,523.9164,304.4108,533.7185" style="stroke:#181818;stroke-width:1.0;"/><polygon fill="#181818" points="368.3488,420.9285,360.4309,426.7857,365.8832,425.2783,367.3906,430.7307,368.3488,420.9285" style="stroke:#181818;stroke-width:1.0;"/></g><!--MD5=[da3a21b46adf1dd81848d4fe72665321]
link uart3 to icy--><g id="link_uart3_icy"><path d="M219.8138,425.6595 C235.8648,454.6245 261.2428,500.4235 277.2138,529.2445 " fill="none" id="uart3-icy" style="stroke:#181818;stroke-width:1.0;"/><polygon fill="#181818" points="279.6938,533.7185,278.8308,523.9076,277.2706,529.345,271.8331,527.7847,279.6938,533.7185" style="stroke:#181818;stroke-width:1.0;"/><polygon fill="#181818" points="217.1918,420.9285,218.0559,430.7394,219.6155,425.3018,225.0531,426.8615,217.1918,420.9285" style="stroke:#181818;stroke-width:1.0;"/></g><!--MD5=[912974c09976c5229b939b84502e5e85]
link uart4 to icy--><g id="link_uart4_icy"><path d="M122.5178,424.1945 C130.7238,430.9335 139.6208,438.1695 147.9118,444.7675 C185.4598,474.6485 229.1938,508.1845 258.5258,530.4965 " fill="none" id="uart4-icy" style="stroke:#181818;stroke-width:1.0;"/><polygon fill="#181818" points="262.7468,533.7055,258.0029,525.0744,258.7664,530.6795,253.1613,531.443,262.7468,533.7055" style="stroke:#181818;stroke-width:1.0;"/><polygon fill="#181818" points="118.5502,420.9315,122.9586,429.7387,122.4113,424.1084,128.0416,423.561,118.5502,420.9315" style="stroke:#181818;stroke-width:1.0;"/></g><!--MD5=[b0e29e2f0887f947f12d37f951df46d3]
link lxd1 to icy--><g id="link_lxd1_icy"><path d="M537.1468,529.3195 C523.4788,508.6915 502.6068,480.8245 478.9118,461.7675 C452.5988,440.6045 436.3198,445.6985 403.4118,453.2675 C361.6318,462.8775 328.0078,501.9095 308.9938,529.1905 " fill="none" id="lxd1-icy" style="stroke:#181818;stroke-width:1.0;"/><polygon fill="#181818" points="306.0688,533.4615,314.4546,528.2965,308.8942,529.3363,307.8543,523.7759,306.0688,533.4615" style="stroke:#181818;stroke-width:1.0;"/><polygon fill="#181818" points="539.9528,533.6055,538.3687,523.8849,537.2137,529.4226,531.676,528.2675,539.9528,533.6055" style="stroke:#181818;stroke-width:1.0;"/></g><!--MD5=[2a0cb80bb9cc4a215553a0c8ff9ec446]
link lxd1 to admin--><g id="link_lxd1_admin"><path d="M477.7828,556.7675 C469.6258,556.7675 461.4688,556.7675 453.3128,556.7675 " fill="none" id="lxd1-admin" style="stroke:#181818;stroke-width:1.0;"/><polygon fill="#181818" points="448.1618,556.7675,457.1618,560.7675,453.1618,556.7675,457.1618,552.7675,448.1618,556.7675" style="stroke:#181818;stroke-width:1.0;"/><polygon fill="#181818" points="482.8608,556.7675,473.8608,552.7675,477.8608,556.7675,473.8608,560.7675,482.8608,556.7675" style="stroke:#181818;stroke-width:1.0;"/></g><!--MD5=[0d3613a74ea48655761586d1ff79efb4]
link pi4_1 to nitrogen1--><g id="link_pi4_1_nitrogen1"><path d="M717.3991,280.1131 C717.3977,280.2569 717.396,280.4008 717.394,280.5448 C717.3311,285.1521 716.9737,289.82 716.212,294.4047 C714.6885,303.5743 711.5478,312.4115 705.9118,319.7675 C698.8168,329.0275 690.8498,321.6575 680.9118,327.7675 C662.5768,339.0395 645.5808,356.2835 633.1658,370.7125 " fill="none" id="pi4_1-nitrogen1" style="stroke:#181818;stroke-width:1.0;"/><polygon fill="#181818" points="629.7888,374.7005,638.6576,370.4175,633.0201,370.885,632.5527,365.2474,629.7888,374.7005" style="stroke:#181818;stroke-width:1.0;"/><polygon fill="#181818" points="717.3991,280.1131,713.3121,289.0739,717.3506,285.1128,721.3117,289.1514,717.3991,280.1131" style="stroke:#181818;stroke-width:1.0;"/><text fill="#000000" font-family="sans-serif" font-size="13" lengthAdjust="spacing" textLength="25" x="681.9118" y="340.8344">USB</text></g><!--MD5=[4d4c31eeaa04f825062cab185c9af7b5]
link pi4_1 to nitrogen2--><g id="link_pi4_1_nitrogen2"><path d="M707.8876,279.9858 C707.8932,280.1643 707.8989,280.3431 707.9049,280.5222 C707.9167,280.8803 707.9293,281.2395 707.9426,281.5997 C708.0488,284.4812 708.2011,287.4269 708.408,290.417 C708.8217,296.3973 709.4541,302.5552 710.3746,308.7328 C712.2157,321.0879 715.2093,333.5213 719.9118,344.7675 C723.7608,353.9735 729.8528,362.7595 736.2908,370.4025 " fill="none" id="pi4_1-nitrogen2" style="stroke:#181818;stroke-width:1.0;"/><polygon fill="#181818" points="739.8908,374.5265,736.9875,365.1153,736.6034,370.7591,730.9596,370.3751,739.8908,374.5265" style="stroke:#181818;stroke-width:1.0;"/><polygon fill="#181818" points="707.8876,279.9858,704.1709,289.1064,708.0439,284.9833,712.167,288.8563,707.8876,279.9858" style="stroke:#181818;stroke-width:1.0;"/><text fill="#000000" font-family="sans-serif" font-size="13" lengthAdjust="spacing" textLength="25" x="720.9118" y="340.8344">USB</text></g><!--MD5=[464ca262ec1a19cd3acebecdd16b6e23]
link storage1 to pi4_1--><g id="link_storage1_pi4_1"><path d="M641.5208,232.7675 C656.3448,232.7675 672.2406,232.7675 684.9732,232.7675 C686.5648,232.7675 688.1069,232.7675 689.5914,232.7675 C689.9625,232.7675 690.33,232.7675 690.6938,232.7675 " fill="none" id="storage1-pi4_1" style="stroke:#181818;stroke-width:1.0;"/><polygon fill="#181818" points="690.6938,232.7675,681.6938,228.7675,685.6938,232.7675,681.6938,236.7675,690.6938,232.7675" style="stroke:#181818;stroke-width:1.0;"/><polygon fill="#181818" points="636.4248,232.7675,645.4248,236.7675,641.4248,232.7675,645.4248,228.7675,636.4248,232.7675" style="stroke:#181818;stroke-width:1.0;"/><text fill="#000000" font-family="sans-serif" font-size="13" lengthAdjust="spacing" textLength="37" x="654.4818" y="225.8344">USB 3</text></g><!--MD5=[eadf4e56ac9b9719de04e282e8094e5e]
link storage2 to pi4_2--><g id="link_storage2_pi4_2"><path d="M229.5208,232.7675 C244.3448,232.7675 260.2406,232.7675 272.9732,232.7675 C274.5648,232.7675 276.1069,232.7675 277.5914,232.7675 C277.9625,232.7675 278.33,232.7675 278.6938,232.7675 " fill="none" id="storage2-pi4_2" style="stroke:#181818;stroke-width:1.0;"/><polygon fill="#181818" points="278.6938,232.7675,269.6938,228.7675,273.6938,232.7675,269.6938,236.7675,278.6938,232.7675" style="stroke:#181818;stroke-width:1.0;"/><polygon fill="#181818" points="224.4248,232.7675,233.4248,236.7675,229.4248,232.7675,233.4248,228.7675,224.4248,232.7675" style="stroke:#181818;stroke-width:1.0;"/><text fill="#000000" font-family="sans-serif" font-size="13" lengthAdjust="spacing" textLength="37" x="242.4818" y="225.8344">USB 3</text></g><!--MD5=[8f20b9866fb4648fcd080fc359404e1f]
link pi4_1 to uart1--><g id="link_pi4_1_uart1"><path d="M709.6047,279.8045 C709.6279,279.9517 709.6514,280.0989 709.6752,280.2462 C709.7704,280.8352 709.8704,281.4246 709.9756,282.0141 C710.817,286.7299 711.9842,291.4498 713.5723,295.9961 C716.7484,305.0886 721.6081,313.4865 728.9118,319.7675 C738.9598,328.4085 835.1448,324.2155 847.9118,327.7675 C882.3478,337.3465 918.1858,356.3485 944.1258,371.9905 " fill="none" id="pi4_1-uart1" style="stroke:#181818;stroke-width:1.0;"/><polygon fill="#181818" points="948.5268,374.6685,942.9168,366.5736,944.2552,372.0698,938.7589,373.4082,948.5268,374.6685" style="stroke:#181818;stroke-width:1.0;"/><polygon fill="#181818" points="709.6047,279.8045,707.0538,289.3173,710.3827,284.7436,714.9564,288.0725,709.6047,279.8045" style="stroke:#181818;stroke-width:1.0;"/><text fill="#000000" font-family="sans-serif" font-size="13" lengthAdjust="spacing" textLength="76" x="890.9118" y="340.8344">TTL console</text></g><!--MD5=[db6b5eab9e00902b0c6ab7801c0e5fdc]
link pi4_2 to uart2--><g id="link_pi4_2_uart2"><path d="M297.8013,280.1011 C297.8969,280.6896 297.9974,281.2786 298.1028,281.8677 C298.9466,286.5807 300.1123,291.3024 301.6934,295.8567 C304.8555,304.9653 309.6791,313.4048 316.9118,319.7675 C331.8208,332.8835 392.5138,313.1115 405.9118,327.7675 C416.6628,339.5285 410.9428,356.2655 402.2798,370.3105 " fill="none" id="pi4_2-uart2" style="stroke:#181818;stroke-width:1.0;"/><polygon fill="#181818" points="399.5118,374.5745,407.7682,369.205,402.235,370.3812,401.0589,364.8479,399.5118,374.5745" style="stroke:#181818;stroke-width:1.0;"/><polygon fill="#181818" points="297.8013,280.1011,295.2961,289.626,298.603,285.0364,303.1926,288.3433,297.8013,280.1011" style="stroke:#181818;stroke-width:1.0;"/><text fill="#000000" font-family="sans-serif" font-size="13" lengthAdjust="spacing" textLength="76" x="412.9118" y="340.8344">TTL console</text></g><!--MD5=[303b677f689b61a2869fa9b50a150ec0]
link uart3 to nitrogen1--><g id="link_uart3_nitrogen1"><path d="M214.5388,369.6185 C220.7018,356.2275 230.1708,341.4855 243.9118,333.7675 C259.0248,325.2795 304.6468,332.2345 321.9118,333.7675 C423.1928,342.7625 450.2648,347.4115 549.5048,374.4175 " fill="none" id="uart3-nitrogen1" style="stroke:#181818;stroke-width:1.0;"/><polygon fill="#181818" points="554.5928,375.8045,546.9624,369.5774,549.769,374.4889,544.8575,377.2955,554.5928,375.8045" style="stroke:#181818;stroke-width:1.0;"/><polygon fill="#181818" points="212.4158,374.4755,219.686,367.8314,214.4186,369.8942,212.3558,364.6269,212.4158,374.4755" style="stroke:#181818;stroke-width:1.0;"/><text fill="#000000" font-family="sans-serif" font-size="13" lengthAdjust="spacing" textLength="76" x="244.9118" y="340.8344">TTL console</text></g><!--MD5=[633f11ac6604fb79fdf20571a875d766]
link uart4 to nitrogen2--><g id="link_uart4_nitrogen2"><path d="M135.3818,379.1045 C139.5828,377.5455 143.8078,376.0705 147.9118,374.7675 C225.7008,350.0695 245.8128,342.9365 326.9118,333.7675 C460.6318,318.6485 616.3928,354.3395 701.1268,378.2795 " fill="none" id="uart4-nitrogen2" style="stroke:#181818;stroke-width:1.0;"/><polygon fill="#181818" points="706.1048,379.6955,698.5435,373.3847,701.2958,378.3268,696.3536,381.0791,706.1048,379.6955" style="stroke:#181818;stroke-width:1.0;"/><polygon fill="#181818" points="130.4688,380.9665,140.3023,381.5159,135.144,379.1939,137.4661,374.0356,130.4688,380.9665" style="stroke:#181818;stroke-width:1.0;"/><text fill="#000000" font-family="sans-serif" font-size="13" lengthAdjust="spacing" textLength="76" x="327.9118" y="340.8344">TTL console</text></g><!--MD5=[727c8b956065d3208ec85929da32513a]
@startuml
card info [
  Overall view of Oniroproject development infrastructure
]




cloud localnet as "lab network" {

actor Admin
node puszka1 as "Console server" {
    component lxd1 as "LXD container" {
    }
}

node icy as "KVM USB switch" {
}

node uart3
node uart4
node uart1
node uart2


uart1<- ->icy
uart2<- ->icy
uart3<- ->icy
uart4<- ->icy


lxd1<->icy
lxd1<->admin

cloud DUT1 {
  database storage1 [
      USB SSD
  ]
  node pi4_1 as "Raspberry Pi 4B" {
    component lavaworker1 as "Lava worker" {
    }
  }
  node nitrogen1 as "Nitrogen 1"
  node nitrogen2 as "Nitrogen 2"
  pi4_1<- ->nitrogen1 : USB
  pi4_1<- ->nitrogen2 : USB
}

cloud DUT2 {
  database storage2 [
      USB SSD
  ]
  node pi4_2 as "Raspberry Pi 4B" {
    component lavaworker2 as "Lava worker" {
    }
  }
}



  storage1<->pi4_1 : USB 3
  storage2<->pi4_2 : USB 3
  pi4_1<- ->uart1 : "TTL console"
  pi4_2<- ->uart2 : TTL console
  uart3<->nitrogen1 : TTL console
  uart4<->nitrogen2 : TTL console

}
@enduml

PlantUML version 1.2022.6beta4(Unknown compile time)
(GPL source distribution)
Java Runtime: Java(TM) SE Runtime Environment
JVM: Java HotSpot(TM) 64-Bit Server VM
Default Encoding: UTF-8
Language: en
Country: US
--></g></svg>