<?xml version="1.0" encoding="UTF-8" standalone="no"?><svg xmlns="http://www.w3.org/2000/svg" xmlns:xlink="http://www.w3.org/1999/xlink" contentStyleType="text/css" height="1013px" preserveAspectRatio="none" style="width:2944px;height:1013px;background:#FFFFFF;" version="1.1" viewBox="0 0 2944 1013" width="2944px" zoomAndPan="magnify"><defs/><g><!--MD5=[a724b032fb9465bc636178f1a307a136]
cluster extranet--><g id="cluster_extranet"><path d="M1761.5229,53.6279 C1772.2848,38.5951 1784.6142,37.1328 1794.1046,54.8913 C1800.6367,35.6918 1814.0335,34.8769 1826.7619,48.7778 C1838.9048,31.2056 1851.226,31.9982 1865.1524,46.6532 C1875.6215,31.354 1885.2429,30.6576 1895.6638,46.7002 C1903.5617,30.7356 1916.4107,31.4012 1926.9495,43.7856 C1936.3544,27.421 1952.7413,28.874 1960.3259,45.6205 C1968.1745,28.517 1983.0412,26.4366 1994.7904,41.4326 C2008.2219,27.9557 2020.6753,28.8472 2029.3393,46.6914 C2035.4824,32.6343 2048.5511,28.6423 2058.1184,43.2541 C2069.2138,24.1793 2086.3028,26.5901 2094.8213,45.729 C2106.5135,33.2593 2118.2503,37.0385 2125.4294,50.9627 C2136.7412,36.3663 2152.5054,34.2736 2161.5909,53.3533 C2169.593,37.0186 2182.0328,37.158 2191.5622,51.8792 C2205.5685,35.5001 2219.7974,37.3313 2228.414,57.338 C2230.9145,56.2881 2232.483,56.8867 2232.8501,59.7541 C2244.6645,67.3402 2245.055,80.9908 2233.1292,88.805 C2254.02,98.0049 2254.765,113.9082 2235.5777,125.7633 C2251.3987,134.537 2250.7972,146.1817 2238.4768,157.5241 C2253.4,164.3426 2252.5858,177.4338 2241.2691,186.7585 C2253.1262,198.1982 2254.9241,210.6991 2237.2511,218.3875 C2251.8408,227.2533 2249.3173,239.3943 2235.4702,246.4558 C2251.117,257.0805 2249.9882,270.8713 2235.1351,281.202 C2246.17,298.576 2243.9264,311.4486 2221.414,315.338 C2224.1469,315.199 2225.9266,316.8513 2224.3939,319.656 C2213.1075,337.7342 2202.0465,336.9955 2191.1909,319.2568 C2182.0728,335.1601 2167.2179,334.4726 2160.3711,317.15 C2150.9221,334.1471 2136.2371,334.5937 2124.8543,319.2755 C2117.1346,335.4339 2103.3186,339.5125 2091.8798,323.033 C2079.2724,338.4109 2065.8469,339.6028 2056.9734,319.3727 C2048.9074,335.5779 2038.6309,333.6617 2027.7564,322.3553 C2020.8402,340.1649 2005.0323,338.0714 1995.9641,324.5381 C1984.6204,341.4487 1974.0473,337.5406 1963.2037,324.0001 C1950.7804,340.5128 1937.3415,336.5081 1928.847,319.922 C1918.2007,332.9204 1906.0917,331.8571 1897.3333,317.7286 C1887.2872,334.5699 1874.8934,334.8775 1861.8085,321.2746 C1853.6829,336.5054 1841.0891,336.1628 1831.9776,322.2849 C1820.2665,340.0984 1804.2028,338.5515 1794.8297,319.903 C1776.0694,335.7615 1761.0128,332.4501 1753.414,308.338 C1755.1298,308.1918 1755.906,308.8762 1755.4133,310.6445 C1742.3363,301.5035 1741.9768,290.8907 1753.7338,280.3718 C1740.3362,270.0208 1740.4417,257.8215 1755.2285,248.805 C1737.5083,238.812 1740.8146,227.7795 1753.6327,216.2877 C1736.8591,209.8813 1737.6699,194.0829 1750.5948,184.8103 C1734.7697,174.7977 1740.6482,160.6103 1754.119,153.9425 C1739.0787,146.7163 1738.6758,133.1327 1752.6521,124.4626 C1738.953,113.4703 1740.0497,98.6218 1756.6787,91.3135 C1736.1574,78.5453 1737.0308,59.104 1760.414,50.338 C1762.5201,50.6334 1762.9356,52.1464 1761.5229,53.6279 " style="stroke:#181818;stroke-width:1.0;fill:none;"/><text fill="#000000" font-family="sans-serif" font-size="14" font-weight="bold" lengthAdjust="spacing" textLength="45" x="1968.414" y="68.3331">Cloud</text></g><!--MD5=[0a4da0e4cd9b99e06eab4f6fed1b2b60]
cluster infservc--><g id="cluster_infservc"><path d="M2020.4228,94.5413 C2024.7295,86.336 2029.265,86.1593 2034.9192,93.2654 C2038.1091,86.1996 2044.5482,84.2414 2050.0589,90.6597 C2053.5128,84.1646 2059.1082,82.6225 2064.0634,89.0303 C2069.4433,80.6265 2075.1562,79.7027 2080.9521,88.6248 C2083.5835,80.5596 2088.5582,79.2898 2094.9892,84.6528 C2099.6148,77.5786 2105.0588,76.8142 2110.9858,83.0938 C2116.2705,77.2904 2120.9459,80.1535 2123.4474,86.0566 C2128.1937,78.7693 2136.1164,79.176 2139.3297,87.6058 C2143.4291,81.5071 2149.9589,81.1053 2153.7067,87.995 C2160.4656,80.7767 2166.8091,83.9407 2169.2961,92.2766 C2173.9552,86.0022 2180.3749,85.8806 2184.1564,93.2336 C2194.4849,86.3117 2200.4669,89.0634 2204.414,100.338 C2205.1559,99.4576 2206.2337,99.3628 2206.7455,100.5923 C2214.9315,105.6919 2213.9347,111.292 2206.4572,116.1004 C2213.1928,119.0964 2214.2155,125.597 2208.9975,130.6763 C2215.4349,135.0885 2214.3823,140.3415 2208.0646,143.8505 C2215.5621,147.4168 2214.6408,154.382 2208.8661,158.6663 C2215.6348,165.1307 2214.1964,170.1556 2206.0937,173.9164 C2213.6257,184.4252 2209.1929,191.4595 2197.414,193.338 C2198.742,193.5164 2199.0672,194.1068 2198.3998,195.292 C2194.865,202.9691 2187.7306,203.3987 2183.426,196.0596 C2177.3895,203.1654 2172.5183,203.4707 2167.8933,194.6803 C2163.6281,201.0673 2158.5433,201.2383 2154.0732,194.9027 C2149.6734,201.5362 2144.2773,203.2545 2138.7545,196.1553 C2134.78,201.7902 2128.4313,201.8907 2125.4067,195.1323 C2121.585,203.1203 2116.5895,203.3859 2110.8114,197.138 C2105.9293,204.5337 2098.7169,203.1009 2094.9695,195.906 C2090.7712,202.9944 2083.5545,202.1596 2080.1088,195.1146 C2075.0827,202.643 2070.2168,203.8825 2064.2126,196.1323 C2059.6505,201.1691 2053.6454,201.1312 2051.0148,194.0318 C2047.0008,202.8356 2041.2095,201.51 2035.6161,195.6956 C2024.5749,204.7469 2013.9281,200.9092 2012.414,186.338 C2013.8965,185.3955 2014.5629,186.1697 2014.888,187.5636 C2005.8989,186.1077 2004.8867,181.008 2009.1696,173.9693 C2002.0814,171.1413 1999.1516,165.121 2006.0878,159.3388 C1996.1382,157.739 1994.0254,150.5033 2001.121,143.5437 C1996.0871,137.714 1997.3338,131.5629 2005.6379,130.2728 C2001.1313,124.7015 2002.6265,118.6402 2009.8097,116.6483 C2000.3292,104.959 2004.7003,95.0589 2019.414,93.338 C2020.2598,93.1986 2020.6789,93.7568 2020.4228,94.5413 " style="stroke:#181818;stroke-width:1.0;fill:none;"/><text fill="#000000" font-family="sans-serif" font-size="14" font-weight="bold" lengthAdjust="spacing" textLength="187" x="2014.914" y="111.3331">Infrastructure services</text></g><!--MD5=[9ba779de388c8d4e0d66e3a8d8cd1071]
cluster localnet--><g id="cluster_localnet"><path d="M155.3009,385.2562 C204.2404,310.8326 288.6059,319.5448 330.7589,393.2925 C390.1083,286.389 468.0582,286.6711 544.5464,374.4741 C596.1145,296.0256 647.3823,291.1609 707.4318,365.4279 C787.1823,267.8856 860.0331,258.7896 923.7139,381.2274 C973.5592,293.2896 1031.9113,311.2 1087.3042,375.2565 C1153.0622,293.3069 1232.1599,273.9304 1286.5461,386.8815 C1339.1964,289.2078 1432.7978,277.6836 1486.8217,385.543 C1542.3613,296.6917 1612.6484,314.2472 1665.9016,388.06 C1727.9165,297.0124 1793.3677,281.3827 1870.4104,371.0538 C1932.0248,278.7326 2013.3596,295.9222 2064.9663,381.9698 C2107.2877,305.7904 2185.5895,300.6089 2225.6916,384.2023 C2282.3259,302.4209 2355.9224,277.4324 2421.6566,374.2156 C2487.7597,280.435 2559.312,268.8491 2624.7778,374.8635 C2670.9161,297.692 2747.0247,290.2421 2796.414,371.338 C2807.4772,361.2365 2817.1071,365.0134 2820.9007,378.7923 C2937.0094,441.4273 2924.4331,552.6081 2825.8779,619.6785 C2921.0266,708.2944 2906.8245,809.145 2789.414,866.338 C2799.7224,871.3746 2800.1789,882.3097 2791.534,889.1108 C2726.1177,963.8854 2651.5894,969.458 2604.7037,869.3178 C2561.6095,956.591 2483.6975,963.3007 2426.1884,884.8448 C2384.7427,973.6837 2300.2575,984.1956 2248.6534,894.9731 C2178.0531,988.7097 2101.7307,987.3389 2050.8538,875.9537 C2011.0757,977.6594 1932.2069,967.7035 1868.2666,902.364 C1803.7066,992.3786 1717.9033,969.55 1675.8047,878.49 C1623.0364,970.7932 1542.6886,990.8434 1473.4425,896.34 C1403.0692,969.5589 1348.6712,968.9293 1299.6144,874.2683 C1253.7951,973.0106 1153.6208,1006.4542 1086.9601,895.393 C1026.3641,982.1113 951.4819,968.5946 903.9879,881.5932 C849.7575,963.3198 788.4084,968.786 732.298,883.5261 C676.3417,981.5657 589.5373,991.5389 530.0177,887.0856 C473.034,983.8344 403.6658,985.6706 337.6604,896.4155 C257.0784,989.8253 174.835,972.6393 131.414,859.338 C152.7131,855.6977 164.6069,870.2247 160.099,890.4094 C8.0009,816.1073 18.4709,712.0636 137.4338,615.4201 C6,532.0547 18.8901,446.7238 138.414,364.338 C152.2415,364.1848 161.3156,369.391 155.3009,385.2562 " style="stroke:#181818;stroke-width:1.0;fill:none;"/><text fill="#000000" font-family="sans-serif" font-size="14" font-weight="bold" lengthAdjust="spacing" textLength="96" x="1415.914" y="382.3331">lab network</text></g><!--MD5=[a24e2d3c6da327c728ec90627f18803f]
cluster DUT1--><g id="cluster_DUT1"><path d="M1005.9579,410.8509 C1010.8169,397.5998 1021.537,396.1708 1029.6436,407.7534 C1037.2712,396.528 1046.0956,396.4663 1054.0445,407.3995 C1060.4413,391.8693 1073.9875,394.2968 1082.4511,405.1765 C1089.0866,395.1299 1100.4113,395.3555 1106.7152,405.5736 C1114.7699,393.9688 1122.1127,394.0043 1130.8654,404.8218 C1136.3628,390.0742 1149.3846,390.3292 1158.7172,400.5424 C1167.1457,388.5281 1175.0029,387.6852 1183.3625,400.6105 C1190.807,390.904 1201.4738,389.2138 1207.6718,401.96 C1216.7549,392.2682 1227.1224,393.4899 1233.6659,405.0642 C1241.9272,394.2655 1251.0583,391.807 1258.6819,405.71 C1267.6299,391.2657 1277.857,392.9867 1286.2948,406.2191 C1294.0246,393.643 1305.3933,393.2558 1312.7205,406.6289 C1319.049,396.456 1329.6725,396.6695 1335.3528,407.3329 C1349.3757,392.5564 1359.5999,397.1498 1366.414,414.338 C1369.9107,413.412 1371.4434,415.6281 1370.5598,418.7854 C1379.2014,426.1798 1379.893,433.6321 1368.6916,439.2116 C1382.2881,447.3367 1384.96,456.5961 1372.6103,468.2256 C1384.1185,474.5775 1382.668,482.2258 1372.9975,488.973 C1388.4315,494.2364 1388.5776,505.6831 1377.9186,515.7433 C1391.9575,522.8934 1388.6496,533.8737 1378.4056,541.4833 C1388.2316,547.4296 1391.8822,553.7004 1381.3945,562.5313 C1391.5622,571.9695 1391.0883,581.8339 1378.5111,588.7729 C1387.0343,597.8027 1387.6515,608.1311 1373.4766,612.3047 C1385.8361,620.8086 1385.0015,631.2324 1372.5605,638.8815 C1385.644,648.3355 1385.4266,658.3704 1370.2593,665.3701 C1379.2965,671.9979 1381.1253,682.0946 1369.2632,687.794 C1381.8265,700.9313 1374.259,713.338 1359.414,717.338 C1361.3626,717.8368 1361.2722,719.5152 1360.1138,720.6671 C1352.9596,734.1884 1343.551,733.4629 1335.8258,721.2051 C1326.9161,734.498 1317.9702,731.867 1309.9452,720.2846 C1302.5148,732.2576 1294.6525,736.4667 1284.1933,723.3995 C1278.3233,734.1763 1267.4265,735.7545 1261.0011,723.9704 C1254.0638,735.9972 1243.7105,738.1104 1234.181,726.9716 C1225.7944,738.2341 1214.6043,735.0655 1209.1502,723.7243 C1203.594,738.4534 1191.2554,740.5249 1182.2551,727.003 C1173.4345,738.4816 1166.5579,737.7446 1159.4671,725.3517 C1151.009,738.9169 1140.4863,740.0801 1130.9235,726.5139 C1120.8025,738.0175 1111.6415,736.1292 1105.8192,722.2607 C1098.664,734.9445 1090.208,732.5842 1082.8388,722.4765 C1074.5071,733.5653 1063.1622,735.6739 1056.0727,721.177 C1050.0695,732.4004 1038.3714,732.7784 1030.9938,722.803 C1015.9933,735.5424 997.5489,732.4192 994.414,710.338 C996.6697,710.1911 997.181,711.7547 996.3615,713.5011 C982.0551,705.4649 983.2853,694.1416 996.2475,685.9924 C984.6818,680.8996 985.4268,671.8299 994.2309,664.799 C981.225,657.4024 977.8385,648.7417 990.0492,637.4845 C980.4455,631.3484 979.5282,620.3499 990.1633,614.3135 C978.8246,606.6051 977.4013,595.8445 988.8384,587.0301 C975.9208,580.7749 976.1885,570.6235 986.8922,562.4947 C977.937,553.989 975.8664,544.5086 989.691,538.6802 C981.3799,532.056 979.4228,522.5093 991.4351,517.5637 C979.6213,509.2501 977.8827,500.3842 989.6294,490.4988 C977.5223,481.4334 980.5448,470.1534 993.6754,465.1099 C983.2982,456.318 983.3493,448.3551 994.2321,440.0352 C981.0344,428.1573 985.2549,412.7677 1001.414,407.338 C1004.619,405.9359 1006.1503,407.8585 1005.9579,410.8509 " style="stroke:#181818;stroke-width:1.0;fill:none;"/><text fill="#000000" font-family="sans-serif" font-size="14" font-weight="bold" lengthAdjust="spacing" textLength="43" x="1158.914" y="425.3331">DUT1</text></g><!--MD5=[bc33b001d8d0906d533ac6d1e2e5f35f]
cluster pi4_1--><g id="cluster_pi4_1"><polygon points="1138.414,460.338,1148.414,450.338,1342.414,450.338,1342.414,582.338,1332.414,592.338,1138.414,592.338,1138.414,460.338" style="stroke:#181818;stroke-width:1.0;fill:none;"/><line style="stroke:#181818;stroke-width:1.0;fill:none;" x1="1332.414" x2="1342.414" y1="460.338" y2="450.338"/><line style="stroke:#181818;stroke-width:1.0;fill:none;" x1="1138.414" x2="1332.414" y1="460.338" y2="460.338"/><line style="stroke:#181818;stroke-width:1.0;fill:none;" x1="1332.414" x2="1332.414" y1="460.338" y2="592.338"/><text fill="#000000" font-family="sans-serif" font-size="14" font-weight="bold" lengthAdjust="spacing" textLength="128" x="1172.414" y="476.3331">Raspberry Pi 4B</text></g><!--MD5=[3184c8859e55d4f7c5c4b7ca983e90ad]
cluster DUT3--><g id="cluster_DUT3"><path d="M1417.9579,410.8509 C1422.8169,397.5998 1433.537,396.1708 1441.6436,407.7534 C1449.2712,396.528 1458.0956,396.4663 1466.0445,407.3995 C1472.4413,391.8693 1485.9875,394.2968 1494.4511,405.1765 C1501.0866,395.1299 1512.4113,395.3555 1518.7152,405.5736 C1526.7699,393.9688 1534.1127,394.0043 1542.8654,404.8218 C1548.3628,390.0742 1561.3846,390.3292 1570.7172,400.5424 C1579.1457,388.5281 1587.0029,387.6852 1595.3625,400.6105 C1602.807,390.904 1613.4738,389.2138 1619.6718,401.96 C1628.7549,392.2682 1639.1224,393.4899 1645.6659,405.0642 C1653.9272,394.2655 1663.0583,391.807 1670.6819,405.71 C1679.6299,391.2657 1689.857,392.9867 1698.2948,406.2191 C1706.0246,393.643 1717.3933,393.2558 1724.7205,406.6289 C1731.049,396.456 1741.6725,396.6695 1747.3528,407.3329 C1761.3757,392.5564 1771.5999,397.1498 1778.414,414.338 C1781.9107,413.412 1783.4434,415.6281 1782.5598,418.7854 C1791.2014,426.1798 1791.893,433.6321 1780.6916,439.2116 C1794.2881,447.3367 1796.96,456.5961 1784.6103,468.2256 C1796.1185,474.5775 1794.668,482.2258 1784.9975,488.973 C1800.4315,494.2364 1800.5776,505.6831 1789.9186,515.7433 C1803.9575,522.8934 1800.6496,533.8737 1790.4056,541.4833 C1800.2316,547.4296 1803.8822,553.7004 1793.3945,562.5313 C1803.5622,571.9695 1803.0883,581.8339 1790.5111,588.7729 C1799.0343,597.8027 1799.6515,608.1311 1785.4766,612.3047 C1797.8361,620.8086 1797.0015,631.2324 1784.5605,638.8815 C1797.644,648.3355 1797.4266,658.3704 1782.2593,665.3701 C1791.2965,671.9979 1793.1253,682.0946 1781.2632,687.794 C1793.8265,700.9313 1786.259,713.338 1771.414,717.338 C1773.3626,717.8368 1773.2722,719.5152 1772.1138,720.6671 C1764.9596,734.1884 1755.551,733.4629 1747.8258,721.2051 C1738.9161,734.498 1729.9702,731.867 1721.9452,720.2846 C1714.5148,732.2576 1706.6525,736.4667 1696.1933,723.3995 C1690.3233,734.1763 1679.4265,735.7545 1673.0011,723.9704 C1666.0638,735.9972 1655.7105,738.1104 1646.181,726.9716 C1637.7944,738.2341 1626.6043,735.0655 1621.1502,723.7243 C1615.594,738.4534 1603.2554,740.5249 1594.2551,727.003 C1585.4345,738.4816 1578.5579,737.7446 1571.4671,725.3517 C1563.009,738.9169 1552.4863,740.0801 1542.9235,726.5139 C1532.8025,738.0175 1523.6415,736.1292 1517.8192,722.2607 C1510.664,734.9445 1502.208,732.5842 1494.8388,722.4765 C1486.5071,733.5653 1475.1622,735.6739 1468.0727,721.177 C1462.0695,732.4004 1450.3714,732.7784 1442.9938,722.803 C1427.9933,735.5424 1409.5489,732.4192 1406.414,710.338 C1408.6697,710.1911 1409.181,711.7547 1408.3615,713.5011 C1394.0551,705.4649 1395.2853,694.1416 1408.2475,685.9924 C1396.6818,680.8996 1397.4268,671.8299 1406.2309,664.799 C1393.225,657.4024 1389.8385,648.7417 1402.0492,637.4845 C1392.4455,631.3484 1391.5282,620.3499 1402.1633,614.3135 C1390.8246,606.6051 1389.4013,595.8445 1400.8384,587.0301 C1387.9208,580.7749 1388.1885,570.6235 1398.8922,562.4947 C1389.937,553.989 1387.8664,544.5086 1401.691,538.6802 C1393.3799,532.056 1391.4228,522.5093 1403.4351,517.5637 C1391.6213,509.2501 1389.8827,500.3842 1401.6294,490.4988 C1389.5223,481.4334 1392.5448,470.1534 1405.6754,465.1099 C1395.2982,456.318 1395.3493,448.3551 1406.2321,440.0352 C1393.0344,428.1573 1397.2549,412.7677 1413.414,407.338 C1416.619,405.9359 1418.1503,407.8585 1417.9579,410.8509 " style="stroke:#181818;stroke-width:1.0;fill:none;"/><text fill="#000000" font-family="sans-serif" font-size="14" font-weight="bold" lengthAdjust="spacing" textLength="43" x="1570.914" y="425.3331">DUT3</text></g><!--MD5=[c0abeb8d6cc5853e7e9f448bcba24c2b]
cluster pi4_3--><g id="cluster_pi4_3"><polygon points="1550.414,460.338,1560.414,450.338,1754.414,450.338,1754.414,582.338,1744.414,592.338,1550.414,592.338,1550.414,460.338" style="stroke:#181818;stroke-width:1.0;fill:none;"/><line style="stroke:#181818;stroke-width:1.0;fill:none;" x1="1744.414" x2="1754.414" y1="460.338" y2="450.338"/><line style="stroke:#181818;stroke-width:1.0;fill:none;" x1="1550.414" x2="1744.414" y1="460.338" y2="460.338"/><line style="stroke:#181818;stroke-width:1.0;fill:none;" x1="1744.414" x2="1744.414" y1="460.338" y2="592.338"/><text fill="#000000" font-family="sans-serif" font-size="14" font-weight="bold" lengthAdjust="spacing" textLength="128" x="1584.414" y="476.3331">Raspberry Pi 4B</text></g><!--MD5=[a551b30e31871130002f4761088fbd23]
cluster DUT4--><g id="cluster_DUT4"><path d="M1829.9579,410.8509 C1834.8169,397.5998 1845.537,396.1708 1853.6436,407.7534 C1861.2712,396.528 1870.0956,396.4663 1878.0445,407.3995 C1884.4413,391.8693 1897.9875,394.2968 1906.4511,405.1765 C1913.0866,395.1299 1924.4113,395.3555 1930.7152,405.5736 C1938.7699,393.9688 1946.1127,394.0043 1954.8654,404.8218 C1960.3628,390.0742 1973.3846,390.3292 1982.7172,400.5424 C1991.1457,388.5281 1999.0029,387.6852 2007.3625,400.6105 C2014.807,390.904 2025.4738,389.2138 2031.6718,401.96 C2040.7549,392.2682 2051.1224,393.4899 2057.6659,405.0642 C2065.9272,394.2655 2075.0583,391.807 2082.6819,405.71 C2091.6299,391.2657 2101.857,392.9867 2110.2948,406.2191 C2118.0246,393.643 2129.3933,393.2558 2136.7205,406.6289 C2143.049,396.456 2153.6725,396.6695 2159.3528,407.3329 C2173.3757,392.5564 2183.5999,397.1498 2190.414,414.338 C2193.9107,413.412 2195.4434,415.6281 2194.5598,418.7854 C2203.2014,426.1798 2203.893,433.6321 2192.6916,439.2116 C2206.2881,447.3367 2208.96,456.5961 2196.6103,468.2256 C2208.1185,474.5775 2206.668,482.2258 2196.9975,488.973 C2212.4315,494.2364 2212.5776,505.6831 2201.9186,515.7433 C2215.9575,522.8934 2212.6496,533.8737 2202.4056,541.4833 C2212.2316,547.4296 2215.8822,553.7004 2205.3945,562.5313 C2215.5622,571.9695 2215.0883,581.8339 2202.5111,588.7729 C2211.0343,597.8027 2211.6515,608.1311 2197.4766,612.3047 C2209.8361,620.8086 2209.0015,631.2324 2196.5605,638.8815 C2209.644,648.3355 2209.4266,658.3704 2194.2593,665.3701 C2203.2965,671.9979 2205.1253,682.0946 2193.2632,687.794 C2205.8265,700.9313 2198.259,713.338 2183.414,717.338 C2185.3626,717.8368 2185.2722,719.5152 2184.1138,720.6671 C2176.9596,734.1884 2167.551,733.4629 2159.8258,721.2051 C2150.9161,734.498 2141.9702,731.867 2133.9452,720.2846 C2126.5148,732.2576 2118.6525,736.4667 2108.1933,723.3995 C2102.3233,734.1763 2091.4265,735.7545 2085.0011,723.9704 C2078.0638,735.9972 2067.7105,738.1104 2058.181,726.9716 C2049.7944,738.2341 2038.6043,735.0655 2033.1502,723.7243 C2027.594,738.4534 2015.2554,740.5249 2006.2551,727.003 C1997.4345,738.4816 1990.5579,737.7446 1983.4671,725.3517 C1975.009,738.9169 1964.4863,740.0801 1954.9235,726.5139 C1944.8025,738.0175 1935.6415,736.1292 1929.8192,722.2607 C1922.664,734.9445 1914.208,732.5842 1906.8388,722.4765 C1898.5071,733.5653 1887.1622,735.6739 1880.0727,721.177 C1874.0695,732.4004 1862.3714,732.7784 1854.9938,722.803 C1839.9933,735.5424 1821.5489,732.4192 1818.414,710.338 C1820.6697,710.1911 1821.181,711.7547 1820.3615,713.5011 C1806.0551,705.4649 1807.2853,694.1416 1820.2475,685.9924 C1808.6818,680.8996 1809.4268,671.8299 1818.2309,664.799 C1805.225,657.4024 1801.8385,648.7417 1814.0492,637.4845 C1804.4455,631.3484 1803.5282,620.3499 1814.1633,614.3135 C1802.8246,606.6051 1801.4013,595.8445 1812.8384,587.0301 C1799.9208,580.7749 1800.1885,570.6235 1810.8922,562.4947 C1801.937,553.989 1799.8664,544.5086 1813.691,538.6802 C1805.3799,532.056 1803.4228,522.5093 1815.4351,517.5637 C1803.6213,509.2501 1801.8827,500.3842 1813.6294,490.4988 C1801.5223,481.4334 1804.5448,470.1534 1817.6754,465.1099 C1807.2982,456.318 1807.3493,448.3551 1818.2321,440.0352 C1805.0344,428.1573 1809.2549,412.7677 1825.414,407.338 C1828.619,405.9359 1830.1503,407.8585 1829.9579,410.8509 " style="stroke:#181818;stroke-width:1.0;fill:none;"/><text fill="#000000" font-family="sans-serif" font-size="14" font-weight="bold" lengthAdjust="spacing" textLength="43" x="1982.914" y="425.3331">DUT4</text></g><!--MD5=[6488e9e5ca5b78d586330d2ee7e9df46]
cluster pi4_4--><g id="cluster_pi4_4"><polygon points="1962.414,460.338,1972.414,450.338,2166.414,450.338,2166.414,582.338,2156.414,592.338,1962.414,592.338,1962.414,460.338" style="stroke:#181818;stroke-width:1.0;fill:none;"/><line style="stroke:#181818;stroke-width:1.0;fill:none;" x1="2156.414" x2="2166.414" y1="460.338" y2="450.338"/><line style="stroke:#181818;stroke-width:1.0;fill:none;" x1="1962.414" x2="2156.414" y1="460.338" y2="460.338"/><line style="stroke:#181818;stroke-width:1.0;fill:none;" x1="2156.414" x2="2156.414" y1="460.338" y2="592.338"/><text fill="#000000" font-family="sans-serif" font-size="14" font-weight="bold" lengthAdjust="spacing" textLength="128" x="1996.414" y="476.3331">Raspberry Pi 4B</text></g><!--MD5=[ba488c30fdfb4338c05fdc3f321c7f02]
cluster DUT2--><g id="cluster_DUT2"><path d="M2242.0857,408.7181 C2252.9023,391.1597 2264.4687,389.3978 2276.6987,407.3401 C2289.1334,390.0126 2307.7408,388.8905 2315.9679,411.4796 C2324.4394,391.1037 2339.8522,385.8746 2354.7309,405.2283 C2364.6898,388.4854 2383.4174,386.3975 2392.6642,405.9721 C2402.6356,387.8569 2418.5871,387.4557 2428.0676,406.4406 C2436.7725,383.0485 2453.8974,383.1057 2469.0646,399.8377 C2479.1492,384.7405 2495.0173,383.8954 2503.8632,401.1693 C2515.7013,384.2845 2527.5026,382.5939 2539.3855,401.1243 C2552.334,385.6546 2570.2912,383.7655 2579.5785,405.1203 C2590.3348,385.2783 2609.6144,388.865 2619.0257,406.5347 C2633.5275,387.0704 2648.0584,392.1863 2658.8913,410.415 C2666.8612,392.68 2681.3011,388.4798 2693.9363,405.7436 C2707.4725,389.7853 2721.7689,388.1803 2731.7396,409.3717 C2745.4584,389.7518 2763.6208,393.6168 2772.414,414.338 C2777.182,413.3902 2779.3506,415.9057 2778.0893,420.5058 C2792.9592,432.9134 2794.2255,446.4702 2776.2104,457.1937 C2790.606,468.0166 2794.2495,484.1111 2774.5646,493.3841 C2792.1016,502.4826 2791.7596,515.3678 2776.746,526.6038 C2799.2334,534.2455 2799.8063,553.8445 2783.46,567.8133 C2799.6624,583.0704 2794.202,593.4497 2777.7091,603.4273 C2794.5048,615.4487 2792.978,627.3885 2775.0699,636.6532 C2792.724,646.9323 2796.4455,661.057 2779.2649,675.1337 C2797.6245,693.3329 2789.2959,713.0019 2765.414,717.338 C2767.1816,715.7347 2768.479,715.965 2769.1978,718.3365 C2757.0975,740.8033 2743.8339,738.0535 2729.4601,720.5996 C2717.6877,737.2523 2701.6023,738.9599 2692.251,718.1921 C2682.0965,737.3287 2668.3679,736.0367 2655.3576,721.3028 C2646.4086,739.9834 2629.9766,741.6737 2617.2822,725.3804 C2602.4197,743.045 2587.2461,739.2114 2578.0799,719.4188 C2568.8768,736.0467 2557.1383,736.4131 2545.6696,721.7668 C2535.6459,738.6491 2515.3509,743.2279 2504.726,722.4199 C2493.37,738.8468 2474.5692,739.0662 2465.4875,719.9119 C2458.3978,735.109 2442.2786,738.4512 2431.0335,724.8904 C2417.801,741.8132 2403.1838,742.4437 2389.397,725.5733 C2378.0663,742.2505 2362.097,744.805 2351.1337,725.1859 C2338.0209,737.7958 2326.1511,736.4049 2319.4336,718.5345 C2309.3701,735.4802 2292.5771,738.4687 2282.0018,719.0616 C2264.3265,743.4651 2239.8947,734.3933 2230.414,710.338 C2231.7031,711.0634 2232.1903,712.3182 2230.6621,713.2812 C2216.3368,701.2937 2217.5338,690.2452 2232.8114,680.1798 C2216.2957,668.7618 2215.4405,654.9687 2232.1983,643.002 C2215.3671,630.8224 2214.0465,616.063 2231.6612,603.416 C2214.2249,592.7228 2215.4005,578.9088 2231.0004,567.606 C2212.4473,557.6987 2209.4454,540.7544 2225.884,526.4926 C2212.347,514.4982 2215.5641,497.4457 2231.7742,490.2914 C2217.4914,482.6116 2215.0336,468.01 2229.4932,458.2819 C2210.1424,439.38 2210.8894,419.1072 2237.414,407.338 C2239.4718,405.2849 2241.508,405.7606 2242.0857,408.7181 " style="stroke:#181818;stroke-width:1.0;fill:none;"/><text fill="#000000" font-family="sans-serif" font-size="14" font-weight="bold" lengthAdjust="spacing" textLength="43" x="2479.914" y="425.3331">DUT2</text></g><!--MD5=[c2b6ee0f47fae671b4df2eb4fd0b462f]
cluster pi4_2--><g id="cluster_pi4_2"><polygon points="2379.414,460.338,2389.414,450.338,2583.414,450.338,2583.414,582.338,2573.414,592.338,2379.414,592.338,2379.414,460.338" style="stroke:#181818;stroke-width:1.0;fill:none;"/><line style="stroke:#181818;stroke-width:1.0;fill:none;" x1="2573.414" x2="2583.414" y1="460.338" y2="450.338"/><line style="stroke:#181818;stroke-width:1.0;fill:none;" x1="2379.414" x2="2573.414" y1="460.338" y2="460.338"/><line style="stroke:#181818;stroke-width:1.0;fill:none;" x1="2573.414" x2="2573.414" y1="460.338" y2="592.338"/><text fill="#000000" font-family="sans-serif" font-size="14" font-weight="bold" lengthAdjust="spacing" textLength="128" x="2413.414" y="476.3331">Raspberry Pi 4B</text></g><!--MD5=[3e9d561e4bd47397fe7d8e080e561392]
cluster infserv--><g id="cluster_infserv"><path d="M167.8862,489.066 C187.7569,458.9486 206.1199,465.4653 224.7306,490.3677 C239.809,462.3093 267.773,464.6481 281.0739,492.1696 C296.9067,463.6065 312.7183,464.0973 332.1136,488.753 C349.9691,460.3544 374.3152,459.3566 391.5153,489.419 C407.8754,467.2046 425.0899,460.3214 442.9734,487.8428 C458.8791,460.5193 477.0189,457.927 499.5427,480.311 C522.626,457.8227 542.6332,457.9759 560.0245,486.9948 C577.5039,463.2066 596.3734,460.662 615.5247,485.0695 C632.4616,452.5893 660.3602,452.6667 676.7454,485.586 C688.2306,458.8385 713.6631,458.2172 729.4959,480.9511 C749.7752,460.6863 773.1352,464.197 784.7893,491.0688 C802.1337,464.4246 823.1409,468.1997 840.027,491.5748 C858.263,462.0766 882.2501,464.1859 899.4672,492.6203 C917.6228,464.5228 935.9885,467.9 954.414,492.338 C959.3527,491.9034 961.46,493.551 960.3951,498.7322 C985.5509,514.7206 988.4067,538.848 960.4262,554.8658 C984.81,573.1085 991.5502,591.8628 961.1206,610.7862 C987.188,628.6025 988.7432,648.3004 964.6885,669.1793 C988.1239,685.2887 989.7892,713.2559 960.0451,724.9366 C985.8638,743.7295 985.2017,761.2033 962.2152,781.8569 C983.8964,807.8818 981.3453,829.923 947.414,842.338 C949.8159,842.6887 950.7459,843.9624 949.6902,846.2998 C932.5957,872.0227 916.5398,872.5725 898.147,847.6204 C880.5979,876.1548 864.3056,874.8376 844.2547,850.1538 C831.3266,879.0131 803.7031,877.4852 786.9484,854.3732 C770.1302,880.6107 747.9479,880.3069 733.2093,852.3125 C712.4696,880.4344 692.1318,877.8072 671.1399,852.6061 C658.9147,880.4504 636.8801,879.5525 620.896,856.3024 C601.5441,889.3323 577.1393,884.2749 559.2583,854.8508 C544.255,879.2038 516.5708,883.2346 503.9559,852.455 C487.8221,872.8549 464.6488,878.2606 451.4193,849.3601 C432.1947,877.7538 414.5746,875.008 393.9447,850.8985 C379.7595,881.8794 356.1366,878.3674 337.7437,855.2715 C320.7757,882.5397 294.6435,884.0922 278.3706,854.545 C263.0764,877.2901 240.3459,876.6188 227.5658,851.8565 C197.9987,877.3841 169.0159,879.5452 155.414,835.338 C158.5208,837.5541 158.3242,839.7288 155.5131,842.0325 C129.1342,822.0712 132.7767,800.4781 161.7419,786.7529 C135.6651,769.4245 133.1725,749.8879 155.173,727.2518 C127.501,712.28 124.4703,689.8492 151.8846,671.6213 C117.7162,652.0815 120.7242,632.7907 149.4816,610.7662 C126.7805,594.6804 128.381,570.2123 155.0336,559.4681 C121.5862,531.6904 129.4255,506.5014 162.414,485.338 C166.0226,483.925 168.028,484.9739 167.8862,489.066 " style="stroke:#181818;stroke-width:1.0;fill:none;"/><text fill="#000000" font-family="sans-serif" font-size="14" font-weight="bold" lengthAdjust="spacing" textLength="187" x="461.414" y="503.3331">Infrastructure services</text></g><!--MD5=[5ec7eedd57310648f8059ffb2621ca4b]
cluster docker--><g id="cluster_docker"><polygon points="163.414,555.338,173.414,545.338,946.414,545.338,946.414,824.338,936.414,834.338,163.414,834.338,163.414,555.338" style="stroke:#181818;stroke-width:1.0;fill:none;"/><line style="stroke:#181818;stroke-width:1.0;fill:none;" x1="936.414" x2="946.414" y1="555.338" y2="545.338"/><line style="stroke:#181818;stroke-width:1.0;fill:none;" x1="163.414" x2="936.414" y1="555.338" y2="555.338"/><line style="stroke:#181818;stroke-width:1.0;fill:none;" x1="936.414" x2="936.414" y1="555.338" y2="834.338"/><text fill="#000000" font-family="sans-serif" font-size="14" font-weight="bold" lengthAdjust="spacing" textLength="132" x="484.914" y="571.3331">Docker compose</text></g><!--MD5=[670ed58fbcfa18955cb1914f9e6929f5]
entity gitlab--><g id="elem_gitlab"><rect fill="#F1F1F1" height="46.2969" rx="2.5" ry="2.5" style="stroke:#181818;stroke-width:0.5;" width="223" x="1761.914" y="139.338"/><rect fill="#F1F1F1" height="10" style="stroke:#181818;stroke-width:0.5;" width="15" x="1964.914" y="144.338"/><rect fill="#F1F1F1" height="2" style="stroke:#181818;stroke-width:0.5;" width="4" x="1962.914" y="146.338"/><rect fill="#F1F1F1" height="2" style="stroke:#181818;stroke-width:0.5;" width="4" x="1962.914" y="150.338"/><text fill="#000000" font-family="sans-serif" font-size="14" lengthAdjust="spacing" textLength="183" x="1776.914" y="172.3331">Eclipse Foundation Gitlab</text></g><!--MD5=[cea6eca2e14cdf73ba66238a893fe5f1]
entity lava--><g id="elem_lava"><rect fill="#F1F1F1" height="46.2969" rx="2.5" ry="2.5" style="stroke:#181818;stroke-width:0.5;" width="117" x="1814.914" y="261.338"/><rect fill="#F1F1F1" height="10" style="stroke:#181818;stroke-width:0.5;" width="15" x="1911.914" y="266.338"/><rect fill="#F1F1F1" height="2" style="stroke:#181818;stroke-width:0.5;" width="4" x="1909.914" y="268.338"/><rect fill="#F1F1F1" height="2" style="stroke:#181818;stroke-width:0.5;" width="4" x="1909.914" y="272.338"/><text fill="#000000" font-family="sans-serif" font-size="14" lengthAdjust="spacing" textLength="77" x="1829.914" y="294.3331">lava server</text></g><!--MD5=[24ae6a5474e916cd85c833de88942229]
entity loki--><g id="elem_loki"><polygon fill="#F1F1F1" points="2020.414,149.338,2030.414,139.338,2196.414,139.338,2196.414,175.6349,2186.414,185.6349,2020.414,185.6349,2020.414,149.338" style="stroke:#181818;stroke-width:0.5;"/><line style="stroke:#181818;stroke-width:0.5;" x1="2186.414" x2="2196.414" y1="149.338" y2="139.338"/><line style="stroke:#181818;stroke-width:0.5;" x1="2020.414" x2="2186.414" y1="149.338" y2="149.338"/><line style="stroke:#181818;stroke-width:0.5;" x1="2186.414" x2="2186.414" y1="149.338" y2="185.6349"/><text fill="#000000" font-family="sans-serif" font-size="14" lengthAdjust="spacing" textLength="136" x="2035.414" y="172.3331">Grafana/loki server</text></g><!--MD5=[a5a6ae0ba01c8a4589ab26bd33e87aad]
entity storage--><g id="elem_storage"><path d="M1002.914,532.838 C1002.914,522.838 1043.414,522.838 1043.414,522.838 C1043.414,522.838 1083.914,522.838 1083.914,532.838 L1083.914,558.1349 C1083.914,568.1349 1043.414,568.1349 1043.414,568.1349 C1043.414,568.1349 1002.914,568.1349 1002.914,558.1349 L1002.914,532.838 " fill="#F1F1F1" style="stroke:#181818;stroke-width:0.5;"/><path d="M1002.914,532.838 C1002.914,542.838 1043.414,542.838 1043.414,542.838 C1043.414,542.838 1083.914,542.838 1083.914,532.838 " fill="none" style="stroke:#181818;stroke-width:0.5;"/><text fill="#000000" font-family="sans-serif" font-size="14" lengthAdjust="spacing" textLength="61" x="1012.914" y="559.8331">USB SSD</text></g><!--MD5=[d7229e883a8bf239c22ffbc99611a6a8]
entity nitrogen3_1--><g id="elem_nitrogen3_1"><polygon fill="#F1F1F1" points="1103.914,673.338,1113.914,663.338,1206.914,663.338,1206.914,699.6349,1196.914,709.6349,1103.914,709.6349,1103.914,673.338" style="stroke:#181818;stroke-width:0.5;"/><line style="stroke:#181818;stroke-width:0.5;" x1="1196.914" x2="1206.914" y1="673.338" y2="663.338"/><line style="stroke:#181818;stroke-width:0.5;" x1="1103.914" x2="1196.914" y1="673.338" y2="673.338"/><line style="stroke:#181818;stroke-width:0.5;" x1="1196.914" x2="1196.914" y1="673.338" y2="709.6349"/><text fill="#000000" font-family="sans-serif" font-size="14" lengthAdjust="spacing" textLength="63" x="1118.914" y="696.3331">Nitrogen</text></g><!--MD5=[64a817279d567f20a87089ee8b859525]
entity nitrogen3_2--><g id="elem_nitrogen3_2"><polygon fill="#F1F1F1" points="1241.914,673.338,1251.914,663.338,1344.914,663.338,1344.914,699.6349,1334.914,709.6349,1241.914,709.6349,1241.914,673.338" style="stroke:#181818;stroke-width:0.5;"/><line style="stroke:#181818;stroke-width:0.5;" x1="1334.914" x2="1344.914" y1="673.338" y2="663.338"/><line style="stroke:#181818;stroke-width:0.5;" x1="1241.914" x2="1334.914" y1="673.338" y2="673.338"/><line style="stroke:#181818;stroke-width:0.5;" x1="1334.914" x2="1334.914" y1="673.338" y2="709.6349"/><text fill="#000000" font-family="sans-serif" font-size="14" lengthAdjust="spacing" textLength="63" x="1256.914" y="696.3331">Nitrogen</text></g><!--MD5=[0fa1bcb1596fdf58d4771b3f3d14f995]
entity lavaworker1--><g id="elem_lavaworker1"><rect fill="#F1F1F1" height="46.2969" rx="2.5" ry="2.5" style="stroke:#181818;stroke-width:0.5;" width="126" x="1192.414" y="522.338"/><rect fill="#F1F1F1" height="10" style="stroke:#181818;stroke-width:0.5;" width="15" x="1298.414" y="527.338"/><rect fill="#F1F1F1" height="2" style="stroke:#181818;stroke-width:0.5;" width="4" x="1296.414" y="529.338"/><rect fill="#F1F1F1" height="2" style="stroke:#181818;stroke-width:0.5;" width="4" x="1296.414" y="533.338"/><text fill="#000000" font-family="sans-serif" font-size="14" lengthAdjust="spacing" textLength="86" x="1207.414" y="555.3331">Lava worker</text></g><!--MD5=[5007e258647d060eb0b609a66781e7eb]
entity storage3--><g id="elem_storage3"><path d="M1414.914,532.838 C1414.914,522.838 1455.414,522.838 1455.414,522.838 C1455.414,522.838 1495.914,522.838 1495.914,532.838 L1495.914,558.1349 C1495.914,568.1349 1455.414,568.1349 1455.414,568.1349 C1455.414,568.1349 1414.914,568.1349 1414.914,558.1349 L1414.914,532.838 " fill="#F1F1F1" style="stroke:#181818;stroke-width:0.5;"/><path d="M1414.914,532.838 C1414.914,542.838 1455.414,542.838 1455.414,542.838 C1455.414,542.838 1495.914,542.838 1495.914,532.838 " fill="none" style="stroke:#181818;stroke-width:0.5;"/><text fill="#000000" font-family="sans-serif" font-size="14" lengthAdjust="spacing" textLength="61" x="1424.914" y="559.8331">USB SSD</text></g><!--MD5=[94dbd72224ac95a39a190280aedcd023]
entity b68--><g id="elem_b68"><polygon fill="#F1F1F1" points="1501.414,673.338,1511.414,663.338,1611.414,663.338,1611.414,699.6349,1601.414,709.6349,1501.414,709.6349,1501.414,673.338" style="stroke:#181818;stroke-width:0.5;"/><line style="stroke:#181818;stroke-width:0.5;" x1="1601.414" x2="1611.414" y1="673.338" y2="663.338"/><line style="stroke:#181818;stroke-width:0.5;" x1="1501.414" x2="1601.414" y1="673.338" y2="673.338"/><line style="stroke:#181818;stroke-width:0.5;" x1="1601.414" x2="1601.414" y1="673.338" y2="709.6349"/><text fill="#000000" font-family="sans-serif" font-size="14" lengthAdjust="spacing" textLength="70" x="1516.414" y="696.3331">SECO B68</text></g><!--MD5=[38aa2ab79102b625c94e0ab34d84540d]
entity c61--><g id="elem_c61"><polygon fill="#F1F1F1" points="1646.914,673.338,1656.914,663.338,1757.914,663.338,1757.914,699.6349,1747.914,709.6349,1646.914,709.6349,1646.914,673.338" style="stroke:#181818;stroke-width:0.5;"/><line style="stroke:#181818;stroke-width:0.5;" x1="1747.914" x2="1757.914" y1="673.338" y2="663.338"/><line style="stroke:#181818;stroke-width:0.5;" x1="1646.914" x2="1747.914" y1="673.338" y2="673.338"/><line style="stroke:#181818;stroke-width:0.5;" x1="1747.914" x2="1747.914" y1="673.338" y2="709.6349"/><text fill="#000000" font-family="sans-serif" font-size="14" lengthAdjust="spacing" textLength="71" x="1661.914" y="696.3331">SECO C61</text></g><!--MD5=[4b9b4fb59a8629eeaa7f4951e97c582a]
entity lavaworker3--><g id="elem_lavaworker3"><rect fill="#F1F1F1" height="46.2969" rx="2.5" ry="2.5" style="stroke:#181818;stroke-width:0.5;" width="126" x="1604.414" y="522.338"/><rect fill="#F1F1F1" height="10" style="stroke:#181818;stroke-width:0.5;" width="15" x="1710.414" y="527.338"/><rect fill="#F1F1F1" height="2" style="stroke:#181818;stroke-width:0.5;" width="4" x="1708.414" y="529.338"/><rect fill="#F1F1F1" height="2" style="stroke:#181818;stroke-width:0.5;" width="4" x="1708.414" y="533.338"/><text fill="#000000" font-family="sans-serif" font-size="14" lengthAdjust="spacing" textLength="86" x="1619.414" y="555.3331">Lava worker</text></g><!--MD5=[804f7fa63ecb9c72045661494a16424f]
entity storage4--><g id="elem_storage4"><path d="M1826.914,532.838 C1826.914,522.838 1867.414,522.838 1867.414,522.838 C1867.414,522.838 1907.914,522.838 1907.914,532.838 L1907.914,558.1349 C1907.914,568.1349 1867.414,568.1349 1867.414,568.1349 C1867.414,568.1349 1826.914,568.1349 1826.914,558.1349 L1826.914,532.838 " fill="#F1F1F1" style="stroke:#181818;stroke-width:0.5;"/><path d="M1826.914,532.838 C1826.914,542.838 1867.414,542.838 1867.414,542.838 C1867.414,542.838 1907.914,542.838 1907.914,532.838 " fill="none" style="stroke:#181818;stroke-width:0.5;"/><text fill="#000000" font-family="sans-serif" font-size="14" lengthAdjust="spacing" textLength="61" x="1836.914" y="559.8331">USB SSD</text></g><!--MD5=[61085418be55119ffd589148b2046ad6]
entity arduino--><g id="elem_arduino"><polygon fill="#F1F1F1" points="1985.914,673.338,1995.914,663.338,2172.914,663.338,2172.914,699.6349,2162.914,709.6349,1985.914,709.6349,1985.914,673.338" style="stroke:#181818;stroke-width:0.5;"/><line style="stroke:#181818;stroke-width:0.5;" x1="2162.914" x2="2172.914" y1="673.338" y2="663.338"/><line style="stroke:#181818;stroke-width:0.5;" x1="1985.914" x2="2162.914" y1="673.338" y2="673.338"/><line style="stroke:#181818;stroke-width:0.5;" x1="2162.914" x2="2162.914" y1="673.338" y2="709.6349"/><text fill="#000000" font-family="sans-serif" font-size="14" lengthAdjust="spacing" textLength="147" x="2000.914" y="696.3331">Arduino nano 33 BLE</text></g><!--MD5=[340e256493aadf7e1efe19d48b9fa8c5]
entity lavaworker4--><g id="elem_lavaworker4"><rect fill="#F1F1F1" height="46.2969" rx="2.5" ry="2.5" style="stroke:#181818;stroke-width:0.5;" width="126" x="2016.414" y="522.338"/><rect fill="#F1F1F1" height="10" style="stroke:#181818;stroke-width:0.5;" width="15" x="2122.414" y="527.338"/><rect fill="#F1F1F1" height="2" style="stroke:#181818;stroke-width:0.5;" width="4" x="2120.414" y="529.338"/><rect fill="#F1F1F1" height="2" style="stroke:#181818;stroke-width:0.5;" width="4" x="2120.414" y="533.338"/><text fill="#000000" font-family="sans-serif" font-size="14" lengthAdjust="spacing" textLength="86" x="2031.414" y="555.3331">Lava worker</text></g><!--MD5=[338037127992e47fce517f5ce96452a3]
entity storage2--><g id="elem_storage2"><path d="M2238.914,532.838 C2238.914,522.838 2279.414,522.838 2279.414,522.838 C2279.414,522.838 2319.914,522.838 2319.914,532.838 L2319.914,558.1349 C2319.914,568.1349 2279.414,568.1349 2279.414,568.1349 C2279.414,568.1349 2238.914,568.1349 2238.914,558.1349 L2238.914,532.838 " fill="#F1F1F1" style="stroke:#181818;stroke-width:0.5;"/><path d="M2238.914,532.838 C2238.914,542.838 2279.414,542.838 2279.414,542.838 C2279.414,542.838 2319.914,542.838 2319.914,532.838 " fill="none" style="stroke:#181818;stroke-width:0.5;"/><text fill="#000000" font-family="sans-serif" font-size="14" lengthAdjust="spacing" textLength="61" x="2248.914" y="559.8331">USB SSD</text></g><!--MD5=[0073fbb5d8779a553bf9b23ade38e759]
entity storage5--><g id="elem_storage5"><path d="M2682.914,673.838 C2682.914,663.838 2723.414,663.838 2723.414,663.838 C2723.414,663.838 2763.914,663.838 2763.914,673.838 L2763.914,699.1349 C2763.914,709.1349 2723.414,709.1349 2723.414,709.1349 C2723.414,709.1349 2682.914,709.1349 2682.914,699.1349 L2682.914,673.838 " fill="#F1F1F1" style="stroke:#181818;stroke-width:0.5;"/><path d="M2682.914,673.838 C2682.914,683.838 2723.414,683.838 2723.414,683.838 C2723.414,683.838 2763.914,683.838 2763.914,673.838 " fill="none" style="stroke:#181818;stroke-width:0.5;"/><text fill="#000000" font-family="sans-serif" font-size="14" lengthAdjust="spacing" textLength="61" x="2692.914" y="700.8331">USB SSD</text></g><!--MD5=[4154e078fb7f6842b2f6e80246e4f798]
entity storage5_1--><g id="elem_storage5_1"><path d="M2568.914,673.838 C2568.914,663.838 2608.414,663.838 2608.414,663.838 C2608.414,663.838 2647.914,663.838 2647.914,673.838 L2647.914,699.1349 C2647.914,709.1349 2608.414,709.1349 2608.414,709.1349 C2608.414,709.1349 2568.914,709.1349 2568.914,699.1349 L2568.914,673.838 " fill="#F1F1F1" style="stroke:#181818;stroke-width:0.5;"/><path d="M2568.914,673.838 C2568.914,683.838 2608.414,683.838 2608.414,683.838 C2608.414,683.838 2647.914,683.838 2647.914,673.838 " fill="none" style="stroke:#181818;stroke-width:0.5;"/><text fill="#000000" font-family="sans-serif" font-size="14" lengthAdjust="spacing" textLength="59" x="2578.914" y="700.8331">MicroSD</text></g><!--MD5=[aa2caa18f1a96f5db0b466cebf794ef3]
entity lavaworker2--><g id="elem_lavaworker2"><rect fill="#F1F1F1" height="46.2969" rx="2.5" ry="2.5" style="stroke:#181818;stroke-width:0.5;" width="126" x="2428.414" y="522.338"/><rect fill="#F1F1F1" height="10" style="stroke:#181818;stroke-width:0.5;" width="15" x="2534.414" y="527.338"/><rect fill="#F1F1F1" height="2" style="stroke:#181818;stroke-width:0.5;" width="4" x="2532.414" y="529.338"/><rect fill="#F1F1F1" height="2" style="stroke:#181818;stroke-width:0.5;" width="4" x="2532.414" y="533.338"/><text fill="#000000" font-family="sans-serif" font-size="14" lengthAdjust="spacing" textLength="86" x="2443.414" y="555.3331">Lava worker</text></g><!--MD5=[29a793b517c7657c1a75baa56a50cf0e]
entity pi4_5--><g id="elem_pi4_5"><polygon fill="#F1F1F1" points="2238.914,673.338,2248.914,663.338,2429.914,663.338,2429.914,699.6349,2419.914,709.6349,2238.914,709.6349,2238.914,673.338" style="stroke:#181818;stroke-width:0.5;"/><line style="stroke:#181818;stroke-width:0.5;" x1="2419.914" x2="2429.914" y1="673.338" y2="663.338"/><line style="stroke:#181818;stroke-width:0.5;" x1="2238.914" x2="2419.914" y1="673.338" y2="673.338"/><line style="stroke:#181818;stroke-width:0.5;" x1="2419.914" x2="2419.914" y1="673.338" y2="709.6349"/><text fill="#000000" font-family="sans-serif" font-size="14" lengthAdjust="spacing" textLength="151" x="2253.914" y="696.3331">DUT: Raspberry Pi 4B</text></g><!--MD5=[ea19deeb053b6d935524ddb2281a69ee]
entity traefik--><g id="elem_traefik"><rect fill="#F1F1F1" height="46.2969" rx="2.5" ry="2.5" style="stroke:#181818;stroke-width:0.5;" width="191" x="179.914" y="663.338"/><rect fill="#F1F1F1" height="10" style="stroke:#181818;stroke-width:0.5;" width="15" x="350.914" y="668.338"/><rect fill="#F1F1F1" height="2" style="stroke:#181818;stroke-width:0.5;" width="4" x="348.914" y="670.338"/><rect fill="#F1F1F1" height="2" style="stroke:#181818;stroke-width:0.5;" width="4" x="348.914" y="674.338"/><text fill="#000000" font-family="sans-serif" font-size="14" lengthAdjust="spacing" textLength="151" x="194.914" y="696.3331">Traefik load balancer</text></g><!--MD5=[ee228754cfefcd4388e3544836db2122]
entity dhcp--><g id="elem_dhcp"><rect fill="#F1F1F1" height="46.2969" rx="2.5" ry="2.5" style="stroke:#181818;stroke-width:0.5;" width="129" x="405.914" y="663.338"/><rect fill="#F1F1F1" height="10" style="stroke:#181818;stroke-width:0.5;" width="15" x="514.914" y="668.338"/><rect fill="#F1F1F1" height="2" style="stroke:#181818;stroke-width:0.5;" width="4" x="512.914" y="670.338"/><rect fill="#F1F1F1" height="2" style="stroke:#181818;stroke-width:0.5;" width="4" x="512.914" y="674.338"/><text fill="#000000" font-family="sans-serif" font-size="14" lengthAdjust="spacing" textLength="89" x="420.914" y="696.3331">DHCP server</text></g><!--MD5=[23d65aac2324c65ac0096783c9af7243]
entity ntp--><g id="elem_ntp"><rect fill="#F1F1F1" height="46.2969" rx="2.5" ry="2.5" style="stroke:#181818;stroke-width:0.5;" width="117" x="569.914" y="663.338"/><rect fill="#F1F1F1" height="10" style="stroke:#181818;stroke-width:0.5;" width="15" x="666.914" y="668.338"/><rect fill="#F1F1F1" height="2" style="stroke:#181818;stroke-width:0.5;" width="4" x="664.914" y="670.338"/><rect fill="#F1F1F1" height="2" style="stroke:#181818;stroke-width:0.5;" width="4" x="664.914" y="674.338"/><text fill="#000000" font-family="sans-serif" font-size="14" lengthAdjust="spacing" textLength="77" x="584.914" y="696.3331">NTP server</text></g><!--MD5=[30e382dc68ab04d49d3ef5ad3266e605]
entity dns--><g id="elem_dns"><rect fill="#F1F1F1" height="46.2969" rx="2.5" ry="2.5" style="stroke:#181818;stroke-width:0.5;" width="119" x="597.914" y="772.338"/><rect fill="#F1F1F1" height="10" style="stroke:#181818;stroke-width:0.5;" width="15" x="696.914" y="777.338"/><rect fill="#F1F1F1" height="2" style="stroke:#181818;stroke-width:0.5;" width="4" x="694.914" y="779.338"/><rect fill="#F1F1F1" height="2" style="stroke:#181818;stroke-width:0.5;" width="4" x="694.914" y="783.338"/><text fill="#000000" font-family="sans-serif" font-size="14" lengthAdjust="spacing" textLength="79" x="612.914" y="805.3331">DNS server</text></g><!--MD5=[6e092ac4550b3fa0f78e3e315bc842b1]
entity kisscache--><g id="elem_kisscache"><rect fill="#F1F1F1" height="46.2969" rx="2.5" ry="2.5" style="stroke:#181818;stroke-width:0.5;" width="161" x="179.914" y="772.338"/><rect fill="#F1F1F1" height="10" style="stroke:#181818;stroke-width:0.5;" width="15" x="320.914" y="777.338"/><rect fill="#F1F1F1" height="2" style="stroke:#181818;stroke-width:0.5;" width="4" x="318.914" y="779.338"/><rect fill="#F1F1F1" height="2" style="stroke:#181818;stroke-width:0.5;" width="4" x="318.914" y="783.338"/><text fill="#000000" font-family="sans-serif" font-size="14" lengthAdjust="spacing" textLength="121" x="194.914" y="805.3331">KissCache server</text></g><!--MD5=[9b50232802efdec09056d2fe94d4716d]
entity artifacts--><g id="elem_artifacts"><rect fill="#F1F1F1" height="46.2969" rx="2.5" ry="2.5" style="stroke:#181818;stroke-width:0.5;" width="186" x="376.414" y="772.338"/><rect fill="#F1F1F1" height="10" style="stroke:#181818;stroke-width:0.5;" width="15" x="542.414" y="777.338"/><rect fill="#F1F1F1" height="2" style="stroke:#181818;stroke-width:0.5;" width="4" x="540.414" y="779.338"/><rect fill="#F1F1F1" height="2" style="stroke:#181818;stroke-width:0.5;" width="4" x="540.414" y="783.338"/><text fill="#000000" font-family="sans-serif" font-size="14" lengthAdjust="spacing" textLength="146" x="391.414" y="805.3331">Lava artifacts server</text></g><text fill="#000000" font-family="sans-serif" font-size="14" lengthAdjust="spacing" textLength="33" x="397.914" y="524.0362">http</text><rect fill="#181818" height="12" style="stroke:#F1F1F1;stroke-width:1.5;" width="12" x="408.414" y="539.338"/><!--MD5=[2bff9d89c5f69e56c8e3bc7e37ff91e0]
entity info--><g id="elem_info"><rect fill="#F1F1F1" height="22.2969" rx="2.5" ry="2.5" style="stroke:#181818;stroke-width:0.5;" width="425" x="2372.914" y="151.338"/><text fill="#000000" font-family="sans-serif" font-size="14" lengthAdjust="spacing" textLength="405" x="2382.914" y="167.3331">Overall view of Oniroproject development infrastructure</text></g><!--MD5=[db66fe8cbe2cdf0454290dbf82c3f59c]
entity Developer--><g id="elem_Developer"><ellipse cx="1689.414" cy="132.838" fill="#F1F1F1" rx="8" ry="8" style="stroke:#181818;stroke-width:0.5;"/><path d="M1689.414,140.838 L1689.414,167.838 M1676.414,148.838 L1702.414,148.838 M1689.414,167.838 L1676.414,182.838 M1689.414,167.838 L1702.414,182.838 " fill="none" style="stroke:#181818;stroke-width:0.5;"/><text fill="#000000" font-family="sans-serif" font-size="14" lengthAdjust="spacing" textLength="75" x="1651.914" y="197.3331">Developer</text></g><!--MD5=[f3401c2d09288f830763ccde49063a6d]
entity Contributor--><g id="elem_Contributor"><ellipse cx="2295.414" cy="132.838" fill="#F1F1F1" rx="8" ry="8" style="stroke:#181818;stroke-width:0.5;"/><path d="M2295.414,140.838 L2295.414,167.838 M2282.414,148.838 L2308.414,148.838 M2295.414,167.838 L2282.414,182.838 M2295.414,167.838 L2308.414,182.838 " fill="none" style="stroke:#181818;stroke-width:0.5;"/><text fill="#000000" font-family="sans-serif" font-size="14" lengthAdjust="spacing" textLength="85" x="2252.914" y="197.3331">Contributor</text></g><!--MD5=[28b3280c10fb1ee66d4ac930fcc07c08]
link gitlab to lava--><g id="link_gitlab_lava"><path d="M1873.414,185.348 C1873.414,205.183 1873.414,234.429 1873.414,255.806 " fill="none" id="gitlab-to-lava" style="stroke:#181818;stroke-width:1.0;"/><polygon fill="#181818" points="1873.414,261.061,1877.414,252.061,1873.414,256.061,1869.414,252.061,1873.414,261.061" style="stroke:#181818;stroke-width:1.0;"/></g><!--MD5=[9428534f46c3429d628adadc101f4f21]
link Developer to gitlab--><g id="link_Developer_gitlab"><path d="M1727.144,162.338 C1736.964,162.338 1746.774,162.338 1756.584,162.338 " fill="none" id="Developer-to-gitlab" style="stroke:#181818;stroke-width:1.0;"/><polygon fill="#181818" points="1761.714,162.338,1752.714,158.338,1756.714,162.338,1752.714,166.338,1761.714,162.338" style="stroke:#181818;stroke-width:1.0;"/></g><!--MD5=[bb443db56c4a2440e5a50cf1aa8bb0fc]
link Contributor to gitlab--><g id="link_Contributor_gitlab"><path d="M2282.824,124.198 C2268.324,87.831 2240.454,36.183 2194.914,19.338 C2158.854,6 2057.974,6 2021.914,19.338 C1963.204,41.055 1915.404,99.84 1891.004,134.91 " fill="none" id="Contributor-to-gitlab" style="stroke:#181818;stroke-width:1.0;"/><polygon fill="#181818" points="1888.154,139.065,1896.5525,133.9207,1890.9895,134.9468,1889.9634,129.3838,1888.154,139.065" style="stroke:#181818;stroke-width:1.0;"/></g><!--MD5=[fa1e6307e2f12cd43bf68c0d40712084]
link Developer to lava--><g id="link_Developer_lava"><path d="M1727.024,195.624 C1733.044,200.388 1739.314,205.11 1745.414,209.338 C1771.434,227.367 1802.094,245.198 1826.874,258.839 " fill="none" id="Developer-to-lava" style="stroke:#181818;stroke-width:1.0;"/><polygon fill="#181818" points="1831.434,261.336,1825.4797,253.4908,1827.0541,258.9242,1821.6208,260.4986,1831.434,261.336" style="stroke:#181818;stroke-width:1.0;"/></g><!--MD5=[86a58e7763f172f4620fd13c202cc82e]
link Contributor to lava--><g id="link_Contributor_lava"><path d="M2252.624,190.161 C2240.024,197.19 2225.984,204.224 2212.414,209.338 C2119.984,244.182 2006.874,264.749 1937.504,275.034 " fill="none" id="Contributor-to-lava" style="stroke:#181818;stroke-width:1.0;"/><polygon fill="#181818" points="1932.174,275.817,1941.6607,278.463,1937.1206,275.0885,1940.4951,270.5484,1932.174,275.817" style="stroke:#181818;stroke-width:1.0;"/></g><!--MD5=[9a085617b0e2c44f883968bea4b75418]
link lavaworker1 to nitrogen3_1--><g id="link_lavaworker1_nitrogen3_1"><path d="M1239.564,568.363 C1221.904,592.923 1193.334,632.635 1174.454,658.866 " fill="none" id="lavaworker1-to-nitrogen3_1" style="stroke:#181818;stroke-width:1.0;"/><polygon fill="#181818" points="1171.514,662.956,1180.0179,657.9878,1174.4347,658.8978,1173.5248,653.3146,1171.514,662.956" style="stroke:#181818;stroke-width:1.0;"/><text fill="#000000" font-family="sans-serif" font-size="13" lengthAdjust="spacing" textLength="25" x="1204.414" y="629.4049">USB</text></g><!--MD5=[1a2fbe8f44b84f5883ab8c504e394730]
link lavaworker1 to nitrogen3_2--><g id="link_lavaworker1_nitrogen3_2"><path d="M1261.434,568.363 C1268.064,592.62 1278.734,631.657 1285.914,657.888 " fill="none" id="lavaworker1-to-nitrogen3_2" style="stroke:#181818;stroke-width:1.0;"/><polygon fill="#181818" points="1287.294,662.956,1288.7818,653.2202,1285.9768,658.1326,1281.0644,655.3276,1287.294,662.956" style="stroke:#181818;stroke-width:1.0;"/><text fill="#000000" font-family="sans-serif" font-size="13" lengthAdjust="spacing" textLength="25" x="1280.414" y="629.4049">USB</text></g><!--MD5=[9834d8a543ed78f3931d27ddec1b9261]
link storage to pi4_1--><g id="link_storage_pi4_1"><path d="M1089.023,545.338 C1103.8485,545.338 1119.7437,545.338 1132.4751,545.338 C1134.0665,545.338 1135.6085,545.338 1137.0928,545.338 C1137.4638,545.338 1137.8313,545.338 1138.195,545.338 " fill="none" id="storage-pi4_1" style="stroke:#181818;stroke-width:1.0;"/><polygon fill="#181818" points="1138.195,545.338,1129.195,541.338,1133.195,545.338,1129.195,549.338,1138.195,545.338" style="stroke:#181818;stroke-width:1.0;"/><polygon fill="#181818" points="1083.927,545.338,1092.927,549.338,1088.927,545.338,1092.927,541.338,1083.927,545.338" style="stroke:#181818;stroke-width:1.0;"/><text fill="#000000" font-family="sans-serif" font-size="13" lengthAdjust="spacing" textLength="37" x="1101.984" y="538.4049">USB 3</text></g><!--MD5=[4bc91958b5317de2c5d528a3c803726f]
link lavaworker3 to b68--><g id="link_lavaworker3_b68"><path d="M1649.824,568.363 C1630.214,592.923 1598.504,632.635 1577.554,658.866 " fill="none" id="lavaworker3-to-b68" style="stroke:#181818;stroke-width:1.0;"/><polygon fill="#181818" points="1574.284,662.956,1583.0297,658.427,1577.4074,659.0517,1576.7827,653.4294,1574.284,662.956" style="stroke:#181818;stroke-width:1.0;"/></g><!--MD5=[5f1e9acb243986708ba5bd696ab14798]
link lavaworker3 to c61--><g id="link_lavaworker3_c61"><path d="M1672.964,568.363 C1679.064,592.62 1688.894,631.657 1695.504,657.888 " fill="none" id="lavaworker3-to-c61" style="stroke:#181818;stroke-width:1.0;"/><polygon fill="#181818" points="1696.774,662.956,1698.4542,653.2515,1695.5525,658.1075,1690.6966,655.2058,1696.774,662.956" style="stroke:#181818;stroke-width:1.0;"/></g><!--MD5=[9c84f5c1dd3480628be14f14d1403cf9]
link storage3 to pi4_3--><g id="link_storage3_pi4_3"><path d="M1501.024,545.338 C1515.849,545.338 1531.744,545.338 1544.4752,545.338 C1546.0666,545.338 1547.6086,545.338 1549.0929,545.338 C1549.4639,545.338 1549.8314,545.338 1550.1951,545.338 " fill="none" id="storage3-pi4_3" style="stroke:#181818;stroke-width:1.0;"/><polygon fill="#181818" points="1550.1951,545.338,1541.1951,541.338,1545.1951,545.338,1541.1951,549.338,1550.1951,545.338" style="stroke:#181818;stroke-width:1.0;"/><polygon fill="#181818" points="1495.924,545.338,1504.924,549.338,1500.924,545.338,1504.924,541.338,1495.924,545.338" style="stroke:#181818;stroke-width:1.0;"/><text fill="#000000" font-family="sans-serif" font-size="13" lengthAdjust="spacing" textLength="37" x="1513.984" y="538.4049">USB 3</text></g><!--MD5=[b7df46cd3a4cd0063bb4f9f014176dcd]
link storage4 to pi4_4--><g id="link_storage4_pi4_4"><path d="M1913.024,545.338 C1927.849,545.338 1943.744,545.338 1956.4752,545.338 C1958.0666,545.338 1959.6086,545.338 1961.0929,545.338 C1961.4639,545.338 1961.8314,545.338 1962.1951,545.338 " fill="none" id="storage4-pi4_4" style="stroke:#181818;stroke-width:1.0;"/><polygon fill="#181818" points="1962.1951,545.338,1953.1951,541.338,1957.1951,545.338,1953.1951,549.338,1962.1951,545.338" style="stroke:#181818;stroke-width:1.0;"/><polygon fill="#181818" points="1907.924,545.338,1916.924,549.338,1912.924,545.338,1916.924,541.338,1907.924,545.338" style="stroke:#181818;stroke-width:1.0;"/><text fill="#000000" font-family="sans-serif" font-size="13" lengthAdjust="spacing" textLength="37" x="1925.984" y="538.4049">USB 3</text></g><!--MD5=[b41767d81fac11c499e33ea75b1b8efc]
link lavaworker4 to arduino--><g id="link_lavaworker4_arduino"><path d="M2079.414,573.403 C2079.414,597.775 2079.414,633.426 2079.414,657.909 " fill="none" id="lavaworker4-arduino" style="stroke:#181818;stroke-width:1.0;"/><polygon fill="#181818" points="2079.414,662.956,2083.414,653.956,2079.414,657.956,2075.414,653.956,2079.414,662.956" style="stroke:#181818;stroke-width:1.0;"/><polygon fill="#181818" points="2079.414,568.363,2075.414,577.363,2079.414,573.363,2083.414,577.363,2079.414,568.363" style="stroke:#181818;stroke-width:1.0;"/></g><!--MD5=[47336fc3904af40c576705f08ab8048c]
link lavaworker2 to pi4_5--><g id="link_lavaworker2_pi4_5"><path d="M2468.054,568.371 C2455.274,580.32 2439.094,595.274 2424.414,608.338 C2404.844,625.749 2382.474,644.895 2364.924,659.74 " fill="none" id="lavaworker2-to-pi4_5" style="stroke:#181818;stroke-width:1.0;"/><polygon fill="#181818" points="2361.034,663.032,2370.4893,660.2757,2364.8521,659.8038,2365.3241,654.1666,2361.034,663.032" style="stroke:#181818;stroke-width:1.0;"/></g><!--MD5=[46f34556297b420f402baf73df399cee]
link pi4_5 to storage5--><g id="link_pi4_5_storage5"><path d="M2378.634,663.154 C2431.394,638.433 2522.294,605.152 2600.414,623.338 C2631.104,630.482 2662.674,646.876 2686.144,661.149 " fill="none" id="pi4_5-to-storage5" style="stroke:#181818;stroke-width:1.0;"/><polygon fill="#181818" points="2690.434,663.787,2684.8764,655.656,2686.1792,661.1608,2680.6744,662.4636,2690.434,663.787" style="stroke:#181818;stroke-width:1.0;"/><text fill="#000000" font-family="sans-serif" font-size="13" lengthAdjust="spacing" textLength="86" x="2513.414" y="629.4049">Oniro system</text></g><!--MD5=[3a8a6a47145ec19c6b976ddcd4aa8612]
link pi4_5 to storage5_1--><g id="link_pi4_5_storage5_1"><path d="M2430.244,686.338 C2475.554,686.338 2527.474,686.338 2563.534,686.338 " fill="none" id="pi4_5-to-storage5_1" style="stroke:#181818;stroke-width:1.0;"/><polygon fill="#181818" points="2568.734,686.338,2559.734,682.338,2563.734,686.338,2559.734,690.338,2568.734,686.338" style="stroke:#181818;stroke-width:1.0;"/><text fill="#000000" font-family="sans-serif" font-size="13" lengthAdjust="spacing" textLength="102" x="2448.414" y="679.4049">primary system</text></g><!--MD5=[eadf4e56ac9b9719de04e282e8094e5e]
link storage2 to pi4_2--><g id="link_storage2_pi4_2"><path d="M2325.024,545.338 C2339.849,545.338 2355.744,545.338 2368.4752,545.338 C2371.658,545.338 2374.6431,545.338 2377.3643,545.338 C2378.0446,545.338 2378.7084,545.338 2379.3547,545.338 " fill="none" id="storage2-pi4_2" style="stroke:#181818;stroke-width:1.0;"/><polygon fill="#181818" points="2379.3547,545.338,2370.3547,541.338,2374.3547,545.338,2370.3547,549.338,2379.3547,545.338" style="stroke:#181818;stroke-width:1.0;"/><polygon fill="#181818" points="2319.924,545.338,2328.924,549.338,2324.924,545.338,2328.924,541.338,2319.924,545.338" style="stroke:#181818;stroke-width:1.0;"/><text fill="#000000" font-family="sans-serif" font-size="13" lengthAdjust="spacing" textLength="37" x="2337.984" y="538.4049">USB 3</text></g><!--MD5=[06352f9f5387a823792d75e97c0c57b7]
link lava to lavaworker1--><g id="link_lava_lavaworker1"><path d="M1814.674,287.418 C1703.574,292.269 1467.604,307.223 1398.414,348.338 C1330.984,388.407 1285.984,473.89 1266.464,517.517 " fill="none" id="lava-to-lavaworker1" style="stroke:#181818;stroke-width:1.0;"/><polygon fill="#181818" points="1264.434,522.115,1271.732,515.5015,1266.456,517.5421,1264.4154,512.2662,1264.434,522.115" style="stroke:#181818;stroke-width:1.0;"/></g><!--MD5=[b0d03c4954b6985765819bcee6c043c8]
link lava to lavaworker2--><g id="link_lava_lavaworker2"><path d="M1932.064,288.525 C2066.164,296.306 2386.584,317.892 2424.414,348.338 C2476.234,390.043 2488.154,473.813 2490.774,517.083 " fill="none" id="lava-to-lavaworker2" style="stroke:#181818;stroke-width:1.0;"/><polygon fill="#181818" points="2491.044,522.153,2494.5502,512.9494,2490.7729,517.1604,2486.562,513.3831,2491.044,522.153" style="stroke:#181818;stroke-width:1.0;"/></g><!--MD5=[b150e1ddaa2d76aefe5152181f3a3f24]
link lava to lavaworker3--><g id="link_lava_lavaworker3"><path d="M1849.484,307.556 C1837.324,319.266 1822.584,334.118 1810.414,348.338 C1761.334,405.691 1710.884,478.799 1685.044,517.496 " fill="none" id="lava-to-lavaworker3" style="stroke:#181818;stroke-width:1.0;"/><polygon fill="#181818" points="1682.014,522.041,1690.3357,516.7733,1684.7884,517.8814,1683.6804,512.3341,1682.014,522.041" style="stroke:#181818;stroke-width:1.0;"/></g><!--MD5=[7a856760e9c4f6caf584326c2a45651c]
link lava to lavaworker4--><g id="link_lava_lavaworker4"><path d="M1932.024,300.102 C1959.694,309.744 1991.214,324.998 2012.414,348.338 C2056.464,396.843 2071.754,475.592 2076.904,516.961 " fill="none" id="lava-to-lavaworker4" style="stroke:#181818;stroke-width:1.0;"/><polygon fill="#181818" points="2077.514,522.058,2080.4196,512.6475,2076.9216,517.0932,2072.4759,513.5953,2077.514,522.058" style="stroke:#181818;stroke-width:1.0;"/></g><!--MD5=[8eb4f3ef3a27c71c8063d98546c79555]
link http to traefik--><g id="link_http_traefik"><path d="M409.135,551.617 C391.671,569.081 334.967,625.785 301.266,659.486 " fill="none" id="http-to-traefik" style="stroke:#181818;stroke-width:1.0;"/><polygon fill="#181818" points="297.677,663.075,306.8693,659.5395,301.2125,659.5395,301.2125,653.8826,297.677,663.075" style="stroke:#181818;stroke-width:1.0;"/></g><!--MD5=[ce1309a27310881f958829720191111b]
link traefik to kisscache--><g id="link_traefik_kisscache"><path d="M272.306,709.508 C269.973,726.151 266.764,749.038 264.268,766.845 " fill="none" id="traefik-to-kisscache" style="stroke:#181818;stroke-width:1.0;"/><polygon fill="#181818" points="263.518,772.196,268.7289,763.8386,264.2123,767.2444,260.8065,762.7277,263.518,772.196" style="stroke:#181818;stroke-width:1.0;"/></g><!--MD5=[2b7be466fb3d38ae9e221816b307ecf4]
link traefik to artifacts--><g id="link_traefik_artifacts"><path d="M315.611,709.508 C347.345,727.012 391.604,751.422 424.5,769.566 " fill="none" id="traefik-to-artifacts" style="stroke:#181818;stroke-width:1.0;"/><polygon fill="#181818" points="429.269,772.196,423.3221,764.3452,424.8914,769.78,419.4566,771.3493,429.269,772.196" style="stroke:#181818;stroke-width:1.0;"/></g><!--MD5=[e92c57c5ef431780ef9e166d7aba0215]
@startuml
card info [
  Overall view of Oniroproject development infrastructure
]

actor Developer
actor Contributor


cloud extranet as "Cloud" {
  component gitlab [
    Eclipse Foundation Gitlab
  ]
  component lava [
    lava server
  ]
  gitlab- ->lava
cloud infservc as "Infrastructure services" {

  node loki as "Grafana/loki server"
}
}

Developer->gitlab
Contributor->gitlab

Developer->lava
Contributor->lava



cloud localnet as "lab network" {


cloud DUT1 {
  database storage [
      USB SSD
  ] 

  node pi4_1 as "Raspberry Pi 4B" {
    component lavaworker1 as "Lava worker" {
    }
  }

  node nitrogen3_1 as "Nitrogen"
  node nitrogen3_2 as "Nitrogen"
  lavaworker1- ->nitrogen3_1 : USB
  lavaworker1- ->nitrogen3_2 : USB
  storage<->pi4_1 : USB 3
}


cloud DUT3 {
  database storage3 [
      USB SSD
  ]
  node pi4_3 as "Raspberry Pi 4B" {
    component lavaworker3 as "Lava worker" {
    }
  }
  node b68 as "SECO B68"
  lavaworker3- ->b68
  node c61 as "SECO C61"
  lavaworker3- ->c61
  storage3<->pi4_3 : USB 3
}

cloud DUT4 {
  database storage4 [
      USB SSD
  ]
  node pi4_4 as "Raspberry Pi 4B" {
    component lavaworker4 as "Lava worker" {
    }
  }


  node arduino [
    Arduino nano 33 BLE
  ]

  storage4<->pi4_4 : USB 3
  lavaworker4<- ->arduino
}


cloud DUT2 {
  database storage2 [
      USB SSD
  ]

  node pi4_2 as "Raspberry Pi 4B" {
    component lavaworker2 as "Lava worker"{
    }
  }
  node pi4_5 as "DUT: Raspberry Pi 4B" {
  }
  database storage5 [
      USB SSD
  ] 
  database storage5_1 [
      MicroSD
  ]
  lavaworker2- ->pi4_5
  pi4_5->storage5 : "Oniro system"
  pi4_5->storage5_1 : "primary system"
  storage2<->pi4_2 : USB 3




}

lava- ->lavaworker1
lava- ->lavaworker2
lava- ->lavaworker3
lava- ->lavaworker4

cloud infserv as "Infrastructure services" {
  node docker as "Docker compose" {
  component traefik as "Traefik load balancer"
  component dhcp as "DHCP server"
  component ntp as "NTP server"
  component dns as "DNS server"
  component kisscache as "KissCache server"
  component artifacts as "Lava artifacts server"
  port http
  }
http->traefik
traefik- ->kisscache
traefik- ->artifacts
}
@enduml

PlantUML version 1.2022.6beta4(Unknown compile time)
(GPL source distribution)
Java Runtime: Java(TM) SE Runtime Environment
JVM: Java HotSpot(TM) 64-Bit Server VM
Default Encoding: UTF-8
Language: en
Country: US
--></g></svg>