<?xml version="1.0" encoding="UTF-8" standalone="no"?><svg xmlns="http://www.w3.org/2000/svg" xmlns:xlink="http://www.w3.org/1999/xlink" contentStyleType="text/css" height="1155px" preserveAspectRatio="none" style="width:3045px;height:1155px;background:#FFFFFF;" version="1.1" viewBox="0 0 3045 1155" width="3045px" zoomAndPan="magnify"><defs/><g><!--MD5=[a724b032fb9465bc636178f1a307a136]
cluster extranet--><g id="cluster_extranet"><path d="M1318.7777,53.6299 C1329.5395,38.5971 1341.869,37.1348 1351.3594,54.8933 C1357.8915,35.6938 1371.2883,34.8789 1384.0167,48.7798 C1396.1596,31.2076 1408.4808,32.0002 1422.4072,46.6552 C1432.8763,31.356 1442.4977,30.6596 1452.9186,46.7022 C1460.8165,30.7376 1473.6654,31.4032 1484.2043,43.7876 C1493.6092,27.423 1509.996,28.876 1517.5807,45.6225 C1525.4293,28.519 1540.296,26.4386 1552.0451,41.4346 C1565.4767,27.9577 1577.9301,28.8492 1586.5941,46.6934 C1592.7372,32.6363 1605.8059,28.6443 1615.3732,43.2561 C1626.4685,24.1813 1643.5575,26.5921 1652.076,45.731 C1663.7683,33.2613 1675.5051,37.0405 1682.6842,50.9647 C1693.996,36.3683 1709.7602,34.2756 1718.8457,53.3553 C1726.8477,37.0206 1739.2875,37.16 1748.817,51.8812 C1762.8233,35.5021 1777.0522,37.3333 1785.6687,57.34 C1788.1693,56.2901 1789.7378,56.8887 1790.1048,59.7561 C1801.9192,67.3422 1802.3098,80.9928 1790.384,88.807 C1811.2748,98.0069 1812.0198,113.9102 1792.8325,125.7653 C1808.6535,134.539 1808.0519,146.1837 1795.7316,157.5261 C1810.6548,164.3446 1809.8406,177.4358 1798.5238,186.7605 C1810.381,198.2002 1812.1789,210.7011 1794.5059,218.3895 C1809.0955,227.2553 1806.5721,239.3963 1792.7249,246.4578 C1808.3717,257.0825 1807.243,270.8733 1792.3899,281.204 C1803.4248,298.578 1801.1812,311.4506 1778.6687,315.34 C1781.4017,315.201 1783.1813,316.8533 1781.6487,319.658 C1770.3623,337.7362 1759.3013,336.9975 1748.4457,319.2588 C1739.3276,335.1621 1724.4726,334.4746 1717.6258,317.152 C1708.1769,334.1491 1693.4919,334.5957 1682.109,319.2775 C1674.3894,335.4359 1660.5734,339.5145 1649.1346,323.035 C1636.5272,338.4129 1623.1017,339.6048 1614.2281,319.3747 C1606.1622,335.5799 1595.8857,333.6637 1585.0112,322.3573 C1578.0949,340.1669 1562.2871,338.0734 1553.2189,324.5401 C1541.8751,341.4507 1531.3021,337.5426 1520.4584,324.0021 C1508.0352,340.5148 1494.5962,336.5101 1486.1018,319.924 C1475.4554,332.9224 1463.3465,331.8591 1454.5881,317.7306 C1444.542,334.5719 1432.1482,334.8795 1419.0633,321.2766 C1410.9377,336.5074 1398.3438,336.1648 1389.2324,322.2869 C1377.5213,340.1004 1361.4576,338.5535 1352.0844,319.905 C1333.3241,335.7635 1318.2676,332.4521 1310.6687,308.34 C1312.3846,308.1938 1313.1608,308.8782 1312.6681,310.6465 C1299.5911,301.5055 1299.2316,290.8927 1310.9886,280.3738 C1297.591,270.0228 1297.6965,257.8235 1312.4833,248.807 C1294.7631,238.814 1298.0694,227.7815 1310.8874,216.2897 C1294.1139,209.8833 1294.9247,194.0849 1307.8495,184.8123 C1292.0245,174.7997 1297.903,160.6123 1311.3737,153.9445 C1296.3335,146.7183 1295.9306,133.1347 1309.9068,124.4646 C1296.2078,113.4723 1297.3045,98.6238 1313.9335,91.3155 C1293.4121,78.5473 1294.2856,59.106 1317.6687,50.34 C1319.7749,50.6354 1320.1904,52.1484 1318.7777,53.6299 " style="stroke:#181818;stroke-width:1.0;fill:none;"/><text fill="#000000" font-family="sans-serif" font-size="14" font-weight="bold" lengthAdjust="spacing" textLength="45" x="1525.6687" y="68.3351">Cloud</text></g><!--MD5=[0a4da0e4cd9b99e06eab4f6fed1b2b60]
cluster infservc--><g id="cluster_infservc"><path d="M1577.6775,94.5433 C1581.9842,86.338 1586.5197,86.1613 1592.174,93.2674 C1595.3639,86.2016 1601.803,84.2434 1607.3137,90.6617 C1610.7675,84.1666 1616.363,82.6245 1621.3181,89.0323 C1626.698,80.6285 1632.4109,79.7047 1638.2069,88.6268 C1640.8382,80.5616 1645.8129,79.2918 1652.244,84.6548 C1656.8695,77.5806 1662.3136,76.8162 1668.2406,83.0958 C1673.5253,77.2924 1678.2007,80.1555 1680.7021,86.0586 C1685.4485,78.7713 1693.3712,79.178 1696.5845,87.6078 C1700.6839,81.5091 1707.2137,81.1073 1710.9615,87.997 C1717.7204,80.7787 1724.0639,83.9427 1726.5509,92.2786 C1731.2099,86.0042 1737.6297,85.8826 1741.4111,93.2356 C1751.7397,86.3137 1757.7217,89.0654 1761.6687,100.34 C1762.4106,99.4596 1763.4885,99.3648 1764.0003,100.5943 C1772.1862,105.6939 1771.1895,111.294 1763.7119,116.1024 C1770.4475,119.0984 1771.4703,125.599 1766.2522,130.6783 C1772.6896,135.0905 1771.6371,140.3435 1765.3194,143.8525 C1772.8169,147.4188 1771.8956,154.384 1766.1209,158.6683 C1772.8896,165.1327 1771.4512,170.1576 1763.3484,173.9184 C1770.8805,184.4272 1766.4477,191.4615 1754.6687,193.34 C1755.9967,193.5184 1756.322,194.1088 1755.6546,195.294 C1752.1197,202.9711 1744.9854,203.4007 1740.6808,196.0616 C1734.6442,203.1674 1729.7731,203.4727 1725.1481,194.6823 C1720.8828,201.0693 1715.7981,201.2403 1711.328,194.9047 C1706.9281,201.5382 1701.532,203.2565 1696.0093,196.1573 C1692.0347,201.7922 1685.6861,201.8927 1682.6615,195.1343 C1678.8397,203.1223 1673.8443,203.3879 1668.0662,197.14 C1663.1841,204.5357 1655.9717,203.1029 1652.2243,195.908 C1648.0259,202.9964 1640.8093,202.1616 1637.3636,195.1166 C1632.3375,202.645 1627.4715,203.8845 1621.4673,196.1343 C1616.9052,201.1711 1610.9002,201.1332 1608.2695,194.0338 C1604.2556,202.8376 1598.4643,201.512 1592.8709,195.6976 C1581.8296,204.7489 1571.1828,200.9112 1569.6687,186.34 C1571.1513,185.3975 1571.8176,186.1717 1572.1428,187.5656 C1563.1536,186.1097 1562.1415,181.01 1566.4244,173.9713 C1559.3361,171.1433 1556.4064,165.123 1563.3425,159.3408 C1553.393,157.741 1551.2802,150.5053 1558.3758,143.5457 C1553.3418,137.716 1554.5886,131.5649 1562.8927,130.2748 C1558.3861,124.7035 1559.8813,118.6422 1567.0644,116.6503 C1557.584,104.961 1561.9551,95.0609 1576.6687,93.34 C1577.5145,93.2006 1577.9337,93.7588 1577.6775,94.5433 " style="stroke:#181818;stroke-width:1.0;fill:none;"/><text fill="#000000" font-family="sans-serif" font-size="14" font-weight="bold" lengthAdjust="spacing" textLength="187" x="1572.1687" y="111.3351">Infrastructure services</text></g><!--MD5=[9ba779de388c8d4e0d66e3a8d8cd1071]
cluster localnet--><g id="cluster_localnet"><path d="M188.5197,369.1551 C255.143,269.0499 317.937,286.1185 387.9225,365.4181 C444.3093,279.9862 495.6941,291.1203 553.3604,364.0818 C634.9982,277.6358 698.7305,289.4135 759.4703,387.432 C809.4214,283.0684 867.4225,284.4163 939.729,365.7289 C1011.5232,266.8623 1073.1452,270.4361 1132.9494,377.006 C1194.7096,295.6091 1258.2383,283.9498 1319.0499,378.0122 C1369.7401,272.0896 1452.4866,262.7684 1524.634,355.8451 C1578.8169,277.5885 1668.4058,265.2221 1717.4411,361.5305 C1784.922,285.4169 1841.9652,290.8199 1888.7688,382.6272 C1947.3767,273.2851 2044.8812,274.6463 2096.0424,389.5115 C2139.3308,297.1638 2200.8909,284.4326 2271.8053,360.7173 C2329.9742,287.5106 2400.5376,276.1551 2452.0334,368.0038 C2522.8499,297.8503 2593.678,286.5014 2639.2274,394.5465 C2687.2045,298.6599 2762.1642,288.7095 2831.6687,371.34 C2838.1688,362.4128 2847.0008,362.2272 2853.2393,371.6475 C3038.5569,465.1049 3027.5587,621.4661 2850.0243,711.4909 C2996.9347,821.5374 2955.4519,918.337 2824.6687,1004.34 C2842.4561,998.579 2854.323,1007.7627 2849.491,1026.8949 C2776.7909,1106.0534 2695.2742,1115.6156 2640.0803,1007.3364 C2604.7495,1105.8298 2522.4027,1125.6633 2458.7187,1034.4411 C2409.3674,1126.8312 2343.5089,1109.0619 2289.4562,1039.3502 C2220.0976,1142.8724 2113.7155,1118.0929 2071.9243,1010.8921 C2024.7762,1099.0985 1940.4552,1105.468 1890.0371,1014.2062 C1827.2649,1095.2176 1764.1066,1100.1719 1700.1026,1015.6193 C1651.1398,1101.2949 1578.3157,1107.604 1524.5308,1020.5198 C1469.1915,1130.0004 1381.1715,1139.786 1315.3354,1030.5601 C1265.0253,1106.1354 1185.8511,1115.0705 1136.0936,1029.9438 C1069.9116,1102.4037 1003.502,1096.1177 954.7859,1009.9772 C911.5407,1108.4634 845.6682,1125.8694 771.8876,1040.3248 C704.8766,1148.8687 610.4545,1120.0371 560.616,1022.7024 C506.1744,1105.6198 414.8511,1117.4718 367.5606,1015.2458 C300.7976,1108.6063 217.1139,1087.0555 166.6687,997.34 C171.9612,992.5698 176.4752,992.1492 179.5837,999.6403 C36.2319,911.7448 6,796.6934 163.8219,693.3017 C30.1935,575.5533 6.8812,473.096 173.6687,364.34 C179.8799,359.3666 186.6698,360.677 188.5197,369.1551 " style="stroke:#181818;stroke-width:1.0;fill:none;"/><text fill="#000000" font-family="sans-serif" font-size="14" font-weight="bold" lengthAdjust="spacing" textLength="96" x="1451.1687" y="382.3351">lab network</text></g><!--MD5=[a24e2d3c6da327c728ec90627f18803f]
cluster DUT1--><g id="cluster_DUT1"><path d="M199.8675,410.7826 C205.4844,397.9971 216.0357,396.1429 224.4662,407.9707 C232.5047,395.6556 243.0485,393.9581 251.7883,407.2215 C257.6552,395.483 269.4587,395.6488 275.7202,406.8091 C282.055,391.8917 290.8911,390.9372 301.8607,402.1772 C310.6388,391.0267 320.5217,391.2629 326.8944,404.6329 C332.2633,390.4707 341.4543,389.5668 351.7633,399.5434 C361.5978,387.5938 370.5499,390.2204 377.9707,402.1882 C385.1953,388.7735 397.1087,389.6211 405.2318,401.2084 C414.4374,391.0067 421.9717,391.9347 428.9102,403.657 C435.347,390.9395 448.9625,391.2839 456.1382,402.8278 C465.9532,390.5214 474.3246,391.6638 482.1256,404.8786 C488.8975,394.0002 500.1312,393.2599 506.857,404.9292 C516.3261,393.5447 526.5223,395.2309 533.3727,407.825 C543.9572,394.9556 558.5089,398.3197 562.6687,414.34 C563.7223,414.0056 564.4866,414.4571 564.3396,415.6518 C575.4992,423.733 577.0071,432.3472 566.1445,441.9404 C582.3209,453.4294 579.3266,463.7533 563.89,472.9433 C575.0265,478.5998 576.4593,488.9446 567.4234,497.5033 C580.5737,506.9218 583.8148,517.52 567.7007,527.2116 C581.2491,535.54 579.2966,548.1815 565.4427,554.2188 C580.9304,560.7512 580.1363,571.312 569.3069,581.5635 C580.3857,592.0725 579.262,601.1458 565.6319,608.2526 C578.5369,614.9119 576.1899,624.7033 566.7149,632.3677 C579.3795,640.0812 581.6326,651.9162 567.4249,660.3124 C582.4438,670.268 581.9604,682.1433 565.4176,689.9622 C576.1516,698.8646 576.215,709.7605 564.0916,717.5649 C578.1125,732.2743 572.665,742.1197 555.6687,748.34 C558.2482,747.8917 559.5374,749.1883 558.993,751.7687 C550.5259,765.4324 541.076,766.161 531.1251,753.3293 C523.9669,764.5041 512.2028,764.0033 505.6153,752.682 C497.7601,764.1037 489.8324,761.4419 483.0891,751.509 C476.1641,764.8608 464.5452,762.7544 456.9485,752.2449 C450.0773,764.4656 442.5337,765.5646 432.4287,755.8617 C422.2892,768.4634 413.4738,769.1423 403.5674,755.6044 C397.2252,765.542 388.4107,765.4967 381.2167,756.6162 C371.3264,770.9516 361.9237,772.4404 351.5385,757.1112 C342.4818,768.9655 330.3944,764.0097 325.6654,752.3493 C319.1594,763.1326 310.0484,765.8567 302.1714,753.7569 C294.0827,762.6417 284.6332,761.9382 279.0777,750.8308 C271.4778,762.7177 260.6848,766.9509 251.0908,752.9899 C242.6652,766.2048 233.7383,764.7481 225.0374,753.2805 C211.2219,764.728 193.9094,760.3302 190.6687,741.34 C192.2451,741.8088 192.3607,743.1598 191.1825,744.1349 C177.1358,735.1921 175.5241,724.228 190.6079,714.7163 C179.0612,706.7245 178.3119,695.8132 191.4859,688.6542 C179.4152,682.3543 177.4964,671.189 188.9922,662.6308 C177.1147,653.9249 177.565,642.0597 191.0667,635.2787 C174.8039,627.5243 173.6048,615.6969 188.8242,605.5666 C177.6502,597.0944 176.7116,587.0126 190.349,580.0215 C178.2057,573.6684 177.6901,562.0653 189.0419,554.5084 C174.7259,543.8665 177.5651,533.0943 190.7432,523.9849 C177.8729,515.9956 177.4752,507.8219 189.8833,498.964 C179.3626,491.4559 179.9,480.0763 190.8306,473.362 C178.4806,461.7949 179.0554,452.0157 192.6663,441.9665 C178.385,428.2036 181.1937,416.6596 197.6687,407.34 C199.8848,407.3006 200.9574,408.7105 199.8675,410.7826 " style="stroke:#181818;stroke-width:1.0;fill:none;"/><text fill="#000000" font-family="sans-serif" font-size="14" font-weight="bold" lengthAdjust="spacing" textLength="43" x="355.1687" y="425.3351">DUT1</text></g><!--MD5=[bc33b001d8d0906d533ac6d1e2e5f35f]
cluster pi4_1--><g id="cluster_pi4_1"><polygon points="334.6687,460.34,344.6687,450.34,538.6687,450.34,538.6687,582.34,528.6687,592.34,334.6687,592.34,334.6687,460.34" style="stroke:#181818;stroke-width:1.0;fill:none;"/><line style="stroke:#181818;stroke-width:1.0;fill:none;" x1="528.6687" x2="538.6687" y1="460.34" y2="450.34"/><line style="stroke:#181818;stroke-width:1.0;fill:none;" x1="334.6687" x2="528.6687" y1="460.34" y2="460.34"/><line style="stroke:#181818;stroke-width:1.0;fill:none;" x1="528.6687" x2="528.6687" y1="460.34" y2="592.34"/><text fill="#000000" font-family="sans-serif" font-size="14" font-weight="bold" lengthAdjust="spacing" textLength="128" x="368.6687" y="476.3351">Raspberry Pi 4B</text></g><!--MD5=[3184c8859e55d4f7c5c4b7ca983e90ad]
cluster DUT3--><g id="cluster_DUT3"><path d="M611.8675,410.7826 C617.4844,397.9971 628.0357,396.1429 636.4662,407.9707 C644.5047,395.6556 655.0485,393.9581 663.7883,407.2215 C669.6552,395.483 681.4587,395.6488 687.7202,406.8091 C694.055,391.8917 702.8911,390.9372 713.8607,402.1772 C722.6388,391.0267 732.5217,391.2629 738.8944,404.6329 C744.2633,390.4707 753.4543,389.5668 763.7633,399.5434 C773.5978,387.5938 782.5499,390.2204 789.9707,402.1882 C797.1953,388.7735 809.1087,389.6211 817.2318,401.2084 C826.4374,391.0067 833.9717,391.9347 840.9102,403.657 C847.347,390.9395 860.9625,391.2839 868.1382,402.8278 C877.9532,390.5214 886.3246,391.6638 894.1256,404.8786 C900.8975,394.0002 912.1312,393.2599 918.857,404.9292 C928.3261,393.5447 938.5223,395.2309 945.3727,407.825 C955.9572,394.9556 970.5089,398.3197 974.6687,414.34 C975.7223,414.0056 976.4866,414.4571 976.3396,415.6518 C987.4992,423.733 989.0071,432.3472 978.1445,441.9404 C994.3209,453.4294 991.3266,463.7533 975.89,472.9433 C987.0265,478.5998 988.4593,488.9446 979.4234,497.5033 C992.5737,506.9218 995.8148,517.52 979.7007,527.2116 C993.2491,535.54 991.2966,548.1815 977.4427,554.2188 C992.9304,560.7512 992.1363,571.312 981.3069,581.5635 C992.3857,592.0725 991.262,601.1458 977.6319,608.2526 C990.5369,614.9119 988.1899,624.7033 978.7149,632.3677 C991.3795,640.0812 993.6326,651.9162 979.4249,660.3124 C994.4438,670.268 993.9604,682.1433 977.4176,689.9622 C988.1516,698.8646 988.215,709.7605 976.0916,717.5649 C990.1125,732.2743 984.665,742.1197 967.6687,748.34 C970.2482,747.8917 971.5374,749.1883 970.993,751.7687 C962.5259,765.4324 953.076,766.161 943.1251,753.3293 C935.9669,764.5041 924.2028,764.0033 917.6153,752.682 C909.7601,764.1037 901.8324,761.4419 895.0891,751.509 C888.1641,764.8608 876.5452,762.7544 868.9485,752.2449 C862.0773,764.4656 854.5337,765.5646 844.4287,755.8617 C834.2892,768.4634 825.4738,769.1423 815.5674,755.6044 C809.2252,765.542 800.4107,765.4967 793.2167,756.6162 C783.3264,770.9516 773.9237,772.4404 763.5385,757.1112 C754.4818,768.9655 742.3944,764.0097 737.6654,752.3493 C731.1594,763.1326 722.0484,765.8567 714.1714,753.7569 C706.0827,762.6417 696.6332,761.9382 691.0777,750.8308 C683.4778,762.7177 672.6848,766.9509 663.0908,752.9899 C654.6652,766.2048 645.7383,764.7481 637.0374,753.2805 C623.2219,764.728 605.9094,760.3302 602.6687,741.34 C604.2451,741.8088 604.3607,743.1598 603.1825,744.1349 C589.1358,735.1921 587.5241,724.228 602.6079,714.7163 C591.0612,706.7245 590.3119,695.8132 603.4859,688.6542 C591.4152,682.3543 589.4964,671.189 600.9922,662.6308 C589.1147,653.9249 589.565,642.0597 603.0667,635.2787 C586.8039,627.5243 585.6048,615.6969 600.8242,605.5666 C589.6502,597.0944 588.7116,587.0126 602.349,580.0215 C590.2057,573.6684 589.6901,562.0653 601.0419,554.5084 C586.7259,543.8665 589.5651,533.0943 602.7432,523.9849 C589.8729,515.9956 589.4752,507.8219 601.8833,498.964 C591.3626,491.4559 591.9,480.0763 602.8306,473.362 C590.4806,461.7949 591.0554,452.0157 604.6663,441.9665 C590.385,428.2036 593.1937,416.6596 609.6687,407.34 C611.8848,407.3006 612.9574,408.7105 611.8675,410.7826 " style="stroke:#181818;stroke-width:1.0;fill:none;"/><text fill="#000000" font-family="sans-serif" font-size="14" font-weight="bold" lengthAdjust="spacing" textLength="43" x="767.1687" y="425.3351">DUT3</text></g><!--MD5=[c0abeb8d6cc5853e7e9f448bcba24c2b]
cluster pi4_3--><g id="cluster_pi4_3"><polygon points="746.6687,460.34,756.6687,450.34,950.6687,450.34,950.6687,582.34,940.6687,592.34,746.6687,592.34,746.6687,460.34" style="stroke:#181818;stroke-width:1.0;fill:none;"/><line style="stroke:#181818;stroke-width:1.0;fill:none;" x1="940.6687" x2="950.6687" y1="460.34" y2="450.34"/><line style="stroke:#181818;stroke-width:1.0;fill:none;" x1="746.6687" x2="940.6687" y1="460.34" y2="460.34"/><line style="stroke:#181818;stroke-width:1.0;fill:none;" x1="940.6687" x2="940.6687" y1="460.34" y2="592.34"/><text fill="#000000" font-family="sans-serif" font-size="14" font-weight="bold" lengthAdjust="spacing" textLength="128" x="780.6687" y="476.3351">Raspberry Pi 4B</text></g><!--MD5=[a551b30e31871130002f4761088fbd23]
cluster DUT4--><g id="cluster_DUT4"><path d="M1862.8675,410.7826 C1868.4844,397.9971 1879.0357,396.1429 1887.4662,407.9707 C1895.5047,395.6556 1906.0485,393.9581 1914.7883,407.2215 C1920.6552,395.483 1932.4587,395.6488 1938.7202,406.8091 C1945.055,391.8917 1953.8911,390.9372 1964.8607,402.1772 C1973.6388,391.0267 1983.5217,391.2629 1989.8944,404.6329 C1995.2633,390.4707 2004.4543,389.5668 2014.7633,399.5434 C2024.5978,387.5938 2033.5499,390.2204 2040.9707,402.1882 C2048.1953,388.7735 2060.1087,389.6211 2068.2318,401.2084 C2077.4374,391.0067 2084.9717,391.9347 2091.9102,403.657 C2098.347,390.9395 2111.9625,391.2839 2119.1382,402.8278 C2128.9532,390.5214 2137.3246,391.6638 2145.1256,404.8786 C2151.8975,394.0002 2163.1312,393.2599 2169.857,404.9292 C2179.3261,393.5447 2189.5223,395.2309 2196.3727,407.825 C2206.9572,394.9556 2221.5089,398.3197 2225.6687,414.34 C2226.7223,414.0056 2227.4866,414.4571 2227.3396,415.6518 C2238.4992,423.733 2240.0071,432.3472 2229.1445,441.9404 C2245.3209,453.4294 2242.3266,463.7533 2226.89,472.9433 C2238.0265,478.5998 2239.4593,488.9446 2230.4234,497.5033 C2243.5737,506.9218 2246.8148,517.52 2230.7007,527.2116 C2244.2491,535.54 2242.2966,548.1815 2228.4427,554.2188 C2243.9304,560.7512 2243.1363,571.312 2232.3069,581.5635 C2243.3857,592.0725 2242.262,601.1458 2228.6319,608.2526 C2241.5369,614.9119 2239.1899,624.7033 2229.7149,632.3677 C2242.3795,640.0812 2244.6326,651.9162 2230.4249,660.3124 C2245.4438,670.268 2244.9604,682.1433 2228.4176,689.9622 C2239.1516,698.8646 2239.215,709.7605 2227.0916,717.5649 C2241.1125,732.2743 2235.665,742.1197 2218.6687,748.34 C2221.2482,747.8917 2222.5374,749.1883 2221.993,751.7687 C2213.5259,765.4324 2204.076,766.161 2194.1251,753.3293 C2186.9669,764.5041 2175.2028,764.0033 2168.6153,752.682 C2160.7601,764.1037 2152.8324,761.4419 2146.0891,751.509 C2139.1641,764.8608 2127.5452,762.7544 2119.9485,752.2449 C2113.0773,764.4656 2105.5337,765.5646 2095.4287,755.8617 C2085.2892,768.4634 2076.4738,769.1423 2066.5674,755.6044 C2060.2252,765.542 2051.4107,765.4967 2044.2167,756.6162 C2034.3264,770.9516 2024.9237,772.4404 2014.5385,757.1112 C2005.4818,768.9655 1993.3944,764.0097 1988.6654,752.3493 C1982.1594,763.1326 1973.0484,765.8567 1965.1714,753.7569 C1957.0827,762.6417 1947.6332,761.9382 1942.0777,750.8308 C1934.4778,762.7177 1923.6848,766.9509 1914.0908,752.9899 C1905.6652,766.2048 1896.7383,764.7481 1888.0374,753.2805 C1874.2219,764.728 1856.9094,760.3302 1853.6687,741.34 C1855.2451,741.8088 1855.3607,743.1598 1854.1825,744.1349 C1840.1358,735.1921 1838.5241,724.228 1853.6079,714.7163 C1842.0612,706.7245 1841.3119,695.8132 1854.4859,688.6542 C1842.4152,682.3543 1840.4964,671.189 1851.9922,662.6308 C1840.1147,653.9249 1840.565,642.0597 1854.0667,635.2787 C1837.8039,627.5243 1836.6048,615.6969 1851.8242,605.5666 C1840.6502,597.0944 1839.7116,587.0126 1853.349,580.0215 C1841.2057,573.6684 1840.6901,562.0653 1852.0419,554.5084 C1837.7259,543.8665 1840.5651,533.0943 1853.7432,523.9849 C1840.8729,515.9956 1840.4752,507.8219 1852.8833,498.964 C1842.3626,491.4559 1842.9,480.0763 1853.8306,473.362 C1841.4806,461.7949 1842.0554,452.0157 1855.6663,441.9665 C1841.385,428.2036 1844.1937,416.6596 1860.6687,407.34 C1862.8848,407.3006 1863.9574,408.7105 1862.8675,410.7826 " style="stroke:#181818;stroke-width:1.0;fill:none;"/><text fill="#000000" font-family="sans-serif" font-size="14" font-weight="bold" lengthAdjust="spacing" textLength="43" x="2018.1687" y="425.3351">DUT4</text></g><!--MD5=[6488e9e5ca5b78d586330d2ee7e9df46]
cluster pi4_4--><g id="cluster_pi4_4"><polygon points="1997.6687,460.34,2007.6687,450.34,2201.6687,450.34,2201.6687,582.34,2191.6687,592.34,1997.6687,592.34,1997.6687,460.34" style="stroke:#181818;stroke-width:1.0;fill:none;"/><line style="stroke:#181818;stroke-width:1.0;fill:none;" x1="2191.6687" x2="2201.6687" y1="460.34" y2="450.34"/><line style="stroke:#181818;stroke-width:1.0;fill:none;" x1="1997.6687" x2="2191.6687" y1="460.34" y2="460.34"/><line style="stroke:#181818;stroke-width:1.0;fill:none;" x1="2191.6687" x2="2191.6687" y1="460.34" y2="592.34"/><text fill="#000000" font-family="sans-serif" font-size="14" font-weight="bold" lengthAdjust="spacing" textLength="128" x="2031.6687" y="476.3351">Raspberry Pi 4B</text></g><!--MD5=[ba488c30fdfb4338c05fdc3f321c7f02]
cluster DUT2--><g id="cluster_DUT2"><path d="M2273.5426,412.1939 C2284.3633,394.4751 2295.7197,391.2951 2310.8913,407.3877 C2325.8655,388.7201 2340.5982,386.5064 2354.3978,408.6403 C2366.2829,391.6694 2378.1239,391.7348 2388.6225,409.9875 C2397.9355,387.3605 2413.1003,385.3281 2429.5808,402.6363 C2441.5587,387.2448 2456.3452,391.4273 2463.7469,407.5911 C2470.7759,389.6812 2485.3165,384.521 2499.2846,400.2634 C2513.2919,380.4082 2526.6961,382.0219 2539.3113,401.6739 C2549.7688,382.6366 2562.3206,384.7356 2574.4833,399.9213 C2586.8386,380.8868 2607.9142,383.6555 2617.6296,402.897 C2630.536,388.4723 2642.2653,391.6117 2652.0203,406.5837 C2665.0944,385.4115 2679.9844,390.2034 2691.6813,407.9858 C2702.6992,385.8553 2718.5595,387.9584 2731.682,405.8841 C2745.4199,390.9914 2756.209,394.2492 2763.7934,411.9471 C2779.5201,394.0073 2793.9709,395.079 2807.6687,414.34 C2811.7489,412.6413 2813.0939,414.5125 2813.5173,418.264 C2833.2075,429.3317 2831.7591,442.8951 2815.0884,455.4971 C2838.3448,468.5564 2834.9189,489.8397 2813.4853,501.3361 C2833.8489,510.3076 2830.4113,525.3233 2816.5189,537.193 C2835.775,552.859 2840.6975,571.4431 2813.8641,584.524 C2832.7837,596.6019 2831.8627,611.8684 2814.7473,624.7377 C2835.2397,637.7172 2829.3135,656.2509 2810.5819,665.1915 C2826.2689,677.1907 2828.0671,690.6056 2811.1248,703.0725 C2828.4323,719.3478 2826.8619,742.1127 2800.6687,748.34 C2802.9418,747.6243 2804.4089,748.352 2804.4684,750.9096 C2794.9639,771.1657 2782.5124,772.789 2768.7244,754.9261 C2756.9653,773.7745 2740.3888,778.2391 2725.8987,757.9114 C2715.0047,771.6741 2705.1072,775.9662 2693.1979,758.9916 C2681.6172,777.0691 2661.1472,781.1198 2650.7445,757.784 C2640.8473,774.6594 2630.2907,775.1666 2617.504,760.8646 C2605.9759,776.6013 2589.7122,778.2937 2578.6546,760.3224 C2566.9119,781.9847 2553.5191,778.7257 2538.7581,763.5952 C2526.2715,777.1776 2514.9255,780.1885 2503.9832,761.9096 C2491.3738,778.1053 2477.5996,776.0745 2467.8528,758.8179 C2453.6407,777.7863 2438.7621,777.1883 2424.6379,758.7164 C2410.6364,772.4664 2398.4652,774.4726 2389.0673,753.94 C2377.5257,777.1045 2365.0105,777.5605 2349.1494,757.9731 C2337.6204,771.4174 2322.0361,773.1811 2315.0183,753.3465 C2296.2159,775.5902 2272.8868,766.7109 2265.6687,741.34 C2267.2047,739.6148 2269.1368,739.8657 2269.903,742.1524 C2251.2078,730.6537 2250.657,719.4137 2268.9531,706.9177 C2244.3623,693.9413 2246.5053,672.1399 2270.1632,660.4193 C2248.7048,649.4511 2246.8343,635.8481 2263.8243,618.9962 C2244.9923,602.9595 2245.1263,589.292 2268.3148,577.8401 C2247.9523,565.5991 2248.2893,547.5472 2270.0453,537.0951 C2250.3575,530.0945 2248.7339,515.6022 2264.5136,502.8692 C2244.1181,486.2084 2247.0391,466.7318 2270.9065,456.1244 C2247.4251,439.5604 2245.8101,422.0856 2272.6687,407.34 C2275.2312,408.5124 2275.3736,410.2305 2273.5426,412.1939 " style="stroke:#181818;stroke-width:1.0;fill:none;"/><text fill="#000000" font-family="sans-serif" font-size="14" font-weight="bold" lengthAdjust="spacing" textLength="43" x="2515.1687" y="425.3351">DUT2</text></g><!--MD5=[c2b6ee0f47fae671b4df2eb4fd0b462f]
cluster pi4_2--><g id="cluster_pi4_2"><polygon points="2414.6687,460.34,2424.6687,450.34,2618.6687,450.34,2618.6687,582.34,2608.6687,592.34,2414.6687,592.34,2414.6687,460.34" style="stroke:#181818;stroke-width:1.0;fill:none;"/><line style="stroke:#181818;stroke-width:1.0;fill:none;" x1="2608.6687" x2="2618.6687" y1="460.34" y2="450.34"/><line style="stroke:#181818;stroke-width:1.0;fill:none;" x1="2414.6687" x2="2608.6687" y1="460.34" y2="460.34"/><line style="stroke:#181818;stroke-width:1.0;fill:none;" x1="2608.6687" x2="2608.6687" y1="460.34" y2="592.34"/><text fill="#000000" font-family="sans-serif" font-size="14" font-weight="bold" lengthAdjust="spacing" textLength="128" x="2448.6687" y="476.3351">Raspberry Pi 4B</text></g><!--MD5=[3e9d561e4bd47397fe7d8e080e561392]
cluster infserv--><g id="cluster_infserv"><path d="M1029.1128,661.7903 C1044.0955,635.3447 1067.2259,637.0501 1082.8072,661.1544 C1099.9193,635.5211 1126.1382,630.8533 1141.5433,662.8928 C1156.5228,637.1005 1174.0171,638.9432 1192.2849,659.2753 C1213.5053,637.2006 1231.0341,632.0165 1249.6953,662.0926 C1263.9423,631.4928 1289.0548,630.9281 1309.4971,655.3603 C1327.233,624.9523 1355.5812,630.2593 1367.8218,660.6334 C1382.2332,638.6565 1408.7236,633.5796 1422.1361,661.716 C1437.0814,632.1797 1453.5041,626.5828 1477.1391,653.2052 C1497.6622,634.7517 1517.6762,637.7215 1529.0977,663.8199 C1544.5972,637.1292 1567.8108,636.8193 1585.9586,660.8511 C1605.5518,630.3897 1624.6773,633.2644 1644.3326,660.7887 C1661.2491,635.4149 1679.4171,631.6573 1698.9781,657.9942 C1718.0325,628.666 1745.6579,631.1972 1758.5502,663.911 C1777.9946,634.7193 1794.6626,637.2258 1813.6687,664.34 C1819.2027,660.894 1823.222,664.6027 1822.8487,670.2824 C1847.8704,687.0871 1842.0591,704.844 1820.6434,719.571 C1842.3435,735.5517 1843.1487,750.9356 1824.0294,769.675 C1853.386,778.9018 1857.9943,803.9728 1833.4746,822.7817 C1858.665,843.8637 1852.5252,862.0234 1825.7855,875.5365 C1850.1612,888.7117 1850.3528,911.2246 1827.0186,925.5754 C1850.1065,950.9349 1837.9883,975.1977 1806.6687,980.34 C1812.5026,980.2513 1814.2232,984.6493 1812.0127,989.3381 C1790.1354,1017.9412 1770.4461,1016.2992 1752.989,984.9839 C1740.9184,1008.2043 1717.8531,1012.1293 1700.4469,991.3563 C1682.6882,1018.2631 1662.441,1013.7082 1646.1401,989.7983 C1625.6517,1016.6924 1605.0116,1018.2573 1586.0404,988.1972 C1573.7293,1009.6217 1549.6487,1011.2401 1535.1534,990.8556 C1512.3443,1020.0159 1493.4656,1015.9516 1472.2565,989.0602 C1458.0694,1014.5673 1432.6332,1015.1954 1417.233,990.3867 C1395.5986,1015.8193 1377.0395,1013.5292 1359.9521,985.5136 C1347.6343,1008.9148 1328.2616,1015.6279 1310.2474,991.4666 C1288.047,1021.6131 1265.5296,1013.9758 1251.0426,983.8854 C1237.114,1010.0731 1210.6732,1013.0242 1191.3995,990.4192 C1177.5552,1018.1178 1153.0873,1015.8343 1138.0369,991.6598 C1119.3679,1019.4352 1091.3875,1013.9371 1079.2519,984.8996 C1051.4763,1010.6705 1032.2032,1004.786 1014.6687,973.34 C1021.2489,972.3007 1024.202,976.8816 1022.3004,982.7334 C992.2013,966.7277 994.8715,939.4412 1023.603,924.7573 C996.4794,917.0489 993.9295,893.5004 1015.7383,877.6266 C991.701,855.3837 993.4771,838.501 1022.0434,822.2471 C1000.2598,808.369 996.2588,791.7385 1016.8519,773.3602 C995.5778,761.0274 992.6528,739.7681 1014.3974,725.2409 C987.6464,704.0954 991.2224,672.3604 1021.6687,657.34 C1026.0459,655.9096 1028.4268,657.0464 1029.1128,661.7903 " style="stroke:#181818;stroke-width:1.0;fill:none;"/><text fill="#000000" font-family="sans-serif" font-size="14" font-weight="bold" lengthAdjust="spacing" textLength="187" x="1320.6687" y="675.3351">Infrastructure services</text></g><!--MD5=[5ec7eedd57310648f8059ffb2621ca4b]
cluster docker--><g id="cluster_docker"><polygon points="1022.6687,727.34,1032.6687,717.34,1805.6687,717.34,1805.6687,962.34,1795.6687,972.34,1022.6687,972.34,1022.6687,727.34" style="stroke:#181818;stroke-width:1.0;fill:none;"/><line style="stroke:#181818;stroke-width:1.0;fill:none;" x1="1795.6687" x2="1805.6687" y1="727.34" y2="717.34"/><line style="stroke:#181818;stroke-width:1.0;fill:none;" x1="1022.6687" x2="1795.6687" y1="727.34" y2="727.34"/><line style="stroke:#181818;stroke-width:1.0;fill:none;" x1="1795.6687" x2="1795.6687" y1="727.34" y2="972.34"/><text fill="#000000" font-family="sans-serif" font-size="14" font-weight="bold" lengthAdjust="spacing" textLength="132" x="1344.1687" y="743.3351">Docker compose</text></g><!--MD5=[670ed58fbcfa18955cb1914f9e6929f5]
entity gitlab--><g id="elem_gitlab"><rect fill="#F1F1F1" height="46.2969" rx="2.5" ry="2.5" style="stroke:#181818;stroke-width:0.5;" width="223" x="1319.1687" y="139.34"/><rect fill="#F1F1F1" height="10" style="stroke:#181818;stroke-width:0.5;" width="15" x="1522.1687" y="144.34"/><rect fill="#F1F1F1" height="2" style="stroke:#181818;stroke-width:0.5;" width="4" x="1520.1687" y="146.34"/><rect fill="#F1F1F1" height="2" style="stroke:#181818;stroke-width:0.5;" width="4" x="1520.1687" y="150.34"/><text fill="#000000" font-family="sans-serif" font-size="14" lengthAdjust="spacing" textLength="183" x="1334.1687" y="172.3351">Eclipse Foundation Gitlab</text></g><!--MD5=[cea6eca2e14cdf73ba66238a893fe5f1]
entity lava--><g id="elem_lava"><rect fill="#F1F1F1" height="46.2969" rx="2.5" ry="2.5" style="stroke:#181818;stroke-width:0.5;" width="117" x="1372.1687" y="261.34"/><rect fill="#F1F1F1" height="10" style="stroke:#181818;stroke-width:0.5;" width="15" x="1469.1687" y="266.34"/><rect fill="#F1F1F1" height="2" style="stroke:#181818;stroke-width:0.5;" width="4" x="1467.1687" y="268.34"/><rect fill="#F1F1F1" height="2" style="stroke:#181818;stroke-width:0.5;" width="4" x="1467.1687" y="272.34"/><text fill="#000000" font-family="sans-serif" font-size="14" lengthAdjust="spacing" textLength="77" x="1387.1687" y="294.3351">lava server</text></g><!--MD5=[24ae6a5474e916cd85c833de88942229]
entity loki--><g id="elem_loki"><polygon fill="#F1F1F1" points="1577.6687,149.34,1587.6687,139.34,1753.6687,139.34,1753.6687,175.6369,1743.6687,185.6369,1577.6687,185.6369,1577.6687,149.34" style="stroke:#181818;stroke-width:0.5;"/><line style="stroke:#181818;stroke-width:0.5;" x1="1743.6687" x2="1753.6687" y1="149.34" y2="139.34"/><line style="stroke:#181818;stroke-width:0.5;" x1="1577.6687" x2="1743.6687" y1="149.34" y2="149.34"/><line style="stroke:#181818;stroke-width:0.5;" x1="1743.6687" x2="1743.6687" y1="149.34" y2="185.6369"/><text fill="#000000" font-family="sans-serif" font-size="14" lengthAdjust="spacing" textLength="136" x="1592.6687" y="172.3351">Grafana/loki server</text></g><!--MD5=[a5a6ae0ba01c8a4589ab26bd33e87aad]
entity storage--><g id="elem_storage"><path d="M199.1687,532.84 C199.1687,522.84 239.6687,522.84 239.6687,522.84 C239.6687,522.84 280.1687,522.84 280.1687,532.84 L280.1687,558.1369 C280.1687,568.1369 239.6687,568.1369 239.6687,568.1369 C239.6687,568.1369 199.1687,568.1369 199.1687,558.1369 L199.1687,532.84 " fill="#F1F1F1" style="stroke:#181818;stroke-width:0.5;"/><path d="M199.1687,532.84 C199.1687,542.84 239.6687,542.84 239.6687,542.84 C239.6687,542.84 280.1687,542.84 280.1687,532.84 " fill="none" style="stroke:#181818;stroke-width:0.5;"/><text fill="#000000" font-family="sans-serif" font-size="14" lengthAdjust="spacing" textLength="61" x="209.1687" y="559.8351">USB SSD</text></g><!--MD5=[d7229e883a8bf239c22ffbc99611a6a8]
entity nitrogen3_1--><g id="elem_nitrogen3_1"><polygon fill="#F1F1F1" points="300.1687,704.34,310.1687,694.34,403.1687,694.34,403.1687,730.6369,393.1687,740.6369,300.1687,740.6369,300.1687,704.34" style="stroke:#181818;stroke-width:0.5;"/><line style="stroke:#181818;stroke-width:0.5;" x1="393.1687" x2="403.1687" y1="704.34" y2="694.34"/><line style="stroke:#181818;stroke-width:0.5;" x1="300.1687" x2="393.1687" y1="704.34" y2="704.34"/><line style="stroke:#181818;stroke-width:0.5;" x1="393.1687" x2="393.1687" y1="704.34" y2="740.6369"/><text fill="#000000" font-family="sans-serif" font-size="14" lengthAdjust="spacing" textLength="63" x="315.1687" y="727.3351">Nitrogen</text></g><!--MD5=[64a817279d567f20a87089ee8b859525]
entity nitrogen3_2--><g id="elem_nitrogen3_2"><polygon fill="#F1F1F1" points="438.1687,704.34,448.1687,694.34,541.1687,694.34,541.1687,730.6369,531.1687,740.6369,438.1687,740.6369,438.1687,704.34" style="stroke:#181818;stroke-width:0.5;"/><line style="stroke:#181818;stroke-width:0.5;" x1="531.1687" x2="541.1687" y1="704.34" y2="694.34"/><line style="stroke:#181818;stroke-width:0.5;" x1="438.1687" x2="531.1687" y1="704.34" y2="704.34"/><line style="stroke:#181818;stroke-width:0.5;" x1="531.1687" x2="531.1687" y1="704.34" y2="740.6369"/><text fill="#000000" font-family="sans-serif" font-size="14" lengthAdjust="spacing" textLength="63" x="453.1687" y="727.3351">Nitrogen</text></g><!--MD5=[0fa1bcb1596fdf58d4771b3f3d14f995]
entity lavaworker1--><g id="elem_lavaworker1"><rect fill="#F1F1F1" height="46.2969" rx="2.5" ry="2.5" style="stroke:#181818;stroke-width:0.5;" width="126" x="388.6687" y="522.34"/><rect fill="#F1F1F1" height="10" style="stroke:#181818;stroke-width:0.5;" width="15" x="494.6687" y="527.34"/><rect fill="#F1F1F1" height="2" style="stroke:#181818;stroke-width:0.5;" width="4" x="492.6687" y="529.34"/><rect fill="#F1F1F1" height="2" style="stroke:#181818;stroke-width:0.5;" width="4" x="492.6687" y="533.34"/><text fill="#000000" font-family="sans-serif" font-size="14" lengthAdjust="spacing" textLength="86" x="403.6687" y="555.3351">Lava worker</text></g><!--MD5=[5007e258647d060eb0b609a66781e7eb]
entity storage3--><g id="elem_storage3"><path d="M611.1687,532.84 C611.1687,522.84 651.6687,522.84 651.6687,522.84 C651.6687,522.84 692.1687,522.84 692.1687,532.84 L692.1687,558.1369 C692.1687,568.1369 651.6687,568.1369 651.6687,568.1369 C651.6687,568.1369 611.1687,568.1369 611.1687,558.1369 L611.1687,532.84 " fill="#F1F1F1" style="stroke:#181818;stroke-width:0.5;"/><path d="M611.1687,532.84 C611.1687,542.84 651.6687,542.84 651.6687,542.84 C651.6687,542.84 692.1687,542.84 692.1687,532.84 " fill="none" style="stroke:#181818;stroke-width:0.5;"/><text fill="#000000" font-family="sans-serif" font-size="14" lengthAdjust="spacing" textLength="61" x="621.1687" y="559.8351">USB SSD</text></g><!--MD5=[94dbd72224ac95a39a190280aedcd023]
entity b68--><g id="elem_b68"><polygon fill="#F1F1F1" points="697.6687,704.34,707.6687,694.34,807.6687,694.34,807.6687,730.6369,797.6687,740.6369,697.6687,740.6369,697.6687,704.34" style="stroke:#181818;stroke-width:0.5;"/><line style="stroke:#181818;stroke-width:0.5;" x1="797.6687" x2="807.6687" y1="704.34" y2="694.34"/><line style="stroke:#181818;stroke-width:0.5;" x1="697.6687" x2="797.6687" y1="704.34" y2="704.34"/><line style="stroke:#181818;stroke-width:0.5;" x1="797.6687" x2="797.6687" y1="704.34" y2="740.6369"/><text fill="#000000" font-family="sans-serif" font-size="14" lengthAdjust="spacing" textLength="70" x="712.6687" y="727.3351">SECO B68</text></g><!--MD5=[38aa2ab79102b625c94e0ab34d84540d]
entity c61--><g id="elem_c61"><polygon fill="#F1F1F1" points="843.1687,704.34,853.1687,694.34,954.1687,694.34,954.1687,730.6369,944.1687,740.6369,843.1687,740.6369,843.1687,704.34" style="stroke:#181818;stroke-width:0.5;"/><line style="stroke:#181818;stroke-width:0.5;" x1="944.1687" x2="954.1687" y1="704.34" y2="694.34"/><line style="stroke:#181818;stroke-width:0.5;" x1="843.1687" x2="944.1687" y1="704.34" y2="704.34"/><line style="stroke:#181818;stroke-width:0.5;" x1="944.1687" x2="944.1687" y1="704.34" y2="740.6369"/><text fill="#000000" font-family="sans-serif" font-size="14" lengthAdjust="spacing" textLength="71" x="858.1687" y="727.3351">SECO C61</text></g><!--MD5=[4b9b4fb59a8629eeaa7f4951e97c582a]
entity lavaworker3--><g id="elem_lavaworker3"><rect fill="#F1F1F1" height="46.2969" rx="2.5" ry="2.5" style="stroke:#181818;stroke-width:0.5;" width="126" x="800.6687" y="522.34"/><rect fill="#F1F1F1" height="10" style="stroke:#181818;stroke-width:0.5;" width="15" x="906.6687" y="527.34"/><rect fill="#F1F1F1" height="2" style="stroke:#181818;stroke-width:0.5;" width="4" x="904.6687" y="529.34"/><rect fill="#F1F1F1" height="2" style="stroke:#181818;stroke-width:0.5;" width="4" x="904.6687" y="533.34"/><text fill="#000000" font-family="sans-serif" font-size="14" lengthAdjust="spacing" textLength="86" x="815.6687" y="555.3351">Lava worker</text></g><!--MD5=[804f7fa63ecb9c72045661494a16424f]
entity storage4--><g id="elem_storage4"><path d="M1862.1687,532.84 C1862.1687,522.84 1902.6687,522.84 1902.6687,522.84 C1902.6687,522.84 1943.1687,522.84 1943.1687,532.84 L1943.1687,558.1369 C1943.1687,568.1369 1902.6687,568.1369 1902.6687,568.1369 C1902.6687,568.1369 1862.1687,568.1369 1862.1687,558.1369 L1862.1687,532.84 " fill="#F1F1F1" style="stroke:#181818;stroke-width:0.5;"/><path d="M1862.1687,532.84 C1862.1687,542.84 1902.6687,542.84 1902.6687,542.84 C1902.6687,542.84 1943.1687,542.84 1943.1687,532.84 " fill="none" style="stroke:#181818;stroke-width:0.5;"/><text fill="#000000" font-family="sans-serif" font-size="14" lengthAdjust="spacing" textLength="61" x="1872.1687" y="559.8351">USB SSD</text></g><!--MD5=[61085418be55119ffd589148b2046ad6]
entity arduino--><g id="elem_arduino"><polygon fill="#F1F1F1" points="2021.1687,704.34,2031.1687,694.34,2208.1687,694.34,2208.1687,730.6369,2198.1687,740.6369,2021.1687,740.6369,2021.1687,704.34" style="stroke:#181818;stroke-width:0.5;"/><line style="stroke:#181818;stroke-width:0.5;" x1="2198.1687" x2="2208.1687" y1="704.34" y2="694.34"/><line style="stroke:#181818;stroke-width:0.5;" x1="2021.1687" x2="2198.1687" y1="704.34" y2="704.34"/><line style="stroke:#181818;stroke-width:0.5;" x1="2198.1687" x2="2198.1687" y1="704.34" y2="740.6369"/><text fill="#000000" font-family="sans-serif" font-size="14" lengthAdjust="spacing" textLength="147" x="2036.1687" y="727.3351">Arduino nano 33 BLE</text></g><!--MD5=[340e256493aadf7e1efe19d48b9fa8c5]
entity lavaworker4--><g id="elem_lavaworker4"><rect fill="#F1F1F1" height="46.2969" rx="2.5" ry="2.5" style="stroke:#181818;stroke-width:0.5;" width="126" x="2051.6687" y="522.34"/><rect fill="#F1F1F1" height="10" style="stroke:#181818;stroke-width:0.5;" width="15" x="2157.6687" y="527.34"/><rect fill="#F1F1F1" height="2" style="stroke:#181818;stroke-width:0.5;" width="4" x="2155.6687" y="529.34"/><rect fill="#F1F1F1" height="2" style="stroke:#181818;stroke-width:0.5;" width="4" x="2155.6687" y="533.34"/><text fill="#000000" font-family="sans-serif" font-size="14" lengthAdjust="spacing" textLength="86" x="2066.6687" y="555.3351">Lava worker</text></g><!--MD5=[338037127992e47fce517f5ce96452a3]
entity storage2--><g id="elem_storage2"><path d="M2274.1687,532.84 C2274.1687,522.84 2314.6687,522.84 2314.6687,522.84 C2314.6687,522.84 2355.1687,522.84 2355.1687,532.84 L2355.1687,558.1369 C2355.1687,568.1369 2314.6687,568.1369 2314.6687,568.1369 C2314.6687,568.1369 2274.1687,568.1369 2274.1687,558.1369 L2274.1687,532.84 " fill="#F1F1F1" style="stroke:#181818;stroke-width:0.5;"/><path d="M2274.1687,532.84 C2274.1687,542.84 2314.6687,542.84 2314.6687,542.84 C2314.6687,542.84 2355.1687,542.84 2355.1687,532.84 " fill="none" style="stroke:#181818;stroke-width:0.5;"/><text fill="#000000" font-family="sans-serif" font-size="14" lengthAdjust="spacing" textLength="61" x="2284.1687" y="559.8351">USB SSD</text></g><!--MD5=[0073fbb5d8779a553bf9b23ade38e759]
entity storage5--><g id="elem_storage5"><path d="M2718.1687,704.84 C2718.1687,694.84 2758.6687,694.84 2758.6687,694.84 C2758.6687,694.84 2799.1687,694.84 2799.1687,704.84 L2799.1687,730.1369 C2799.1687,740.1369 2758.6687,740.1369 2758.6687,740.1369 C2758.6687,740.1369 2718.1687,740.1369 2718.1687,730.1369 L2718.1687,704.84 " fill="#F1F1F1" style="stroke:#181818;stroke-width:0.5;"/><path d="M2718.1687,704.84 C2718.1687,714.84 2758.6687,714.84 2758.6687,714.84 C2758.6687,714.84 2799.1687,714.84 2799.1687,704.84 " fill="none" style="stroke:#181818;stroke-width:0.5;"/><text fill="#000000" font-family="sans-serif" font-size="14" lengthAdjust="spacing" textLength="61" x="2728.1687" y="731.8351">USB SSD</text></g><!--MD5=[4154e078fb7f6842b2f6e80246e4f798]
entity storage5_1--><g id="elem_storage5_1"><path d="M2604.1687,704.84 C2604.1687,694.84 2643.6687,694.84 2643.6687,694.84 C2643.6687,694.84 2683.1687,694.84 2683.1687,704.84 L2683.1687,730.1369 C2683.1687,740.1369 2643.6687,740.1369 2643.6687,740.1369 C2643.6687,740.1369 2604.1687,740.1369 2604.1687,730.1369 L2604.1687,704.84 " fill="#F1F1F1" style="stroke:#181818;stroke-width:0.5;"/><path d="M2604.1687,704.84 C2604.1687,714.84 2643.6687,714.84 2643.6687,714.84 C2643.6687,714.84 2683.1687,714.84 2683.1687,704.84 " fill="none" style="stroke:#181818;stroke-width:0.5;"/><text fill="#000000" font-family="sans-serif" font-size="14" lengthAdjust="spacing" textLength="59" x="2614.1687" y="731.8351">MicroSD</text></g><!--MD5=[aa2caa18f1a96f5db0b466cebf794ef3]
entity lavaworker2--><g id="elem_lavaworker2"><rect fill="#F1F1F1" height="46.2969" rx="2.5" ry="2.5" style="stroke:#181818;stroke-width:0.5;" width="126" x="2463.6687" y="522.34"/><rect fill="#F1F1F1" height="10" style="stroke:#181818;stroke-width:0.5;" width="15" x="2569.6687" y="527.34"/><rect fill="#F1F1F1" height="2" style="stroke:#181818;stroke-width:0.5;" width="4" x="2567.6687" y="529.34"/><rect fill="#F1F1F1" height="2" style="stroke:#181818;stroke-width:0.5;" width="4" x="2567.6687" y="533.34"/><text fill="#000000" font-family="sans-serif" font-size="14" lengthAdjust="spacing" textLength="86" x="2478.6687" y="555.3351">Lava worker</text></g><!--MD5=[29a793b517c7657c1a75baa56a50cf0e]
entity pi4_5--><g id="elem_pi4_5"><polygon fill="#F1F1F1" points="2274.1687,704.34,2284.1687,694.34,2465.1687,694.34,2465.1687,730.6369,2455.1687,740.6369,2274.1687,740.6369,2274.1687,704.34" style="stroke:#181818;stroke-width:0.5;"/><line style="stroke:#181818;stroke-width:0.5;" x1="2455.1687" x2="2465.1687" y1="704.34" y2="694.34"/><line style="stroke:#181818;stroke-width:0.5;" x1="2274.1687" x2="2455.1687" y1="704.34" y2="704.34"/><line style="stroke:#181818;stroke-width:0.5;" x1="2455.1687" x2="2455.1687" y1="704.34" y2="740.6369"/><text fill="#000000" font-family="sans-serif" font-size="14" lengthAdjust="spacing" textLength="151" x="2289.1687" y="727.3351">DUT: Raspberry Pi 4B</text></g><!--MD5=[ea19deeb053b6d935524ddb2281a69ee]
entity traefik--><g id="elem_traefik"><rect fill="#F1F1F1" height="46.2969" rx="2.5" ry="2.5" style="stroke:#181818;stroke-width:0.5;" width="191" x="1039.1687" y="803.34"/><rect fill="#F1F1F1" height="10" style="stroke:#181818;stroke-width:0.5;" width="15" x="1210.1687" y="808.34"/><rect fill="#F1F1F1" height="2" style="stroke:#181818;stroke-width:0.5;" width="4" x="1208.1687" y="810.34"/><rect fill="#F1F1F1" height="2" style="stroke:#181818;stroke-width:0.5;" width="4" x="1208.1687" y="814.34"/><text fill="#000000" font-family="sans-serif" font-size="14" lengthAdjust="spacing" textLength="151" x="1054.1687" y="836.3351">Traefik load balancer</text></g><!--MD5=[ee228754cfefcd4388e3544836db2122]
entity dhcp--><g id="elem_dhcp"><rect fill="#F1F1F1" height="46.2969" rx="2.5" ry="2.5" style="stroke:#181818;stroke-width:0.5;" width="129" x="1265.1687" y="803.34"/><rect fill="#F1F1F1" height="10" style="stroke:#181818;stroke-width:0.5;" width="15" x="1374.1687" y="808.34"/><rect fill="#F1F1F1" height="2" style="stroke:#181818;stroke-width:0.5;" width="4" x="1372.1687" y="810.34"/><rect fill="#F1F1F1" height="2" style="stroke:#181818;stroke-width:0.5;" width="4" x="1372.1687" y="814.34"/><text fill="#000000" font-family="sans-serif" font-size="14" lengthAdjust="spacing" textLength="89" x="1280.1687" y="836.3351">DHCP server</text></g><!--MD5=[23d65aac2324c65ac0096783c9af7243]
entity ntp--><g id="elem_ntp"><rect fill="#F1F1F1" height="46.2969" rx="2.5" ry="2.5" style="stroke:#181818;stroke-width:0.5;" width="117" x="1429.1687" y="803.34"/><rect fill="#F1F1F1" height="10" style="stroke:#181818;stroke-width:0.5;" width="15" x="1526.1687" y="808.34"/><rect fill="#F1F1F1" height="2" style="stroke:#181818;stroke-width:0.5;" width="4" x="1524.1687" y="810.34"/><rect fill="#F1F1F1" height="2" style="stroke:#181818;stroke-width:0.5;" width="4" x="1524.1687" y="814.34"/><text fill="#000000" font-family="sans-serif" font-size="14" lengthAdjust="spacing" textLength="77" x="1444.1687" y="836.3351">NTP server</text></g><!--MD5=[30e382dc68ab04d49d3ef5ad3266e605]
entity dns--><g id="elem_dns"><rect fill="#F1F1F1" height="46.2969" rx="2.5" ry="2.5" style="stroke:#181818;stroke-width:0.5;" width="119" x="1457.1687" y="910.34"/><rect fill="#F1F1F1" height="10" style="stroke:#181818;stroke-width:0.5;" width="15" x="1556.1687" y="915.34"/><rect fill="#F1F1F1" height="2" style="stroke:#181818;stroke-width:0.5;" width="4" x="1554.1687" y="917.34"/><rect fill="#F1F1F1" height="2" style="stroke:#181818;stroke-width:0.5;" width="4" x="1554.1687" y="921.34"/><text fill="#000000" font-family="sans-serif" font-size="14" lengthAdjust="spacing" textLength="79" x="1472.1687" y="943.3351">DNS server</text></g><!--MD5=[6e092ac4550b3fa0f78e3e315bc842b1]
entity kisscache--><g id="elem_kisscache"><rect fill="#F1F1F1" height="46.2969" rx="2.5" ry="2.5" style="stroke:#181818;stroke-width:0.5;" width="161" x="1039.1687" y="910.34"/><rect fill="#F1F1F1" height="10" style="stroke:#181818;stroke-width:0.5;" width="15" x="1180.1687" y="915.34"/><rect fill="#F1F1F1" height="2" style="stroke:#181818;stroke-width:0.5;" width="4" x="1178.1687" y="917.34"/><rect fill="#F1F1F1" height="2" style="stroke:#181818;stroke-width:0.5;" width="4" x="1178.1687" y="921.34"/><text fill="#000000" font-family="sans-serif" font-size="14" lengthAdjust="spacing" textLength="121" x="1054.1687" y="943.3351">KissCache server</text></g><!--MD5=[9b50232802efdec09056d2fe94d4716d]
entity artifacts--><g id="elem_artifacts"><rect fill="#F1F1F1" height="46.2969" rx="2.5" ry="2.5" style="stroke:#181818;stroke-width:0.5;" width="186" x="1235.6687" y="910.34"/><rect fill="#F1F1F1" height="10" style="stroke:#181818;stroke-width:0.5;" width="15" x="1401.6687" y="915.34"/><rect fill="#F1F1F1" height="2" style="stroke:#181818;stroke-width:0.5;" width="4" x="1399.6687" y="917.34"/><rect fill="#F1F1F1" height="2" style="stroke:#181818;stroke-width:0.5;" width="4" x="1399.6687" y="921.34"/><text fill="#000000" font-family="sans-serif" font-size="14" lengthAdjust="spacing" textLength="146" x="1250.6687" y="943.3351">Lava artifacts server</text></g><text fill="#000000" font-family="sans-serif" font-size="14" lengthAdjust="spacing" textLength="33" x="1257.1687" y="696.0382">http</text><rect fill="#181818" height="12" style="stroke:#F1F1F1;stroke-width:1.5;" width="12" x="1267.6687" y="711.34"/><!--MD5=[2bff9d89c5f69e56c8e3bc7e37ff91e0]
entity info--><g id="elem_info"><rect fill="#F1F1F1" height="22.2969" rx="2.5" ry="2.5" style="stroke:#181818;stroke-width:0.5;" width="425" x="1930.1687" y="151.34"/><text fill="#000000" font-family="sans-serif" font-size="14" lengthAdjust="spacing" textLength="405" x="1940.1687" y="167.3351">Overall view of Oniroproject development infrastructure</text></g><!--MD5=[db66fe8cbe2cdf0454290dbf82c3f59c]
entity Developer--><g id="elem_Developer"><ellipse cx="1246.6687" cy="132.84" fill="#F1F1F1" rx="8" ry="8" style="stroke:#181818;stroke-width:0.5;"/><path d="M1246.6687,140.84 L1246.6687,167.84 M1233.6687,148.84 L1259.6687,148.84 M1246.6687,167.84 L1233.6687,182.84 M1246.6687,167.84 L1259.6687,182.84 " fill="none" style="stroke:#181818;stroke-width:0.5;"/><text fill="#000000" font-family="sans-serif" font-size="14" lengthAdjust="spacing" textLength="75" x="1209.1687" y="197.3351">Developer</text></g><!--MD5=[f3401c2d09288f830763ccde49063a6d]
entity Contributor--><g id="elem_Contributor"><ellipse cx="1852.6687" cy="132.84" fill="#F1F1F1" rx="8" ry="8" style="stroke:#181818;stroke-width:0.5;"/><path d="M1852.6687,140.84 L1852.6687,167.84 M1839.6687,148.84 L1865.6687,148.84 M1852.6687,167.84 L1839.6687,182.84 M1852.6687,167.84 L1865.6687,182.84 " fill="none" style="stroke:#181818;stroke-width:0.5;"/><text fill="#000000" font-family="sans-serif" font-size="14" lengthAdjust="spacing" textLength="85" x="1810.1687" y="197.3351">Contributor</text></g><!--MD5=[28b3280c10fb1ee66d4ac930fcc07c08]
link gitlab to lava--><g id="link_gitlab_lava"><path d="M1430.6687,185.35 C1430.6687,205.185 1430.6687,234.431 1430.6687,255.808 " fill="none" id="gitlab-to-lava" style="stroke:#181818;stroke-width:1.0;"/><polygon fill="#181818" points="1430.6687,261.063,1434.6687,252.063,1430.6687,256.063,1426.6687,252.063,1430.6687,261.063" style="stroke:#181818;stroke-width:1.0;"/></g><!--MD5=[9428534f46c3429d628adadc101f4f21]
link Developer to gitlab--><g id="link_Developer_gitlab"><path d="M1284.3987,162.34 C1294.2187,162.34 1304.0287,162.34 1313.8387,162.34 " fill="none" id="Developer-to-gitlab" style="stroke:#181818;stroke-width:1.0;"/><polygon fill="#181818" points="1318.9687,162.34,1309.9687,158.34,1313.9687,162.34,1309.9687,166.34,1318.9687,162.34" style="stroke:#181818;stroke-width:1.0;"/></g><!--MD5=[bb443db56c4a2440e5a50cf1aa8bb0fc]
link Contributor to gitlab--><g id="link_Contributor_gitlab"><path d="M1840.0787,124.2 C1825.5787,87.833 1797.7087,36.185 1752.1687,19.34 C1716.1087,6 1615.2287,6 1579.1687,19.34 C1520.4587,41.057 1472.6587,99.842 1448.2587,134.912 " fill="none" id="Contributor-to-gitlab" style="stroke:#181818;stroke-width:1.0;"/><polygon fill="#181818" points="1445.4087,139.067,1453.8073,133.9227,1448.2443,134.9488,1447.2182,129.3858,1445.4087,139.067" style="stroke:#181818;stroke-width:1.0;"/></g><!--MD5=[fa1e6307e2f12cd43bf68c0d40712084]
link Developer to lava--><g id="link_Developer_lava"><path d="M1284.2787,195.626 C1290.2987,200.39 1296.5687,205.112 1302.6687,209.34 C1328.6887,227.369 1359.3487,245.2 1384.1287,258.841 " fill="none" id="Developer-to-lava" style="stroke:#181818;stroke-width:1.0;"/><polygon fill="#181818" points="1388.6887,261.338,1382.7345,253.4928,1384.3089,258.9262,1378.8755,260.5006,1388.6887,261.338" style="stroke:#181818;stroke-width:1.0;"/></g><!--MD5=[86a58e7763f172f4620fd13c202cc82e]
link Contributor to lava--><g id="link_Contributor_lava"><path d="M1809.8787,190.163 C1797.2787,197.192 1783.2387,204.226 1769.6687,209.34 C1677.2387,244.184 1564.1287,264.751 1494.7587,275.036 " fill="none" id="Contributor-to-lava" style="stroke:#181818;stroke-width:1.0;"/><polygon fill="#181818" points="1489.4287,275.819,1498.9155,278.465,1494.3754,275.0905,1497.7499,270.5504,1489.4287,275.819" style="stroke:#181818;stroke-width:1.0;"/></g><!--MD5=[9a085617b0e2c44f883968bea4b75418]
link lavaworker1 to nitrogen3_1--><g id="link_lavaworker1_nitrogen3_1"><path d="M438.5957,568.565 C420.2537,599.745 386.9337,656.389 367.3037,689.76 " fill="none" id="lavaworker1-to-nitrogen3_1" style="stroke:#181818;stroke-width:1.0;"/><polygon fill="#181818" points="364.7447,694.11,372.7561,688.3813,367.2801,689.8005,365.8609,684.3246,364.7447,694.11" style="stroke:#181818;stroke-width:1.0;"/><text fill="#000000" font-family="sans-serif" font-size="13" lengthAdjust="spacing" textLength="25" x="408.6687" y="629.4069">USB</text></g><!--MD5=[1a2fbe8f44b84f5883ab8c504e394730]
link lavaworker1 to nitrogen3_2--><g id="link_lavaworker1_nitrogen3_2"><path d="M456.6367,568.565 C463.5497,599.49 476.0617,655.466 483.5437,688.938 " fill="none" id="lavaworker1-to-nitrogen3_2" style="stroke:#181818;stroke-width:1.0;"/><polygon fill="#181818" points="484.6997,694.11,486.6416,684.4545,483.6098,689.2302,478.834,686.1984,484.6997,694.11" style="stroke:#181818;stroke-width:1.0;"/><text fill="#000000" font-family="sans-serif" font-size="13" lengthAdjust="spacing" textLength="25" x="471.6687" y="629.4069">USB</text></g><!--MD5=[9834d8a543ed78f3931d27ddec1b9261]
link storage to pi4_1--><g id="link_storage_pi4_1"><path d="M285.2777,545.34 C300.1017,545.34 315.9975,545.34 328.7301,545.34 C330.3217,545.34 331.8638,545.34 333.3483,545.34 C333.7194,545.34 334.0869,545.34 334.4507,545.34 " fill="none" id="storage-pi4_1" style="stroke:#181818;stroke-width:1.0;"/><polygon fill="#181818" points="334.4507,545.34,325.4507,541.34,329.4507,545.34,325.4507,549.34,334.4507,545.34" style="stroke:#181818;stroke-width:1.0;"/><polygon fill="#181818" points="280.1817,545.34,289.1817,549.34,285.1817,545.34,289.1817,541.34,280.1817,545.34" style="stroke:#181818;stroke-width:1.0;"/><text fill="#000000" font-family="sans-serif" font-size="13" lengthAdjust="spacing" textLength="37" x="298.2387" y="538.4069">USB 3</text></g><!--MD5=[4bc91958b5317de2c5d528a3c803726f]
link lavaworker3 to b68--><g id="link_lavaworker3_b68"><path d="M849.1577,568.565 C828.7987,599.745 791.8137,656.389 770.0237,689.76 " fill="none" id="lavaworker3-to-b68" style="stroke:#181818;stroke-width:1.0;"/><polygon fill="#181818" points="767.1837,694.11,775.4525,688.7595,769.9165,689.9229,768.7531,684.387,767.1837,694.11" style="stroke:#181818;stroke-width:1.0;"/></g><!--MD5=[5f1e9acb243986708ba5bd696ab14798]
link lavaworker3 to c61--><g id="link_lavaworker3_c61"><path d="M868.2447,568.565 C874.6117,599.49 886.1357,655.466 893.0267,688.938 " fill="none" id="lavaworker3-to-c61" style="stroke:#181818;stroke-width:1.0;"/><polygon fill="#181818" points="894.0917,694.11,896.194,684.4881,893.0831,689.2128,888.3585,686.1019,894.0917,694.11" style="stroke:#181818;stroke-width:1.0;"/></g><!--MD5=[9c84f5c1dd3480628be14f14d1403cf9]
link storage3 to pi4_3--><g id="link_storage3_pi4_3"><path d="M697.2777,545.34 C712.1017,545.34 727.9975,545.34 740.7301,545.34 C742.3217,545.34 743.8638,545.34 745.3483,545.34 C745.7194,545.34 746.0869,545.34 746.4507,545.34 " fill="none" id="storage3-pi4_3" style="stroke:#181818;stroke-width:1.0;"/><polygon fill="#181818" points="746.4507,545.34,737.4507,541.34,741.4507,545.34,737.4507,549.34,746.4507,545.34" style="stroke:#181818;stroke-width:1.0;"/><polygon fill="#181818" points="692.1817,545.34,701.1817,549.34,697.1817,545.34,701.1817,541.34,692.1817,545.34" style="stroke:#181818;stroke-width:1.0;"/><text fill="#000000" font-family="sans-serif" font-size="13" lengthAdjust="spacing" textLength="37" x="710.2387" y="538.4069">USB 3</text></g><!--MD5=[b7df46cd3a4cd0063bb4f9f014176dcd]
link storage4 to pi4_4--><g id="link_storage4_pi4_4"><path d="M1948.2787,545.34 C1963.1037,545.34 1978.9987,545.34 1991.73,545.34 C1993.3214,545.34 1994.8633,545.34 1996.3476,545.34 C1996.7187,545.34 1997.0861,545.34 1997.4499,545.34 " fill="none" id="storage4-pi4_4" style="stroke:#181818;stroke-width:1.0;"/><polygon fill="#181818" points="1997.4499,545.34,1988.4499,541.34,1992.4499,545.34,1988.4499,549.34,1997.4499,545.34" style="stroke:#181818;stroke-width:1.0;"/><polygon fill="#181818" points="1943.1787,545.34,1952.1787,549.34,1948.1787,545.34,1952.1787,541.34,1943.1787,545.34" style="stroke:#181818;stroke-width:1.0;"/><text fill="#000000" font-family="sans-serif" font-size="13" lengthAdjust="spacing" textLength="37" x="1961.2387" y="538.4069">USB 3</text></g><!--MD5=[b41767d81fac11c499e33ea75b1b8efc]
link lavaworker4 to arduino--><g id="link_lavaworker4_arduino"><path d="M2114.6687,573.736 C2114.6687,605.375 2114.6687,657.126 2114.6687,688.819 " fill="none" id="lavaworker4-arduino" style="stroke:#181818;stroke-width:1.0;"/><polygon fill="#181818" points="2114.6687,694.11,2118.6687,685.11,2114.6687,689.11,2110.6687,685.11,2114.6687,694.11" style="stroke:#181818;stroke-width:1.0;"/><polygon fill="#181818" points="2114.6687,568.565,2110.6687,577.565,2114.6687,573.565,2118.6687,577.565,2114.6687,568.565" style="stroke:#181818;stroke-width:1.0;"/></g><!--MD5=[47336fc3904af40c576705f08ab8048c]
link lavaworker2 to pi4_5--><g id="link_lavaworker2_pi4_5"><path d="M2506.1387,568.565 C2477.2287,599.872 2424.6087,656.852 2393.8387,690.168 " fill="none" id="lavaworker2-to-pi4_5" style="stroke:#181818;stroke-width:1.0;"/><polygon fill="#181818" points="2390.1987,694.11,2399.2447,690.215,2393.5922,690.4379,2393.3693,684.7854,2390.1987,694.11" style="stroke:#181818;stroke-width:1.0;"/></g><!--MD5=[46f34556297b420f402baf73df399cee]
link pi4_5 to storage5--><g id="link_pi4_5_storage5"><path d="M2407.5887,694.287 C2442.5387,674.481 2496.5687,647.42 2547.6687,636.34 C2614.1587,621.923 2640.8887,608.85 2700.6687,641.34 C2720.5287,652.135 2735.6787,672.955 2745.4987,690.077 " fill="none" id="pi4_5-to-storage5" style="stroke:#181818;stroke-width:1.0;"/><polygon fill="#181818" points="2748.1287,694.797,2747.2472,684.9877,2745.6972,690.428,2740.2569,688.878,2748.1287,694.797" style="stroke:#181818;stroke-width:1.0;"/><text fill="#000000" font-family="sans-serif" font-size="13" lengthAdjust="spacing" textLength="86" x="2548.6687" y="629.4069">Oniro system</text></g><!--MD5=[3a8a6a47145ec19c6b976ddcd4aa8612]
link pi4_5 to storage5_1--><g id="link_pi4_5_storage5_1"><path d="M2465.4987,717.34 C2510.8087,717.34 2562.7287,717.34 2598.7887,717.34 " fill="none" id="pi4_5-to-storage5_1" style="stroke:#181818;stroke-width:1.0;"/><polygon fill="#181818" points="2603.9887,717.34,2594.9887,713.34,2598.9887,717.34,2594.9887,721.34,2603.9887,717.34" style="stroke:#181818;stroke-width:1.0;"/><text fill="#000000" font-family="sans-serif" font-size="13" lengthAdjust="spacing" textLength="102" x="2483.6687" y="710.4069">primary system</text></g><!--MD5=[eadf4e56ac9b9719de04e282e8094e5e]
link storage2 to pi4_2--><g id="link_storage2_pi4_2"><path d="M2360.2787,545.34 C2375.1037,545.34 2390.9987,545.34 2403.73,545.34 C2406.9128,545.34 2409.8979,545.34 2412.6191,545.34 C2413.2994,545.34 2413.9632,545.34 2414.6094,545.34 " fill="none" id="storage2-pi4_2" style="stroke:#181818;stroke-width:1.0;"/><polygon fill="#181818" points="2414.6094,545.34,2405.6094,541.34,2409.6094,545.34,2405.6094,549.34,2414.6094,545.34" style="stroke:#181818;stroke-width:1.0;"/><polygon fill="#181818" points="2355.1787,545.34,2364.1787,549.34,2360.1787,545.34,2364.1787,541.34,2355.1787,545.34" style="stroke:#181818;stroke-width:1.0;"/><text fill="#000000" font-family="sans-serif" font-size="13" lengthAdjust="spacing" textLength="37" x="2373.2387" y="538.4069">USB 3</text></g><!--MD5=[06352f9f5387a823792d75e97c0c57b7]
link lava to lavaworker1--><g id="link_lava_lavaworker1"><path d="M1371.9987,286.931 C1193.0387,292.174 662.1937,310.76 594.6687,348.34 C525.9537,386.583 481.4087,473.29 462.3267,517.433 " fill="none" id="lava-to-lavaworker1" style="stroke:#181818;stroke-width:1.0;"/><polygon fill="#181818" points="460.3427,522.084,467.553,515.3749,462.3044,517.4849,460.1944,512.2363,460.3427,522.084" style="stroke:#181818;stroke-width:1.0;"/></g><!--MD5=[b0d03c4954b6985765819bcee6c043c8]
link lava to lavaworker2--><g id="link_lava_lavaworker2"><path d="M1489.2987,285.183 C1695.9887,285.134 2382.3987,289.445 2459.6687,348.34 C2512.7087,388.77 2524.0587,473.489 2526.2887,517.106 " fill="none" id="lava-to-lavaworker2" style="stroke:#181818;stroke-width:1.0;"/><polygon fill="#181818" points="2526.5187,522.216,2530.114,513.0468,2526.2961,517.221,2522.1219,513.403,2526.5187,522.216" style="stroke:#181818;stroke-width:1.0;"/></g><!--MD5=[b150e1ddaa2d76aefe5152181f3a3f24]
link lava to lavaworker3--><g id="link_lava_lavaworker3"><path d="M1382.3287,307.422 C1276.7687,355.638 1026.3737,470.018 916.6857,520.122 " fill="none" id="lava-to-lavaworker3" style="stroke:#181818;stroke-width:1.0;"/><polygon fill="#181818" points="911.8887,522.314,921.7371,522.214,916.4369,520.237,918.4139,514.9369,911.8887,522.314" style="stroke:#181818;stroke-width:1.0;"/></g><!--MD5=[7a856760e9c4f6caf584326c2a45651c]
link lava to lavaworker4--><g id="link_lava_lavaworker4"><path d="M1489.2287,287.757 C1634.8087,294.26 2004.4687,314.003 2047.6687,348.34 C2099.7387,389.731 2111.5487,473.641 2114.0887,517.012 " fill="none" id="lava-to-lavaworker4" style="stroke:#181818;stroke-width:1.0;"/><polygon fill="#181818" points="2114.3487,522.095,2117.876,512.8994,2114.0891,517.1017,2109.8867,513.3149,2114.3487,522.095" style="stroke:#181818;stroke-width:1.0;"/></g><!--MD5=[8eb4f3ef3a27c71c8063d98546c79555]
link http to traefik--><g id="link_http_traefik"><path d="M1267.3387,723.216 C1249.9787,736.573 1200.7587,774.468 1167.3987,800.146 " fill="none" id="http-to-traefik" style="stroke:#181818;stroke-width:1.0;"/><polygon fill="#181818" points="1163.4087,803.214,1172.9832,800.9054,1167.3745,800.1689,1168.111,794.5602,1163.4087,803.214" style="stroke:#181818;stroke-width:1.0;"/></g><!--MD5=[ce1309a27310881f958829720191111b]
link traefik to kisscache--><g id="link_traefik_kisscache"><path d="M1131.5247,849.351 C1129.2197,865.483 1126.0757,887.491 1123.6047,904.79 " fill="none" id="traefik-to-kisscache" style="stroke:#181818;stroke-width:1.0;"/><polygon fill="#181818" points="1122.8607,909.996,1128.0933,901.6521,1123.5678,905.0463,1120.1737,900.5208,1122.8607,909.996" style="stroke:#181818;stroke-width:1.0;"/></g><!--MD5=[2b7be466fb3d38ae9e221816b307ecf4]
link traefik to artifacts--><g id="link_traefik_artifacts"><path d="M1175.3387,849.351 C1206.7887,866.374 1250.3287,889.942 1282.9887,907.614 " fill="none" id="traefik-to-artifacts" style="stroke:#181818;stroke-width:1.0;"/><polygon fill="#181818" points="1287.7187,910.177,1281.7156,902.3691,1283.3239,907.7925,1277.9005,909.4008,1287.7187,910.177" style="stroke:#181818;stroke-width:1.0;"/></g><!--MD5=[a30cd4567a67122acfa5bfac584e5a9f]
link lavaworker1 to http--><g id="link_lavaworker1_http"><path d="M492.6447,568.354 C520.5757,582.283 558.8537,599.31 594.6687,608.34 C762.4847,650.65 812.0537,612.308 982.6687,641.34 C1093.4577,660.192 1223.8387,700.419 1262.3987,712.703 " fill="none" id="lavaworker1-to-http" style="stroke:#181818;stroke-width:1.0;"/><polygon fill="#181818" points="1267.4087,714.306,1260.0616,707.7471,1262.6479,712.7781,1257.6169,715.3644,1267.4087,714.306" style="stroke:#181818;stroke-width:1.0;"/></g><!--MD5=[1233a323b43a6d83e58aa471ac9d852b]
link lavaworker2 to http--><g id="link_lavaworker2_http"><path d="M2509.6587,568.593 C2497.4487,582.72 2479.6687,599.881 2459.6687,608.34 C2451.7987,611.667 1854.1687,640.555 1845.6687,641.34 C1618.6187,662.295 1343.0387,705.292 1284.7987,714.556 " fill="none" id="lavaworker2-to-http" style="stroke:#181818;stroke-width:1.0;"/><polygon fill="#181818" points="1279.8487,715.345,1289.3655,717.8808,1284.7866,714.5592,1288.1082,709.9802,1279.8487,715.345" style="stroke:#181818;stroke-width:1.0;"/></g><!--MD5=[5a5c9ebf190fdbfa68762014a6405a1c]
link lavaworker3 to http--><g id="link_lavaworker3_http"><path d="M916.8487,568.39 C1013.8497,608.61 1214.0287,691.61 1262.7887,711.827 " fill="none" id="lavaworker3-to-http" style="stroke:#181818;stroke-width:1.0;"/><polygon fill="#181818" points="1267.4987,713.782,1260.7161,706.6408,1262.8798,711.8675,1257.653,714.0312,1267.4987,713.782" style="stroke:#181818;stroke-width:1.0;"/></g><!--MD5=[bd3061f43a64742cc96986e3eeafd2ee]
link lavaworker4 to http--><g id="link_lavaworker4_http"><path d="M2097.9587,568.375 C2085.7587,582.6 2067.8687,599.962 2047.6687,608.34 C2026.9187,616.945 1868.0087,613.956 1845.6687,616.34 C1617.4587,640.697 1342.7887,700.816 1284.7587,713.83 " fill="none" id="lavaworker4-to-http" style="stroke:#181818;stroke-width:1.0;"/><polygon fill="#181818" points="1279.8287,714.939,1289.4881,716.8615,1284.7063,713.8392,1287.7285,709.0574,1279.8287,714.939" style="stroke:#181818;stroke-width:1.0;"/></g><!--MD5=[c961c330c4efb9856ddc4b68b51b7081]
@startuml
card info [
  Overall view of Oniroproject development infrastructure
]

actor Developer
actor Contributor


cloud extranet as "Cloud" {
  component gitlab [
    Eclipse Foundation Gitlab
  ]
  component lava [
    lava server
  ]
  gitlab- ->lava
cloud infservc as "Infrastructure services" {

  node loki as "Grafana/loki server"
}
}

Developer->gitlab
Contributor->gitlab

Developer->lava
Contributor->lava



cloud localnet as "lab network" {


cloud DUT1 {
  database storage [
      USB SSD
  ] 

  node pi4_1 as "Raspberry Pi 4B" {
    component lavaworker1 as "Lava worker" {
    }
  }

  node nitrogen3_1 as "Nitrogen"
  node nitrogen3_2 as "Nitrogen"
  lavaworker1- ->nitrogen3_1 : USB
  lavaworker1- ->nitrogen3_2 : USB
  storage<->pi4_1 : USB 3
}


cloud DUT3 {
  database storage3 [
      USB SSD
  ]
  node pi4_3 as "Raspberry Pi 4B" {
    component lavaworker3 as "Lava worker" {
    }
  }
  node b68 as "SECO B68"
  lavaworker3- ->b68
  node c61 as "SECO C61"
  lavaworker3- ->c61
  storage3<->pi4_3 : USB 3
}

cloud DUT4 {
  database storage4 [
      USB SSD
  ]
  node pi4_4 as "Raspberry Pi 4B" {
    component lavaworker4 as "Lava worker" {
    }
  }


  node arduino [
    Arduino nano 33 BLE
  ]

  storage4<->pi4_4 : USB 3
  lavaworker4<- ->arduino
}


cloud DUT2 {
  database storage2 [
      USB SSD
  ]

  node pi4_2 as "Raspberry Pi 4B" {
    component lavaworker2 as "Lava worker"{
    }
  }
  node pi4_5 as "DUT: Raspberry Pi 4B" {
  }
  database storage5 [
      USB SSD
  ] 
  database storage5_1 [
      MicroSD
  ]
  lavaworker2- ->pi4_5
  pi4_5->storage5 : "Oniro system"
  pi4_5->storage5_1 : "primary system"
  storage2<->pi4_2 : USB 3




}

lava- ->lavaworker1
lava- ->lavaworker2
lava- ->lavaworker3
lava- ->lavaworker4

cloud infserv as "Infrastructure services" {
  node docker as "Docker compose" {
  component traefik as "Traefik load balancer"
  component dhcp as "DHCP server"
  component ntp as "NTP server"
  component dns as "DNS server"
  component kisscache as "KissCache server"
  component artifacts as "Lava artifacts server"
  port http
  }
http->traefik
traefik- ->kisscache
traefik- ->artifacts

lavaworker1-d->http
lavaworker2-d->http
lavaworker3-d->http
lavaworker4-d->http
}
@enduml

PlantUML version 1.2022.6beta4(Unknown compile time)
(GPL source distribution)
Java Runtime: Java(TM) SE Runtime Environment
JVM: Java HotSpot(TM) 64-Bit Server VM
Default Encoding: UTF-8
Language: en
Country: US
--></g></svg>