<?xml version="1.0" encoding="UTF-8" standalone="no"?><svg xmlns="http://www.w3.org/2000/svg" xmlns:xlink="http://www.w3.org/1999/xlink" contentStyleType="text/css" height="403px" preserveAspectRatio="none" style="width:831px;height:403px;background:#FFFFFF;" version="1.1" viewBox="0 0 831 403" width="831px" zoomAndPan="magnify"><defs><linearGradient id="g19zphocwrbrxi0" x1="50%" x2="50%" y1="0%" y2="100%"><stop offset="0%" stop-color="#00FFFF"/><stop offset="100%" stop-color="#5F9EA0"/></linearGradient><linearGradient id="g19zphocwrbrxi1" x1="0%" x2="100%" y1="0%" y2="100%"><stop offset="0%" stop-color="#FF0000"/><stop offset="100%" stop-color="#FFFF00"/></linearGradient></defs><g><rect fill="url(#g19zphocwrbrxi0)" height="26.2969" rx="7.5" ry="7.5" style="stroke:#FF0000;stroke-width:1.0;" width="351" x="233.2344" y="5"/><text fill="#000000" font-family="sans-serif" font-size="14" font-weight="bold" lengthAdjust="spacing" textLength="341" x="238.2344" y="22.9951">PDU Intellinet based power control of PDU</text><!--MD5=[9ba779de388c8d4e0d66e3a8d8cd1071]
cluster localnet--><g id="cluster_localnet"><path d="M51.4397,90.5545 C66.7259,62.3124 88.0903,66.2298 106.0145,87.6559 C122.7648,60.3467 145.3366,56.8325 162.2531,87.4946 C177.5866,64.2837 201.8181,66.4452 211.9787,92.6952 C226.9496,66.8025 248.0351,69.1399 265.5367,89.7827 C276.2311,66.5655 296.8462,65.5063 312.6381,84.0306 C328.8746,58.3846 351.4794,59.9112 367.0461,84.7523 C381.5698,60.1987 403.5859,57.8782 420.1838,82.5116 C435.1814,66.0457 457.0669,69.0906 464.8579,90.9189 C476.4485,60.248 502.584,61.3433 519.4007,85.7428 C537.0177,65.2593 554.366,68.0326 567.122,91.0727 C584.1394,64.8559 601.093,62.5591 618.9426,90.2729 C633.9703,61.6473 659.967,63.8712 672.3204,92.755 C687.8612,62.3204 705.7139,65.6113 727.2962,86.2522 C743.3259,64.6217 768.5527,62.2709 779.0269,91.8628 C781.666,89.3379 784.8981,89.6098 785.8426,93.628 C821.6719,109.9889 821.8797,140.0755 790.7247,161.271 C816.2244,177.6601 816.8386,208.0215 791.0215,224.6509 C821.1111,243.0634 824.4689,273.3916 791.6363,292.3753 C821.8904,324.7049 811.6862,348.5509 772.0269,360.8628 C777.042,362.1813 778.0458,364.7044 774.855,368.9076 C755.611,396.7534 739.1609,396.398 722.2459,366.7756 C707.0766,389.6778 688.1924,393.8432 672.2821,367.5278 C655.0832,388.9756 635.3093,385.6789 621.1252,363.9554 C608.5398,390.432 590.4923,389.2105 572.0621,370.2692 C553.5065,391.9087 534.8033,391.3023 518.9277,367.1588 C503.6384,390.4002 476.1725,388.8066 463.6588,363.9682 C449.2928,384.0987 435.8464,386.1645 418.9301,366.861 C404.6952,396.0851 382.7078,393.4551 365.8885,369.4356 C347.6729,390.7855 329.7771,389.6511 316.7764,363.9878 C299.9804,386.3323 275.1483,389.4851 259.8837,362.231 C245.0103,386.7162 227.7841,388.7372 207.9953,367.8526 C190.9687,390.9642 171.7352,387.2875 159.9696,362.5699 C146.8245,386.5437 121.6279,390.1067 107.6987,363.3783 C86.0445,393.6735 55.6353,385.0465 43.0269,353.8628 C46.4066,353.8857 47.9311,356.0849 46.8249,359.2629 C14.8081,340.0745 11.6704,310.3575 45.4,289.82 C16.7282,278.9912 6,254.5805 32.9963,231.8421 C7.1342,207.3545 6.4403,174.1183 44.7698,160.1762 C10.9363,131.3441 10.2248,108.5549 50.0269,84.8628 C53.3955,85.767 54.0225,88.1731 51.4397,90.5545 " style="stroke:#181818;stroke-width:1.0;fill:none;"/><text fill="#000000" font-family="sans-serif" font-size="14" font-weight="bold" lengthAdjust="spacing" textLength="96" x="363.0269" y="102.8579">lab network</text></g><!--MD5=[ba488c30fdfb4338c05fdc3f321c7f02]
cluster DUT2--><g id="cluster_DUT2"><path d="M392.8427,132.191 C400.5316,118.4646 408.5024,120.1039 417.8853,130.427 C424.4538,115.3737 437.9948,115.4097 447.6937,126.9134 C453.0815,113.021 464.4431,111.96 472.3183,124.6053 C479.3686,113.0905 489.8289,113.5104 496.3289,125.1753 C500.5624,111.9882 511.9943,107.9088 521.3177,120.179 C528.1501,106.5215 539.9196,105.0862 548.6456,118.2497 C555.8005,107.8627 563.3848,105.1068 571.9937,116.7057 C580.7802,105.0677 592.8173,107.0927 596.751,121.3459 C603.598,110.1882 615.8045,106.2518 623.3674,120.5987 C633.2737,109.5654 641.7235,107.2607 650.3566,121.9353 C657.871,112.3334 670.2393,111.4433 674.8402,125.0138 C683.3205,114.3356 694.3943,114.8411 700.1393,127.9259 C710.7666,115.8584 718.7016,117.8701 726.9474,130.5099 C736.8067,119.8839 749.1986,119.4864 755.0269,134.8628 C757.5144,134.9149 758.6165,136.0957 757.9683,138.6096 C767.8889,144.7434 767.9607,155.0565 758.8487,161.9095 C772.9135,168.3711 774.4853,178.1531 761.7453,187.6329 C774.4158,191.4735 774.1017,202.5978 764.7028,209.4325 C777.5175,217.7716 778.014,225.4937 765.6047,234.732 C779.3365,243.7067 776.2022,253.7529 763.7075,260.8203 C771.7063,267.1501 771.5262,277.7164 761.3018,281.9736 C773.8646,288.8156 771.9132,301.2569 760.2858,307.1216 C771.4966,321.293 765.9248,334.6896 748.0269,336.8628 C750.0655,335.3326 751.8337,335.9172 752.3994,338.4485 C747.0428,353.4795 733.2412,353.7224 724.9427,341.4016 C717.5607,350.0405 706.7128,351.6825 701.6552,338.8773 C693.4353,353.3304 685.4457,353.0696 675.4974,340.5537 C670.0557,353.327 658.7361,355.4523 649.7009,344.4533 C640.3665,355.1504 629.904,356.3542 622.4613,342.3659 C616.7416,352.9935 605.4299,354.8749 599.1671,342.9262 C593.0136,356.1073 580.4063,357.8563 572.2773,344.9636 C564.6321,356.5125 553.5214,354.1321 547.4725,343.202 C540.0348,354.9955 532.163,356.6692 523.7561,344.1472 C516.1671,356.0811 503.0583,355.0082 496.5373,342.9362 C489.5268,354.8213 478.7467,355.9985 471.3925,343.2876 C463.4189,353.9772 452.7319,352.3296 446.0756,341.7216 C435.4106,353.1703 426.74,353.2649 417.7926,339.7738 C403.0484,352.5633 390.6219,347.3203 385.0269,329.8628 C386.1086,329.4173 386.6431,329.7959 386.7613,330.9245 C376.995,324.0649 376.4983,313.1819 387.1331,306.6347 C373.2462,299.0222 375.6539,290.028 385.872,281.2195 C376.9429,275.2564 374.1339,264.5191 386.3427,259.0039 C376.1057,251.2513 378.8958,242.8808 388.4257,236.9995 C376.1141,228.6198 372.8492,219.6417 387.0664,209.9298 C375.3608,201.2902 377.988,191.2768 388.9825,184.3366 C377.1136,177.4241 373.8117,169.6561 386.1533,159.9363 C370.7762,148.0929 374.2795,133.6401 392.0269,127.8628 C394.2341,128.6804 394.6685,130.6132 392.8427,132.191 " style="stroke:#181818;stroke-width:1.0;fill:none;"/><text fill="#000000" font-family="sans-serif" font-size="14" font-weight="bold" lengthAdjust="spacing" textLength="43" x="548.5269" y="145.8579">DUT2</text></g><!--MD5=[bc33b001d8d0906d533ac6d1e2e5f35f]
cluster pi4_1--><g id="cluster_pi4_1"><polygon points="527.0269,180.8628,537.0269,170.8628,731.0269,170.8628,731.0269,302.8628,721.0269,312.8628,527.0269,312.8628,527.0269,180.8628" style="stroke:#181818;stroke-width:1.0;fill:none;"/><line style="stroke:#181818;stroke-width:1.0;fill:none;" x1="721.0269" x2="731.0269" y1="180.8628" y2="170.8628"/><line style="stroke:#181818;stroke-width:1.0;fill:none;" x1="527.0269" x2="721.0269" y1="180.8628" y2="180.8628"/><line style="stroke:#181818;stroke-width:1.0;fill:none;" x1="721.0269" x2="721.0269" y1="180.8628" y2="312.8628"/><text fill="#000000" font-family="sans-serif" font-size="14" font-weight="bold" lengthAdjust="spacing" textLength="128" x="561.0269" y="196.8579">Raspberry Pi 4B</text></g><!--MD5=[3a32e5369a3e8c887f47b05999a2fe23]
entity pdu--><g id="elem_pdu"><polygon fill="url(#g19zphocwrbrxi1)" points="51.5269,252.8628,61.5269,242.8628,190.5269,242.8628,190.5269,279.1597,180.5269,289.1597,51.5269,289.1597,51.5269,252.8628" style="stroke:#181818;stroke-width:0.5;"/><line style="stroke:#181818;stroke-width:0.5;" x1="180.5269" x2="190.5269" y1="252.8628" y2="242.8628"/><line style="stroke:#181818;stroke-width:0.5;" x1="51.5269" x2="180.5269" y1="252.8628" y2="252.8628"/><line style="stroke:#181818;stroke-width:0.5;" x1="180.5269" x2="180.5269" y1="252.8628" y2="289.1597"/><text fill="#000000" font-family="sans-serif" font-size="14" lengthAdjust="spacing" textLength="99" x="66.5269" y="275.8579">PDU Intellinet</text></g><!--MD5=[b824e754466c27071acfcf496db43be5]
entity psu--><g id="elem_psu"><polygon fill="#F1F1F1" points="264.5269,252.8628,274.5269,242.8628,331.5269,242.8628,331.5269,279.1597,321.5269,289.1597,264.5269,289.1597,264.5269,252.8628" style="stroke:#181818;stroke-width:0.5;"/><line style="stroke:#181818;stroke-width:0.5;" x1="321.5269" x2="331.5269" y1="252.8628" y2="242.8628"/><line style="stroke:#181818;stroke-width:0.5;" x1="264.5269" x2="321.5269" y1="252.8628" y2="252.8628"/><line style="stroke:#181818;stroke-width:0.5;" x1="321.5269" x2="321.5269" y1="252.8628" y2="289.1597"/><text fill="#000000" font-family="sans-serif" font-size="14" lengthAdjust="spacing" textLength="27" x="279.5269" y="275.8579">PSU</text></g><!--MD5=[94dbd72224ac95a39a190280aedcd023]
entity b68--><g id="elem_b68"><polygon fill="#F1F1F1" points="393.0269,252.8628,403.0269,242.8628,503.0269,242.8628,503.0269,279.1597,493.0269,289.1597,393.0269,289.1597,393.0269,252.8628" style="stroke:#181818;stroke-width:0.5;"/><line style="stroke:#181818;stroke-width:0.5;" x1="493.0269" x2="503.0269" y1="252.8628" y2="242.8628"/><line style="stroke:#181818;stroke-width:0.5;" x1="393.0269" x2="493.0269" y1="252.8628" y2="252.8628"/><line style="stroke:#181818;stroke-width:0.5;" x1="493.0269" x2="493.0269" y1="252.8628" y2="289.1597"/><text fill="#000000" font-family="sans-serif" font-size="14" lengthAdjust="spacing" textLength="70" x="408.0269" y="275.8579">SECO B68</text></g><!--MD5=[0fa1bcb1596fdf58d4771b3f3d14f995]
entity lavaworker1--><g id="elem_lavaworker1"><rect fill="#F1F1F1" height="46.2969" rx="2.5" ry="2.5" style="stroke:#181818;stroke-width:0.5;" width="126" x="577.0269" y="242.8628"/><rect fill="#F1F1F1" height="10" style="stroke:#181818;stroke-width:0.5;" width="15" x="683.0269" y="247.8628"/><rect fill="#F1F1F1" height="2" style="stroke:#181818;stroke-width:0.5;" width="4" x="681.0269" y="249.8628"/><rect fill="#F1F1F1" height="2" style="stroke:#181818;stroke-width:0.5;" width="4" x="681.0269" y="253.8628"/><text fill="#000000" font-family="sans-serif" font-size="14" lengthAdjust="spacing" textLength="86" x="592.0269" y="275.8579">Lava worker</text></g><!--MD5=[03862459762a18eb309d22c65b6cb09b]
link pi4_1 to pdu--><g id="link_pi4_1_pdu"><path d="M559.4936,170.2644 C559.5089,169.6822 559.5215,169.0999 559.5314,168.5174 C559.6883,159.1983 559.1272,149.8555 557.5691,140.817 C554.453,122.7401 547.3491,105.8805 534.0269,92.8628 C488.4109,48.2898 303.8699,63.9418 247.0269,92.8628 C184.6029,124.6238 145.7929,203.4088 129.6669,242.7478 " fill="none" id="pi4_1-pdu" style="stroke:#181818;stroke-width:1.0;stroke-dasharray:7.0,7.0;"/><text fill="#000000" font-family="sans-serif" font-size="13" lengthAdjust="spacing" textLength="33" x="347.5269" y="56.9297">HTTP</text></g><!--MD5=[a0b03b0a1b19afac349a3ae3355c68ad]
link b68 to pi4_1--><g id="link_b68_pi4_1"><path d="M508.3079,265.8628 C513.1704,265.8628 518.0329,265.8628 522.8954,265.8628 C524.111,265.8628 525.3266,265.8628 526.5423,265.8628 C526.6942,265.8628 526.8462,265.8628 526.9981,265.8628 " fill="none" id="b68-pi4_1" style="stroke:#181818;stroke-width:1.0;"/><polygon fill="#181818" points="526.9981,265.8628,517.9981,261.8628,521.9981,265.8628,517.9981,269.8628,526.9981,265.8628" style="stroke:#181818;stroke-width:1.0;"/><polygon fill="#181818" points="503.2219,265.8628,512.2219,269.8628,508.2219,265.8628,512.2219,261.8628,503.2219,265.8628" style="stroke:#181818;stroke-width:1.0;"/></g><!--MD5=[dc6dc3e29c67057775e00f5b58f163ed]
link pdu to psu--><g id="link_pdu_psu"><path d="M190.7279,265.8628 C216.0739,265.8628 243.5769,265.8628 264.3919,265.8628 " fill="none" id="pdu-psu" style="stroke:#181818;stroke-width:1.0;"/><text fill="#000000" font-family="sans-serif" font-size="13" lengthAdjust="spacing" textLength="37" x="209.0269" y="258.9297">outlet</text></g><!--MD5=[c20184b86c1d65c981e50841c7ae57a4]
link psu to b68--><g id="link_psu_b68"><path d="M331.6899,265.8628 C349.7429,265.8628 372.4419,265.8628 392.9869,265.8628 " fill="none" id="psu-b68" style="stroke:#181818;stroke-width:1.0;"/><text fill="#000000" font-family="sans-serif" font-size="13" lengthAdjust="spacing" textLength="25" x="349.7769" y="258.9297">19V</text></g><!--MD5=[194af71bae4810e830c74682ed303c5c]
@startuml
skinparam titleBorderRoundCorner 15
skinparam titleBorderThickness 1
skinparam titleBorderColor red
skinparam titleBackgroundColor Aqua-CadetBlue
title PDU Intellinet based power control of PDU


cloud localnet as "lab network" {

node pdu as "PDU Intellinet" #Red/Yellow
node psu as "PSU"

cloud DUT2 {

  node pi4_1 as "Raspberry Pi 4B" {
    component lavaworker1 as "Lava worker" {
    }
  }

  node b68 as "SECO B68"


}
pi4_1.pdu : HTTP
b68<->pi4_1
pdu-psu: outlet
psu-b68: 19V
}
@enduml

PlantUML version 1.2022.6beta4(Unknown compile time)
(GPL source distribution)
Java Runtime: Java(TM) SE Runtime Environment
JVM: Java HotSpot(TM) 64-Bit Server VM
Default Encoding: UTF-8
Language: en
Country: US
--></g></svg>