<?xml version="1.0" encoding="UTF-8" standalone="no"?><svg xmlns="http://www.w3.org/2000/svg" xmlns:xlink="http://www.w3.org/1999/xlink" contentStyleType="text/css" height="462px" preserveAspectRatio="none" style="width:714px;height:462px;background:#FFFFFF;" version="1.1" viewBox="0 0 714 462" width="714px" zoomAndPan="magnify"><defs><linearGradient id="g1ak321l1tnb500" x1="50%" x2="50%" y1="0%" y2="100%"><stop offset="0%" stop-color="#00FFFF"/><stop offset="100%" stop-color="#5F9EA0"/></linearGradient><linearGradient id="g1ak321l1tnb501" x1="0%" x2="100%" y1="0%" y2="100%"><stop offset="0%" stop-color="#FF0000"/><stop offset="100%" stop-color="#FFFF00"/></linearGradient></defs><g><rect fill="url(#g1ak321l1tnb500)" height="26.2969" rx="7.5" ry="7.5" style="stroke:#FF0000;stroke-width:1.0;" width="351" x="174.8974" y="5"/><text fill="#000000" font-family="sans-serif" font-size="14" font-weight="bold" lengthAdjust="spacing" textLength="341" x="179.8974" y="22.9951">PDU Intellinet based power control of PDU</text><!--MD5=[9ba779de388c8d4e0d66e3a8d8cd1071]
cluster localnet--><g id="cluster_localnet"><path d="M55.2176,74.0728 C64.814,48.2285 83.9237,46.5676 100.577,67.183 C113.763,48.223 129.9446,47.7845 141.6428,68.7146 C153.8996,46.5368 170.285,49.5114 182.704,68.5531 C197.0176,50.4208 214.7126,52.2992 225.8886,72.1229 C240.6666,45.8456 256.4262,48.6275 273.1626,70.1877 C287.8455,46.1703 306.7091,49.2576 318.8213,72.6628 C329.9469,51.8014 344.2186,46.9934 360.1692,67.8846 C374.9027,46.8519 394.2059,45.31 405.9718,70.8059 C418.9551,49.0704 438.1085,50.1916 449.2141,72.6435 C459.5866,47.0514 480.6232,49.3755 494.2045,69.4846 C505.1162,48.2813 527.8182,43.2969 541.7882,66.1841 C554.4458,45.6001 571.4915,51.1068 581.4031,69.0105 C597.507,49.5238 613.7756,50.5471 627.2183,71.9893 C644.1475,49.0487 660.2982,52.3713 675.5432,73.8227 C676.6481,73.4311 677.25,73.7618 677.276,74.9824 C695.8215,86.6751 700.278,102.6798 681.0086,117.6783 C701.8747,129.1438 707.6689,147.6289 684.4923,162.5163 C702.4504,173.9624 707.7949,196.3491 684.2069,207.5317 C704.9976,221.3079 699.6394,236.6269 681.2286,247.4806 C700.5735,259.5763 698.1346,277.5599 680.2038,288.7295 C700.2236,303.9401 704.723,320.9689 679.1246,335.1183 C698.9274,347.8206 694.6516,359.2721 679.019,371.8726 C700.8689,392.0528 692.2947,409.6052 668.5432,419.8227 C670.5883,417.2014 673.612,417.7503 675.0303,420.5701 C664.5862,448.6955 643.4137,446.6094 625.8145,428.1252 C613.4817,444.679 600.5596,446.8283 588.0039,428.3659 C570.6058,449.8265 556.0271,446.0288 541.8508,424.8765 C528.5614,451.2896 509.3046,452.7845 493.0907,427.6425 C477.1546,443.7029 463.7145,449.186 450.4741,424.802 C439.6298,446.5128 418.0033,449.4835 405.3694,426.6127 C397.1724,444.6635 377.9432,450.9075 365.0082,431.7525 C348.4869,449.852 332.039,455.0165 318.3149,428.805 C304.3981,450.2119 290.262,450.755 276.0214,429.1232 C260.7629,450.4625 241.311,455.0201 225.8149,429.3772 C210.5389,447.4513 196.5264,446.3453 184.0824,426.2785 C172.1083,447.3043 155.4576,447.6832 142.9146,426.8378 C128.4616,446.796 109.7681,444.9374 97.5611,424.3269 C75.6513,451.5405 51.0949,445.7841 41.5432,412.8227 C43.2148,411.2127 44.5036,411.5213 45.2822,413.7033 C22.6008,400.9596 24.7839,386.3053 43.8729,372.1451 C24.7896,364.3181 21.2331,345.0685 39.5377,333.0913 C19.9526,318.3589 20.2661,302.5075 39.0709,287.383 C19.3596,278.5292 14.5012,265.0959 30.4471,248.3618 C6,234.4735 10.6042,213.2449 32.9086,201.8297 C18.3691,185.5006 16.0905,168.2305 41.5542,160.2114 C20.897,148.0472 25.9626,129.6828 43.4706,119.3066 C17.0256,99.935 20.1802,80.8971 48.5432,66.8227 C54.0576,65.449 57.1483,68.5925 55.2176,74.0728 " style="stroke:#181818;stroke-width:1.0;fill:none;"/><text fill="#000000" font-family="sans-serif" font-size="14" font-weight="bold" lengthAdjust="spacing" textLength="96" x="310.5432" y="84.8178">lab network</text></g><!--MD5=[ba488c30fdfb4338c05fdc3f321c7f02]
cluster DUT2--><g id="cluster_DUT2"><path d="M79.9716,212.127 C94.6203,196.6317 107.4659,196.3383 117.5555,216.8815 C128.4365,198.6399 147.382,199.1249 158.3116,216.8265 C170.3624,199.5168 184.3175,197.9027 197.9123,215.0521 C210.0452,193.4864 227.2007,189.666 243.0558,211.1488 C257.6556,192.5436 272.2938,195.9086 284.2945,214.0645 C295.5797,193.2528 312.3997,193.4932 322.9878,214.7062 C331.3244,196.2128 347.9656,196.3088 358.7966,212.1009 C373.8328,189.3823 390.0327,188.146 404.7363,212.426 C416.7111,190.4108 431.3269,189.1672 445.6857,210.1559 C459.3037,193.9566 476.8939,195.1518 487.2553,214.0167 C497.1644,194.9903 511.9867,193.8379 523.5972,212.3704 C539.6425,191.9719 554.3674,188.7489 570.1738,212.6217 C580.8619,197.0393 595.6137,198.1808 604.0189,215.0058 C617.3538,191.6936 641.0705,192.8453 651.5432,217.8227 C655.6597,216.6547 657.2978,218.5175 657.3472,222.4504 C678.471,236.9641 676.3912,252.9905 655.3732,265.5752 C674.83,276.7395 674.4946,295.4015 657.0502,308.0236 C677.9066,321.1832 681.6197,335.1795 659.6918,350.9706 C679.8646,372.4584 668.134,389.116 644.5432,395.8227 C649.0439,394.602 651.7923,397.2081 650.1734,401.7755 C638.8901,423.5023 619.2047,425.4621 605.0637,404.818 C592.8557,424.9807 575.5695,418.7279 565.7453,402.2594 C554.3854,419.2147 536.3133,418.9137 525.6835,401.4106 C517.7793,424.5249 499.2094,425.5598 484.1957,408.8095 C471.5952,427.6665 455.4889,429.2047 441.4847,410.4014 C430.9392,425.8383 417.4612,431.4444 404.9609,412.4766 C390.4378,433.1604 373.6212,430.5366 361.1751,410.2565 C350.7159,432.8974 333.3212,433.8428 320.6824,412.2518 C307.7492,430.8982 288.0493,429.7383 277.587,409.5125 C265.2594,427.2478 244.6611,428.3701 236.5664,405.2614 C225.0193,426.1271 206.8338,423.5896 196.6378,403.9301 C185.017,424.7506 171.5026,421.3727 158.9302,404.892 C144.946,423.7655 131.3442,424.0143 117.5822,404.6517 C95.7624,426.1977 71.652,418.9278 65.5432,388.8227 C70.6159,387.8534 74.042,389.8025 72.7531,395.6005 C47.8615,388.6847 46.0735,368.8669 63.7172,352.9414 C37.5893,343.2652 34.625,328.2733 55.2828,309.511 C39.2365,291.0217 41.537,276.6695 62.3928,263.9374 C41.5264,242.6224 42.2721,222.3652 72.5432,210.8227 C75.5036,207.2712 78.2503,208.6215 79.9716,212.127 " style="stroke:#181818;stroke-width:1.0;fill:none;"/><text fill="#000000" font-family="sans-serif" font-size="14" font-weight="bold" lengthAdjust="spacing" textLength="43" x="337.0432" y="228.8178">DUT2</text></g><!--MD5=[c2b6ee0f47fae671b4df2eb4fd0b462f]
cluster pi4_2--><g id="cluster_pi4_2"><polygon points="333.5432,263.8227,343.5432,253.8227,627.5432,253.8227,627.5432,361.8227,617.5432,371.8227,333.5432,371.8227,333.5432,263.8227" style="stroke:#181818;stroke-width:1.0;fill:none;"/><line style="stroke:#181818;stroke-width:1.0;fill:none;" x1="617.5432" x2="627.5432" y1="263.8227" y2="253.8227"/><line style="stroke:#181818;stroke-width:1.0;fill:none;" x1="333.5432" x2="617.5432" y1="263.8227" y2="263.8227"/><line style="stroke:#181818;stroke-width:1.0;fill:none;" x1="617.5432" x2="617.5432" y1="263.8227" y2="371.8227"/><text fill="#000000" font-family="sans-serif" font-size="14" font-weight="bold" lengthAdjust="spacing" textLength="218" x="367.5432" y="279.8178">Raspberry Pi 4B under test</text></g><!--MD5=[f9805e0257e74d1aaa744b870c03d59d]
cluster pi4_5--><g id="cluster_pi4_5"><polygon points="89.5432,263.8227,99.5432,253.8227,293.5432,253.8227,293.5432,361.8227,283.5432,371.8227,89.5432,371.8227,89.5432,263.8227" style="stroke:#181818;stroke-width:1.0;fill:none;"/><line style="stroke:#181818;stroke-width:1.0;fill:none;" x1="283.5432" x2="293.5432" y1="263.8227" y2="253.8227"/><line style="stroke:#181818;stroke-width:1.0;fill:none;" x1="89.5432" x2="283.5432" y1="263.8227" y2="263.8227"/><line style="stroke:#181818;stroke-width:1.0;fill:none;" x1="283.5432" x2="283.5432" y1="263.8227" y2="371.8227"/><text fill="#000000" font-family="sans-serif" font-size="14" font-weight="bold" lengthAdjust="spacing" textLength="128" x="123.5432" y="279.8178">Raspberry Pi 4B</text></g><!--MD5=[99a56ce454fafaea26be98b45cbe9e5c]
entity poes--><g id="elem_poes"><polygon fill="url(#g1ak321l1tnb501)" points="167.0432,103.8227,177.0432,93.8227,284.0432,93.8227,284.0432,130.1195,274.0432,140.1195,167.0432,140.1195,167.0432,103.8227" style="stroke:#181818;stroke-width:0.5;"/><line style="stroke:#181818;stroke-width:0.5;" x1="274.0432" x2="284.0432" y1="103.8227" y2="93.8227"/><line style="stroke:#181818;stroke-width:0.5;" x1="167.0432" x2="274.0432" y1="103.8227" y2="103.8227"/><line style="stroke:#181818;stroke-width:0.5;" x1="274.0432" x2="274.0432" y1="103.8227" y2="140.1195"/><text fill="#000000" font-family="sans-serif" font-size="14" lengthAdjust="spacing" textLength="77" x="182.0432" y="126.8178">PoE switch</text></g><!--MD5=[0fa1bcb1596fdf58d4771b3f3d14f995]
entity lavaworker1--><g id="elem_lavaworker1"><rect fill="#F1F1F1" height="46.2969" rx="2.5" ry="2.5" style="stroke:#181818;stroke-width:0.5;" width="126" x="426.5432" y="301.8227"/><rect fill="#F1F1F1" height="10" style="stroke:#181818;stroke-width:0.5;" width="15" x="532.5432" y="306.8227"/><rect fill="#F1F1F1" height="2" style="stroke:#181818;stroke-width:0.5;" width="4" x="530.5432" y="308.8227"/><rect fill="#F1F1F1" height="2" style="stroke:#181818;stroke-width:0.5;" width="4" x="530.5432" y="312.8227"/><text fill="#000000" font-family="sans-serif" font-size="14" lengthAdjust="spacing" textLength="86" x="441.5432" y="334.8178">Lava worker</text></g><!--MD5=[c11ea0451ce09f462c3ecc129ce4d6a7]
entity oniro--><g id="elem_oniro"><rect fill="#F1F1F1" height="46.2969" rx="2.5" ry="2.5" style="stroke:#181818;stroke-width:0.5;" width="79" x="190.0432" y="301.8227"/><rect fill="#F1F1F1" height="10" style="stroke:#181818;stroke-width:0.5;" width="15" x="249.0432" y="306.8227"/><rect fill="#F1F1F1" height="2" style="stroke:#181818;stroke-width:0.5;" width="4" x="247.0432" y="308.8227"/><rect fill="#F1F1F1" height="2" style="stroke:#181818;stroke-width:0.5;" width="4" x="247.0432" y="312.8227"/><text fill="#000000" font-family="sans-serif" font-size="14" lengthAdjust="spacing" textLength="39" x="205.0432" y="334.8178">Oniro</text></g><!--MD5=[4044d22f0d5c8492a6470fa9c69efd2d]
link poes to pi4_2--><g id="link_poes_pi4_2"><path d="M245.2572,139.9827 C257.8172,154.8127 273.8642,175.1497 285.5432,194.8227 C301.2472,221.2752 315.0584,252.9387 325.0358,278.2754 C327.5301,284.6096 329.7849,290.5484 331.7696,295.9114 C332.2658,297.2522 332.7452,298.557 333.2071,299.823 C333.2649,299.9812 333.3224,300.1389 333.3796,300.2959 " fill="none" id="poes-to-pi4_2" style="stroke:#181818;stroke-width:1.0;"/><polygon fill="#181818" points="333.3796,300.2959,334.0574,290.4704,331.6682,295.5979,326.5406,293.2087,333.3796,300.2959" style="stroke:#181818;stroke-width:1.0;"/><text fill="#000000" font-family="sans-serif" font-size="13" lengthAdjust="spacing" textLength="55" x="280.5432" y="182.8896">Ethernet</text></g><!--MD5=[91ab722a66702df3cc9a00c5d551c8a3]
link pi4_5 to poes--><g id="link_pi4_5_poes"><path d="M159.0792,253.8061 C159.1107,253.5864 159.1423,253.3666 159.1742,253.1465 C159.4295,251.3864 159.6985,249.6153 159.9819,247.8362 C160.5487,244.2778 161.1733,240.6871 161.8616,237.0863 C164.6144,222.683 168.3847,208.1187 173.5432,194.8227 C180.6292,176.5597 192.6932,158.2967 203.4182,144.1437 " fill="none" id="pi4_5-to-poes" style="stroke:#181818;stroke-width:1.0;stroke-dasharray:7.0,7.0;"/><polygon fill="#181818" points="206.6972,139.8877,198.0362,144.5767,203.646,143.8488,204.3739,149.4586,206.6972,139.8877" style="stroke:#181818;stroke-width:1.0;"/><text fill="#000000" font-family="sans-serif" font-size="13" lengthAdjust="spacing" textLength="56" x="186.5432" y="182.8896">HTTP/CLI</text></g><!--MD5=[d1a5cc75a981a366aaf43a3de882292d]
@startuml
skinparam titleBorderRoundCorner 15
skinparam titleBorderThickness 1
skinparam titleBorderColor red
skinparam titleBackgroundColor Aqua-CadetBlue
title PDU Intellinet based power control of PDU



cloud localnet as "lab network" {

node poes as "PoE switch"#Red/Yellow



cloud DUT2 {

  node pi4_2 as "Raspberry Pi 4B under test" {
    component lavaworker1 as "Lava worker" {
    }
  }

  node pi4_5 as "Raspberry Pi 4B" {
    component oniro as "Oniro" {
    }
  }

}
poes- ->pi4_2 : Ethernet
pi4_5.>poes : HTTP/CLI
}
@enduml

PlantUML version 1.2022.6beta4(Unknown compile time)
(GPL source distribution)
Java Runtime: Java(TM) SE Runtime Environment
JVM: Java HotSpot(TM) 64-Bit Server VM
Default Encoding: UTF-8
Language: en
Country: US
--></g></svg>