<?xml version="1.0" encoding="UTF-8" standalone="no"?><svg xmlns="http://www.w3.org/2000/svg" xmlns:xlink="http://www.w3.org/1999/xlink" contentStyleType="text/css" height="677px" preserveAspectRatio="none" style="width:438px;height:677px;background:#FFFFFF;" version="1.1" viewBox="0 0 438 677" width="438px" zoomAndPan="magnify"><defs><linearGradient id="gdhx4z7fxsba00" x1="50%" x2="50%" y1="0%" y2="100%"><stop offset="0%" stop-color="#00FFFF"/><stop offset="100%" stop-color="#5F9EA0"/></linearGradient><linearGradient id="gdhx4z7fxsba01" x1="0%" x2="100%" y1="0%" y2="100%"><stop offset="0%" stop-color="#FF0000"/><stop offset="100%" stop-color="#FFFF00"/></linearGradient></defs><g><rect fill="url(#gdhx4z7fxsba00)" height="26.2969" rx="7.5" ry="7.5" style="stroke:#FF0000;stroke-width:1.0;" width="288" x="68.3226" y="5"/><text fill="#000000" font-family="sans-serif" font-size="14" font-weight="bold" lengthAdjust="spacing" textLength="278" x="73.3226" y="22.9951">Ykush based power control of PDU</text><!--MD5=[9ba779de388c8d4e0d66e3a8d8cd1071]
cluster localnet--><g id="cluster_localnet"><path d="M41.7296,73.6039 C50.4766,55.8491 66.8242,50.3766 81.1482,67.2565 C95.6309,44.6128 115.4343,47.0227 129.9487,67.2204 C143.2569,47.7699 156.9187,47.9156 169.0101,68.4103 C182.5607,43.2969 205.3198,46.0644 218.062,69.2315 C231.8704,47.468 249.4268,47.6203 263.9098,68.5061 C280.2124,48.041 292.0584,54.1255 304.5379,72.5048 C318.6793,47.148 339.6359,47.2477 352.4582,73.7244 C367.3081,50.429 383.2515,52.353 396.5295,75.2249 C400.9867,76.2727 400.7692,78.703 398.81,81.9323 C418.533,90.314 420.9005,105.4279 404.1937,119.0881 C424.1042,128.5755 420.1835,146.2001 405.1588,156.5866 C423.0088,170.965 419.7864,185.2764 401.3981,196.2158 C422.8235,209.2776 426.3759,222.807 405.8226,240.1011 C424,248.7656 423.0109,263.0828 407.8712,273.7743 C424.4987,282.8706 426.4256,301.3058 411.0379,312.9876 C428.4899,326.5147 431.6452,345.3015 408.3279,356.2764 C430.163,364.94 431.6135,385.1581 411.5153,397.096 C426.051,411.0465 423.4502,421.0567 407.0367,430.9078 C425.1368,445.8492 423.5508,460.5521 405.5198,474.2284 C422.3293,485.0659 426.2249,499.3034 407.1758,511.7247 C422.533,524.8203 421.7023,541.0985 402.0313,549.4126 C425.6159,563.7769 425.968,578.1578 403.8339,594.3559 C419.4915,615.0314 414.7527,628.8578 389.5295,635.2249 C393.8028,633.8602 396.0144,635.5209 395.0861,640.0932 C382.7889,658.7033 361.1563,659.3641 349.2314,639.6478 C338.2505,662.0741 324.2543,665.6246 306.6582,646.4113 C290.1988,664.1684 276.0199,665.6414 261.3829,644.301 C246.0242,670.1265 229.2277,668.9386 212.8491,645.3017 C199.7892,667.4419 186.1007,666.7527 170.5016,647.9263 C152.8088,666.5589 137.9991,664.1925 127.2645,640.7721 C117.6656,663.7731 97.3047,664.6499 84.1539,644.3047 C58.5277,666.428 39.7433,655.958 28.5295,628.2249 C31.3746,625.3527 34.1852,627.2258 34.9766,630.4108 C18.2851,619.7211 16.0188,606.0795 35.0882,595.5041 C12.9242,583.7533 8.0559,567.6939 29.8708,550.8092 C14.6616,538.6873 13.8281,523.8475 33.1006,514.8202 C14.6682,505.6072 12.5084,488.4725 31.1768,477.3544 C10.7705,466.6735 8.6247,449.9149 28.4075,436.509 C9.0675,424.1522 9.1672,402.5628 30.6864,392.3129 C11.8429,382.7718 12.4946,371.2673 26.5661,357.797 C6,343.7834 8.8794,328.9236 28.6445,316.9628 C10.2329,305.2382 10.6004,288.0876 31.1861,278.9719 C14.4499,268.7133 14.926,249.7226 31.357,239.608 C12.6245,225.5711 12.2319,207.3833 33.1541,194.9418 C17.1773,183.615 16.5895,170.8927 34.0317,160.4154 C15.6841,148.4031 13.8972,133.5057 34.1042,121.5654 C10.4218,105.4944 11.8745,83.0309 35.5295,68.2249 C39.8024,67.4208 41.9643,69.2124 41.7296,73.6039 " style="stroke:#181818;stroke-width:1.0;fill:none;"/><text fill="#000000" font-family="sans-serif" font-size="14" font-weight="bold" lengthAdjust="spacing" textLength="96" x="164.5295" y="86.22">lab network</text></g><!--MD5=[a24e2d3c6da327c728ec90627f18803f]
cluster DUT1--><g id="cluster_DUT1"><path d="M63.4864,115.2876 C77.7994,94.3309 90.5624,99.5847 103.3833,116.8453 C110.8363,97.2795 126.0485,94.637 140.0248,110.0029 C150.765,89.9875 170.5885,91.3805 180.1165,111.2222 C192.0137,94.26 204.5991,92.085 217.6184,110.0162 C228.9071,92.5586 242.1184,91.3089 253.3731,110.0498 C268.1366,96.3334 281.7013,96.1762 291.3481,115.8661 C303.936,98.0702 320.0546,94.4018 332.9832,115.5014 C347.3415,100.3078 360.5722,98.5531 372.5295,118.2249 C373.9231,117.0749 375.309,117.3476 376.0164,119.0605 C393.1888,128.3961 399.9729,147.6045 378.5383,159.3562 C391.8756,171.3083 389.8338,180.9967 376.2732,191.0249 C392.1278,197.7563 393.8787,213.5687 380.7918,224.2375 C395.1309,234.2723 395.4304,248.594 379.9241,257.8586 C400.7523,266.0251 402.9841,276.6598 386.7614,292.2025 C403.2466,306.3198 406.5826,318.9592 385.79,332.1704 C404.1157,340.5902 405.0043,351.603 390.6217,364.8576 C402.6211,376.4921 402.4282,391.1245 384.6701,397.2998 C400.6669,409.6707 402.412,424.1866 381.8884,433.772 C398.786,442.0501 403.9277,460.1582 384.24,470.7622 C398.7351,480.6033 397.0564,495.9949 381.9918,503.8261 C399.5869,517.6293 394.0955,528.5909 378.1338,538.6795 C397.3914,546.9824 400.1777,564.5119 380.6369,575.4556 C394.9227,593.5663 385.7727,607.6977 365.5295,611.2249 C367.6039,609.3176 370.3382,609.1593 371.1254,612.5775 C360.3651,630.9204 348.1268,633.9401 333.19,617.0779 C319.305,635.751 307.4897,635.8179 294.3516,616.3181 C284.5086,637.1521 270.0598,641.3173 254.191,622.407 C242.4027,644.2333 228.0116,644.1641 212.8319,625.9063 C201.9099,638.9628 184.966,639.4472 179.7604,620.0764 C166.6334,636.9641 149.1797,634.0302 138.9708,616.6073 C128.3985,637.4432 114.881,638.2864 101.0174,619.7826 C80.232,635.3415 59.1243,632.8934 52.5295,604.2249 C54.216,603.2445 55.3924,603.4034 55.875,605.5237 C38.1921,597.3246 35.3469,582.3599 52.5692,570.8344 C36.6786,559.4194 35.3851,546.5648 53.2286,535.7845 C37.2757,528.4558 36.5169,513.4818 50.6959,503.7692 C36.8066,495.8794 31.4088,481.2323 48.1765,470.9864 C28.0006,460.0702 28.0413,445.1267 46.3115,432.3545 C28.2589,422.8939 30.5479,410.7199 43.5663,398.7231 C26.0958,387.3028 27.4176,371.0981 45.5425,361.5712 C30.9484,351.3263 28.7369,339.2375 43.7314,327.4234 C30.2508,313.3775 30.6207,302.138 48.197,292.0082 C35.5376,279.5251 35.8782,266.5885 52.3727,257.6484 C34.7059,247.3821 38.4911,237.49 50.7086,225.6687 C33.58,211.4586 34.1968,198.6109 54.4004,188.0661 C38.72,179.1717 37.4077,166.2558 53.9776,156.9237 C33.2094,140.802 37.8071,122.1844 59.5295,111.2249 C62.5475,110.4716 64.0835,112.5201 63.4864,115.2876 " style="stroke:#181818;stroke-width:1.0;fill:none;"/><text fill="#000000" font-family="sans-serif" font-size="14" font-weight="bold" lengthAdjust="spacing" textLength="43" x="191.0295" y="129.22">DUT1</text></g><!--MD5=[bc33b001d8d0906d533ac6d1e2e5f35f]
cluster pi4_1--><g id="cluster_pi4_1"><polygon points="76.5295,479.2249,86.5295,469.2249,280.5295,469.2249,280.5295,577.2249,270.5295,587.2249,76.5295,587.2249,76.5295,479.2249" style="stroke:#181818;stroke-width:1.0;fill:none;"/><line style="stroke:#181818;stroke-width:1.0;fill:none;" x1="270.5295" x2="280.5295" y1="479.2249" y2="469.2249"/><line style="stroke:#181818;stroke-width:1.0;fill:none;" x1="76.5295" x2="270.5295" y1="479.2249" y2="479.2249"/><line style="stroke:#181818;stroke-width:1.0;fill:none;" x1="270.5295" x2="270.5295" y1="479.2249" y2="587.2249"/><text fill="#000000" font-family="sans-serif" font-size="14" font-weight="bold" lengthAdjust="spacing" textLength="128" x="110.5295" y="495.22">Raspberry Pi 4B</text></g><!--MD5=[d7229e883a8bf239c22ffbc99611a6a8]
entity nitrogen3_1--><g id="elem_nitrogen3_1"><polygon fill="#F1F1F1" points="97.5295,271.2249,107.5295,261.2249,213.5295,261.2249,213.5295,297.5217,203.5295,307.5217,97.5295,307.5217,97.5295,271.2249" style="stroke:#181818;stroke-width:0.5;"/><line style="stroke:#181818;stroke-width:0.5;" x1="203.5295" x2="213.5295" y1="271.2249" y2="261.2249"/><line style="stroke:#181818;stroke-width:0.5;" x1="97.5295" x2="203.5295" y1="271.2249" y2="271.2249"/><line style="stroke:#181818;stroke-width:0.5;" x1="203.5295" x2="203.5295" y1="271.2249" y2="307.5217"/><text fill="#000000" font-family="sans-serif" font-size="14" lengthAdjust="spacing" textLength="76" x="112.5295" y="294.22">Nitrogen 1</text></g><!--MD5=[64a817279d567f20a87089ee8b859525]
entity nitrogen3_2--><g id="elem_nitrogen3_2"><polygon fill="#F1F1F1" points="249.0295,271.2249,259.0295,261.2249,364.0295,261.2249,364.0295,297.5217,354.0295,307.5217,249.0295,307.5217,249.0295,271.2249" style="stroke:#181818;stroke-width:0.5;"/><line style="stroke:#181818;stroke-width:0.5;" x1="354.0295" x2="364.0295" y1="271.2249" y2="261.2249"/><line style="stroke:#181818;stroke-width:0.5;" x1="249.0295" x2="354.0295" y1="271.2249" y2="271.2249"/><line style="stroke:#181818;stroke-width:0.5;" x1="354.0295" x2="354.0295" y1="271.2249" y2="307.5217"/><text fill="#000000" font-family="sans-serif" font-size="14" lengthAdjust="spacing" textLength="75" x="264.0295" y="294.22">Nitrogen 2</text></g><!--MD5=[0c361de7098a830e9eb19677eedeaee1]
entity ykush1--><g id="elem_ykush1"><polygon fill="url(#gdhx4z7fxsba01)" points="83.0295,148.2249,93.0295,138.2249,228.0295,138.2249,228.0295,174.5217,218.0295,184.5217,83.0295,184.5217,83.0295,148.2249" style="stroke:#181818;stroke-width:0.5;"/><line style="stroke:#181818;stroke-width:0.5;" x1="218.0295" x2="228.0295" y1="148.2249" y2="138.2249"/><line style="stroke:#181818;stroke-width:0.5;" x1="83.0295" x2="218.0295" y1="148.2249" y2="148.2249"/><line style="stroke:#181818;stroke-width:0.5;" x1="218.0295" x2="218.0295" y1="148.2249" y2="184.5217"/><text fill="#000000" font-family="sans-serif" font-size="14" lengthAdjust="spacing" textLength="105" x="98.0295" y="171.22">Ykush USB hub</text></g><!--MD5=[7626cf1ec8b5770365dc23a20dc8a445]
entity ttlusb1--><g id="elem_ttlusb1"><polygon fill="#F1F1F1" points="108.5295,378.2249,118.5295,368.2249,208.5295,368.2249,208.5295,404.5217,198.5295,414.5217,108.5295,414.5217,108.5295,378.2249" style="stroke:#181818;stroke-width:0.5;"/><line style="stroke:#181818;stroke-width:0.5;" x1="198.5295" x2="208.5295" y1="378.2249" y2="368.2249"/><line style="stroke:#181818;stroke-width:0.5;" x1="108.5295" x2="198.5295" y1="378.2249" y2="378.2249"/><line style="stroke:#181818;stroke-width:0.5;" x1="198.5295" x2="198.5295" y1="378.2249" y2="414.5217"/><text fill="#000000" font-family="sans-serif" font-size="14" lengthAdjust="spacing" textLength="60" x="123.5295" y="401.22">TTL-USB</text></g><!--MD5=[a8e81b3badf4300329dd6525ed434492]
entity ttlusb2--><g id="elem_ttlusb2"><polygon fill="#F1F1F1" points="244.5295,378.2249,254.5295,368.2249,344.5295,368.2249,344.5295,404.5217,334.5295,414.5217,244.5295,414.5217,244.5295,378.2249" style="stroke:#181818;stroke-width:0.5;"/><line style="stroke:#181818;stroke-width:0.5;" x1="334.5295" x2="344.5295" y1="378.2249" y2="368.2249"/><line style="stroke:#181818;stroke-width:0.5;" x1="244.5295" x2="334.5295" y1="378.2249" y2="378.2249"/><line style="stroke:#181818;stroke-width:0.5;" x1="334.5295" x2="334.5295" y1="378.2249" y2="414.5217"/><text fill="#000000" font-family="sans-serif" font-size="14" lengthAdjust="spacing" textLength="60" x="259.5295" y="401.22">TTL-USB</text></g><!--MD5=[0fa1bcb1596fdf58d4771b3f3d14f995]
entity lavaworker1--><g id="elem_lavaworker1"><rect fill="#F1F1F1" height="46.2969" rx="2.5" ry="2.5" style="stroke:#181818;stroke-width:0.5;" width="126" x="100.5295" y="517.2249"/><rect fill="#F1F1F1" height="10" style="stroke:#181818;stroke-width:0.5;" width="15" x="206.5295" y="522.2249"/><rect fill="#F1F1F1" height="2" style="stroke:#181818;stroke-width:0.5;" width="4" x="204.5295" y="524.2249"/><rect fill="#F1F1F1" height="2" style="stroke:#181818;stroke-width:0.5;" width="4" x="204.5295" y="528.2249"/><text fill="#000000" font-family="sans-serif" font-size="14" lengthAdjust="spacing" textLength="86" x="115.5295" y="550.22">Lava worker</text></g><!--MD5=[9218f68a1a6ade369a098bb22d71906d]
link lavaworker1 to ykush1--><g id="link_lavaworker1_ykush1"><path d="M146.6595,517.1389 C129.3595,493.1949 103.2405,453.1669 90.5295,414.2249 C83.3972,392.3739 69.313,291.3109 79.5295,261.2249 C89.0512,233.1849 110.0655,206.8689 127.5895,188.4279 " fill="none" id="lavaworker1-to-ykush1" style="stroke:#181818;stroke-width:1.0;"/><polygon fill="#181818" points="131.4985,184.3809,122.3682,188.0737,128.0242,187.9766,128.1213,193.6326,131.4985,184.3809" style="stroke:#181818;stroke-width:1.0;"/></g><!--MD5=[c09ba900a89a188e8fc58848d5e6401f]
link ykush1 to nitrogen3_1--><g id="link_ykush1_nitrogen3_1"><path d="M155.5295,184.4179 C155.5295,204.6299 155.5295,234.5319 155.5295,256.1439 " fill="none" id="ykush1-to-nitrogen3_1" style="stroke:#181818;stroke-width:1.0;"/><polygon fill="#181818" points="155.5295,261.1719,159.5295,252.1719,155.5295,256.1719,151.5295,252.1719,155.5295,261.1719" style="stroke:#181818;stroke-width:1.0;"/><text fill="#000000" font-family="sans-serif" font-size="13" lengthAdjust="spacing" textLength="25" x="156.5295" y="227.2918">USB</text></g><!--MD5=[12c112680eeff7a58c260bf5b18f7dbd]
link ykush1 to nitrogen3_2--><g id="link_ykush1_nitrogen3_2"><path d="M183.2255,184.4179 C209.1935,205.2269 247.9785,236.3069 275.0965,258.0369 " fill="none" id="ykush1-to-nitrogen3_2" style="stroke:#181818;stroke-width:1.0;"/><polygon fill="#181818" points="279.0095,261.1719,274.4867,252.4229,275.1074,258.0456,269.4847,258.6663,279.0095,261.1719" style="stroke:#181818;stroke-width:1.0;"/><text fill="#000000" font-family="sans-serif" font-size="13" lengthAdjust="spacing" textLength="25" x="240.5295" y="227.2918">USB</text></g><!--MD5=[8b2cc979388e4421ee3a9494a50d48b1]
link nitrogen3_1 to ttlusb1--><g id="link_nitrogen3_1_ttlusb1"><path d="M156.1585,307.2359 C156.6195,323.3679 157.2485,345.3759 157.7425,362.6749 " fill="none" id="nitrogen3_1-to-ttlusb1" style="stroke:#181818;stroke-width:1.0;"/><polygon fill="#181818" points="157.8915,367.8809,161.6328,358.7703,157.7487,362.8829,153.636,358.9988,157.8915,367.8809" style="stroke:#181818;stroke-width:1.0;"/></g><!--MD5=[155f21cec9c36131eed99f028ae5330f]
link nitrogen3_2 to ttlusb2--><g id="link_nitrogen3_2_ttlusb2"><path d="M304.0135,307.2359 C302.1705,323.3679 299.6555,345.3759 297.6785,362.6749 " fill="none" id="nitrogen3_2-to-ttlusb2" style="stroke:#181818;stroke-width:1.0;"/><polygon fill="#181818" points="297.0835,367.8809,302.0787,359.3927,297.6507,362.9131,294.1303,358.4852,297.0835,367.8809" style="stroke:#181818;stroke-width:1.0;"/></g><!--MD5=[5b6cd2ab674e0ba5f9dc20b95f0d7c53]
link ttlusb1 to pi4_1--><g id="link_ttlusb1_pi4_1"><path d="M200.0205,414.3539 C215.3495,424.3839 231.6255,437.5379 242.5295,453.2249 C245.2721,457.1706 247.7025,461.4218 249.8559,465.8467 C250.3943,466.9529 250.9153,468.07 251.4196,469.1958 " fill="none" id="ttlusb1-to-pi4_1" style="stroke:#181818;stroke-width:1.0;"/><polygon fill="#181818" points="251.4196,469.1958,251.391,459.347,249.3757,464.6327,244.09,462.6173,251.4196,469.1958" style="stroke:#181818;stroke-width:1.0;"/></g><!--MD5=[50d442b34ff3f2efd70231ad9d5d5556]
link ttlusb2 to pi4_1--><g id="link_ttlusb2_pi4_1"><path d="M290.3375,414.2319 C288.4153,424.3239 285.9973,437.0186 283.4439,450.4237 C282.8056,453.775 282.1588,457.1707 281.5092,460.5813 C281.1844,462.2865 280.8589,463.9955 280.5333,465.7045 C280.3706,466.559 280.2078,467.4135 280.0452,468.2675 C280.0045,468.481 279.9638,468.6945 279.9232,468.908 " fill="none" id="ttlusb2-to-pi4_1" style="stroke:#181818;stroke-width:1.0;"/><polygon fill="#181818" points="279.9232,468.908,285.5365,460.8154,280.8587,463.9963,277.6778,459.3185,279.9232,468.908" style="stroke:#181818;stroke-width:1.0;"/></g><!--MD5=[6bf1439ca27ce9f78becb368f6e9965e]
@startuml
skinparam titleBorderRoundCorner 15
skinparam titleBorderThickness 1
skinparam titleBorderColor red
skinparam titleBackgroundColor Aqua-CadetBlue
title Ykush based power control of PDU


cloud localnet as "lab network" {

cloud DUT1 {

  node pi4_1 as "Raspberry Pi 4B" {
    component lavaworker1 as "Lava worker" {
    }
  }

  node nitrogen3_1 as "Nitrogen 1" 
  node nitrogen3_2 as "Nitrogen 2"
  node ykush1 as "Ykush USB hub" #Red/Yellow
  node ttlusb1 as "TTL-USB"
  node ttlusb2 as "TTL-USB"
  lavaworker1->ykush1
  ykush1- ->nitrogen3_1 : USB
  ykush1- ->nitrogen3_2 : USB
  nitrogen3_1- -> ttlusb1
  nitrogen3_2- -> ttlusb2
  ttlusb1- ->pi4_1
  ttlusb2- ->pi4_1
}


}
@enduml

PlantUML version 1.2022.6beta4(Unknown compile time)
(GPL source distribution)
Java Runtime: Java(TM) SE Runtime Environment
JVM: Java HotSpot(TM) 64-Bit Server VM
Default Encoding: UTF-8
Language: en
Country: US
--></g></svg>