<?xml version="1.0" encoding="UTF-8" standalone="no"?>
<svg
   version="1.1"
   x="0"
   y="0"
   width="144"
   height="124.4"
   viewBox="0 0 144 124.4"
   id="svg28"
   sodipodi:docname="USB_Type-B.svg"
   inkscape:version="1.1.2 (0a00cf5339, 2022-02-04)"
   xmlns:inkscape="http://www.inkscape.org/namespaces/inkscape"
   xmlns:sodipodi="http://sodipodi.sourceforge.net/DTD/sodipodi-0.dtd"
   xmlns="http://www.w3.org/2000/svg"
   xmlns:svg="http://www.w3.org/2000/svg">
  <defs
     id="defs32" />
  <sodipodi:namedview
     id="namedview30"
     pagecolor="#ffffff"
     bordercolor="#666666"
     borderopacity="1.0"
     inkscape:pageshadow="2"
     inkscape:pageopacity="0.0"
     inkscape:pagecheckerboard="0"
     showgrid="false"
     inkscape:zoom="2.8490566"
     inkscape:cx="72.129139"
     inkscape:cy="94.066225"
     inkscape:window-width="2560"
     inkscape:window-height="1369"
     inkscape:window-x="0"
     inkscape:window-y="0"
     inkscape:window-maximized="1"
     inkscape:current-layer="svg28"
     fit-margin-top="0"
     fit-margin-left="0"
     fit-margin-right="0"
     fit-margin-bottom="0" />
  <style
     type="text/css"
     id="style2">
	.st0{fill:#B3B3B3;stroke:#000;stroke-width:6;}
	.st1{fill:#E6E6E6;stroke:#000;stroke-width:2;}
	.st2{fill:#FFFF00;stroke:#000;}
	.st3{font-family:Liberation Sans,sans-serif;}
	.st4{font-size:36px;}
</style>
  <g
     id="usb"
     inkscape:label="usb"
     transform="translate(-38,-38.7)">
    <path
       class="st0"
       d="M 177,64.4 159.5,46.9 C 156.6,44 150.9,41.7 146.9,41.7 H 73.1 c -4.1,0 -9.7,2.4 -12.6,5.2 L 43,64.4 c -1.3,1.3 -2,3 -2,4.8 v 81.2 c 0,5.3 4.3,9.7 9.7,9.7 h 118.6 c 5.3,0 9.7,-4.3 9.7,-9.7 V 69.2 c -0.1,-1.8 -0.8,-3.5 -2,-4.8 z"
       id="path4" />
    <path
       class="st1"
       d="M 157.3,134.4 H 62.7 c -1.8,0 -3.2,-1.4 -3.2,-3.2 V 70.6 c 0,-1.8 1.4,-3.2 3.2,-3.2 h 94.6 c 1.8,0 3.2,1.4 3.2,3.2 v 60.6 c 0,1.7 -1.4,3.2 -3.2,3.2 z"
       id="path6" />
    <rect
       x="77.199997"
       y="62.799999"
       class="st2"
       width="18"
       height="7"
       id="rect8" />
    <rect
       x="124.8"
       y="62.799999"
       class="st2"
       width="18"
       height="7"
       id="rect10" />
    <rect
       x="77.199997"
       y="131.89999"
       class="st2"
       width="18"
       height="7"
       id="rect12" />
    <rect
       x="124.8"
       y="131.89999"
       class="st2"
       width="18"
       height="7"
       id="rect14" />
  </g>
</svg>
