<?xml version="1.0" encoding="UTF-8" standalone="no"?>
<!-- Generator: Adobe Illustrator 23.0.4, SVG Export Plug-In . SVG Version: 6.00 Build 0)  -->

<svg
   version="1.1"
   id="Layer_1"
   x="0px"
   y="0px"
   viewBox="0 0 157.40135 82.6"
   xml:space="preserve"
   sodipodi:docname="RS-232.svg"
   inkscape:version="1.1.2 (0a00cf5339, 2022-02-04)"
   width="157.40135"
   height="82.599998"
   xmlns:inkscape="http://www.inkscape.org/namespaces/inkscape"
   xmlns:sodipodi="http://sodipodi.sourceforge.net/DTD/sodipodi-0.dtd"
   xmlns="http://www.w3.org/2000/svg"
   xmlns:svg="http://www.w3.org/2000/svg"><defs
   id="defs307">
	
	

		
		
	</defs><sodipodi:namedview
   id="namedview305"
   pagecolor="#ffffff"
   bordercolor="#666666"
   borderopacity="1.0"
   inkscape:pageshadow="2"
   inkscape:pageopacity="0.0"
   inkscape:pagecheckerboard="0"
   showgrid="false"
   inkscape:zoom="2.4147727"
   inkscape:cx="217.20471"
   inkscape:cy="37.684706"
   inkscape:window-width="2560"
   inkscape:window-height="1369"
   inkscape:window-x="0"
   inkscape:window-y="0"
   inkscape:window-maximized="1"
   inkscape:current-layer="Layer_1"
   fit-margin-top="0"
   fit-margin-left="0"
   fit-margin-right="0"
   fit-margin-bottom="0" />
<font
   horiz-adv-x="1000"
   id="font42"
   horiz-origin-x="0"
   horiz-origin-y="0"
   vert-origin-x="512"
   vert-origin-y="768"
   vert-adv-y="1024">
<!-- &quot;Helvetica Neue&quot; is a trademark of Heidelberger Druckmaschinen AG, which may be registered in certain jurisdictions, exclusivly licensed through Linotype Library GmbH, a wholly owned subsidiary of Heidelberger Druckmaschinen AG. -->
<font-face
   font-family="HelveticaNeue-Light"
   units-per-em="1000"
   underline-position="-100"
   underline-thickness="50"
   id="font-face2" />
<missing-glyph
   horiz-adv-x="500"
   d="M442,8l-384,0l0,496l384,0M50,512l0,-512l400,0l0,512z"
   id="missing-glyph4" />
<glyph
   unicode="1"
   horiz-adv-x="556"
   d="M97,565l0,-45l185,0l0,-520l63,0l0,700l-51,0C289,668 282,643 271,626C260,608 246,595 230,586C213,577 194,572 172,570C149,567 124,566 97,565z"
   id="glyph6" />
<glyph
   unicode="2"
   horiz-adv-x="556"
   d="M497,0l0,58l-389,0C112,81 122,103 138,123C154,142 173,160 194,177C215,194 236,209 259,223C282,236 301,249 318,260C341,275 364,291 385,308C406,325 424,343 441,363C457,383 470,405 480,429C489,453 494,480 494,509C494,542 489,570 478,595C467,620 451,640 432,657C412,673 389,685 363,694C336,702 308,706 277,706C239,706 206,700 178,688C149,675 126,658 107,636C88,614 75,588 66,558C57,527 52,494 53,458l63,0C115,484 118,509 124,532C129,555 138,576 151,594C164,612 180,626 201,637C221,648 245,653 274,653C295,653 316,650 335,644C354,637 370,628 385,616C399,603 410,588 419,571C427,553 431,533 431,510C431,482 426,458 417,438C407,417 392,397 373,378C354,359 332,341 308,324C283,307 259,290 234,274C209,257 185,240 162,223C139,205 118,185 99,164C80,143 65,119 54,92C43,65 37,35 36,0z"
   id="glyph8" />
<glyph
   unicode="3"
   horiz-adv-x="556"
   d="M96,223l-63,0C30,185 35,151 46,122C57,93 73,68 95,48C116,28 142,13 173,2C203,-9 236,-14 272,-14C304,-14 335,-9 364,0C393,9 419,22 441,40C463,58 481,80 494,107C507,133 513,163 513,198C513,244 501,283 476,314C451,345 415,364 369,371l0,2C407,382 436,401 457,429C477,457 487,490 487,528C487,559 481,586 469,609C456,631 440,649 420,664C399,678 376,689 350,696C324,703 297,706 270,706C236,706 205,700 178,689C151,677 128,661 109,641C90,620 75,596 65,568C54,540 49,509 49,476l63,0C111,502 114,526 121,548C128,569 138,588 152,604C165,619 182,631 202,640C222,649 245,653 271,653C292,653 312,651 331,646C349,641 365,633 379,622C393,611 404,597 412,581C420,564 424,544 424,521C424,499 420,480 411,464C402,448 391,435 378,425C364,414 349,407 332,402C315,397 298,394 282,394l-53,0l0,-53l53,0C305,341 327,338 348,332C368,326 386,317 401,305C416,292 428,277 437,259C446,240 450,218 450,193C450,168 445,146 435,127C425,108 412,91 395,78C378,65 359,55 338,48C317,41 294,38 271,38C243,38 218,43 196,52C173,61 155,73 140,89C125,105 113,124 106,147C98,170 95,195 96,223z"
   id="glyph10" />
<glyph
   unicode="4"
   horiz-adv-x="556"
   d="M353,227l-266,0l264,381l2,0M30,235l0,-61l323,0l0,-174l58,0l0,174l105,0l0,53l-105,0l0,473l-57,0z"
   id="glyph12" />
<glyph
   unicode="5"
   horiz-adv-x="556"
   d="M99,200l-63,0C37,167 43,137 55,110C67,83 83,61 104,43C124,24 148,10 176,1C203,-9 233,-14 266,-14C299,-14 331,-8 361,4C390,15 416,32 438,53C460,74 477,99 490,128C503,157 509,188 509,222C509,257 504,290 493,320C482,349 466,375 446,396C425,417 401,434 372,446C343,458 310,464 274,464C246,464 219,458 192,447C165,436 143,420 126,399l-2,2l45,232l306,0l0,58l-350,0l-68,-363l54,0C128,355 151,375 178,390C205,404 235,411 267,411C293,411 317,406 339,397C361,388 380,375 396,359C411,342 424,323 433,301C442,279 446,255 446,229C446,204 442,180 434,157C426,134 414,113 399,96C384,78 365,64 344,54C323,43 298,38 271,38C247,38 225,42 204,50C183,57 165,68 150,83C135,97 123,114 114,134C105,154 100,176 99,200z"
   id="glyph14" />
<glyph
   unicode="6"
   horiz-adv-x="556"
   d="M442,523l63,0C498,585 476,631 439,661C402,691 353,706 290,706C252,706 219,699 192,686C165,673 142,655 124,634C105,613 91,589 80,563C69,536 60,510 54,485C48,459 44,435 43,412C41,389 40,371 40,357C40,288 45,231 55,184C64,137 79,98 99,69C119,40 144,19 175,6C206,-7 242,-14 285,-14C320,-14 352,-8 381,4C410,15 435,32 456,53C477,74 493,99 505,128C516,157 522,188 522,222C522,256 517,287 506,316C495,345 479,369 459,390C439,411 415,427 387,439C358,450 326,456 291,456C251,456 214,445 181,424C147,403 122,375 105,340l-2,0C103,372 105,406 110,443C115,479 124,513 138,544C152,575 172,601 197,622C222,643 255,653 296,653C337,653 370,641 396,617C421,593 437,562 442,523M290,403C317,403 341,398 362,389C383,379 400,366 415,349C429,332 440,313 448,290C455,267 459,243 459,218C459,194 455,171 447,149C439,127 428,108 413,92C398,75 380,62 360,53C339,43 316,38 291,38C260,38 234,43 212,52C190,61 172,74 158,91C143,107 133,126 126,148C119,170 116,193 116,218C116,244 120,268 128,291C135,313 147,332 162,349C177,366 195,379 217,389C238,398 263,403 290,403z"
   id="glyph16" />
<glyph
   unicode="7"
   horiz-adv-x="556"
   d="M51,691l0,-58l387,0C389,578 348,525 314,474C279,423 251,373 228,323C205,272 187,221 175,168C162,115 154,59 150,0l68,0C222,81 235,156 257,224C278,291 304,352 333,405C362,458 391,503 422,542C453,580 479,610 501,633l0,58z"
   id="glyph18" />
<glyph
   unicode="8"
   horiz-adv-x="556"
   d="M278,401C259,400 241,402 223,407C205,412 189,419 175,430C161,441 150,454 141,471C132,488 128,508 128,531C128,551 132,569 141,584C149,599 160,612 174,622C188,632 204,640 222,645C240,650 259,653 278,653C299,653 319,650 337,645C355,640 371,632 384,622C397,612 408,599 416,584C423,569 427,551 427,531C427,508 423,489 415,472C406,455 395,442 382,431C368,420 352,413 334,408C316,403 297,400 278,401M490,531C490,561 484,587 472,609C459,631 443,649 423,664C402,678 379,689 354,696C329,703 303,706 277,706C251,706 225,703 200,696C175,689 152,678 132,664C112,649 96,631 84,609C71,587 65,561 65,531C65,492 75,460 95,434C114,407 142,388 179,377l0,-2C135,367 101,347 76,314C51,281 38,242 37,196C37,161 43,130 56,104C69,77 86,55 108,38C130,21 156,8 185,-1C214,-10 245,-14 278,-14C311,-14 343,-10 372,-1C401,8 426,21 448,38C470,55 487,77 500,104C513,130 519,161 519,196C519,244 507,284 482,315C457,346 422,366 376,375l0,2C412,388 440,407 460,434C480,461 490,493 490,531M278,38C253,38 230,41 209,48C187,55 168,65 152,78C136,91 123,107 114,127C105,147 100,170 100,196C100,221 105,244 115,263C124,282 137,299 153,312C169,325 188,334 210,340C231,346 254,349 278,348C301,349 324,346 346,340C367,333 386,324 403,311C419,298 432,282 442,263C451,244 456,221 456,196C456,169 451,146 442,126C433,106 420,90 404,77C388,64 369,54 348,48C326,41 303,38 278,38z"
   id="glyph20" />
<glyph
   unicode="9"
   horiz-adv-x="556"
   d="M114,168l-63,0C58,106 80,60 117,31C154,1 203,-14 266,-14C304,-14 337,-7 364,6C391,19 414,37 433,58C451,79 466,102 477,129C488,155 496,181 502,207C508,232 512,256 514,279C515,302 516,320 516,334C516,402 511,460 502,507C492,554 477,593 457,623C437,652 412,674 381,687C350,700 314,706 271,706C236,706 205,700 176,688C147,676 122,660 101,639C80,618 63,593 52,564C40,535 34,503 34,469C34,435 40,404 51,375C62,346 77,322 97,301C117,280 141,264 170,253C199,241 230,235 265,235C305,235 342,246 376,267C409,288 434,316 451,351l2,0C453,319 451,285 446,249C441,212 432,178 418,147C404,116 385,90 360,69C335,48 301,38 260,38C219,38 186,50 161,74C135,98 119,129 114,168M266,288C239,288 216,293 195,303C174,312 156,325 142,342C127,359 116,378 109,401C101,424 97,448 97,473C97,497 101,520 109,542C117,564 129,583 144,600C159,616 176,629 197,639C218,648 240,653 265,653C296,653 322,648 344,639C366,630 384,617 399,601C413,584 423,565 430,544C437,522 440,498 440,473C440,447 436,423 429,401C421,378 410,359 395,342C380,325 361,312 340,303C318,293 293,288 266,288z"
   id="glyph22" />
<glyph
   unicode="C"
   horiz-adv-x="704"
   d="M594,498l68,0C657,535 646,568 629,597C611,626 589,650 563,670C536,689 507,704 475,714C442,724 409,729 375,729C319,729 270,719 228,699C185,678 150,651 122,617C94,582 73,543 59,498C45,453 38,406 38,357C38,308 45,261 59,216C73,171 94,132 122,98C150,64 185,37 228,17C270,-4 319,-14 375,-14C417,-14 455,-7 490,6C524,19 554,38 579,63C604,88 625,118 641,153C657,188 667,228 672,272l-68,0C601,240 593,210 581,183C569,155 553,131 534,110C515,89 492,73 465,61C438,49 408,43 375,43C328,43 287,52 253,70C219,88 191,112 170,142C148,171 132,205 122,243C111,280 106,318 106,357C106,396 111,435 122,472C132,509 148,543 170,573C191,602 219,626 253,644C287,662 328,671 375,671C401,671 426,667 450,660C473,652 495,641 515,626C534,611 551,593 565,572C578,550 588,525 594,498z"
   id="glyph24" />
<glyph
   unicode="D"
   horiz-adv-x="685"
   d="M72,714l0,-714l247,0C428,3 510,33 565,92C620,150 647,238 647,357C647,476 620,564 565,623C510,681 428,711 319,714M140,58l0,598l145,0C336,656 381,651 418,640C455,629 485,611 509,587C533,563 551,532 562,494C573,456 579,410 579,357C579,304 573,258 562,220C551,182 533,151 509,127C485,103 455,86 418,75C381,64 336,58 285,58z"
   id="glyph26" />
<glyph
   unicode="G"
   horiz-adv-x="741"
   d="M682,0l0,363l-303,0l0,-58l243,0C623,267 618,232 607,200C596,168 580,140 559,117C538,94 512,76 481,63C450,50 414,43 375,43C328,43 287,52 253,70C219,88 191,112 170,142C148,171 132,205 122,243C111,280 106,318 106,357C106,396 111,435 122,472C132,509 148,543 170,573C191,602 219,626 253,644C287,662 328,671 375,671C409,671 440,666 467,655C494,644 518,629 538,612C557,595 573,576 585,555C596,534 603,513 605,492l68,0C666,531 654,566 636,595C618,624 596,649 570,669C544,689 514,704 481,714C448,724 412,729 375,729C319,729 270,719 228,699C185,678 150,651 122,617C94,582 73,543 59,498C45,453 38,406 38,357C38,308 45,261 59,216C73,171 94,132 122,98C150,64 185,37 228,17C270,-4 319,-14 375,-14C401,-14 426,-11 451,-6C475,-1 498,8 519,20C540,31 560,46 578,65C595,83 610,105 622,130l2,0l9,-130z"
   id="glyph28" />
<glyph
   unicode="I"
   horiz-adv-x="222"
   d="M77,714l0,-714l68,0l0,714z"
   id="glyph30" />
<glyph
   unicode="N"
   horiz-adv-x="704"
   d="M71,714l0,-714l68,0l0,604l2,0l416,-604l76,0l0,714l-68,0l0,-604l-2,0l-416,604z"
   id="glyph32" />
<glyph
   unicode="R"
   horiz-adv-x="667"
   d="M140,375l0,281l254,0C446,656 485,643 510,618C535,593 548,558 548,514C548,492 544,473 536,456C527,439 516,424 502,412C488,400 472,391 453,385C434,378 415,375 394,375M72,714l0,-714l68,0l0,317l258,0C430,318 455,313 474,301C492,289 506,273 516,254C525,234 532,212 535,187C538,162 540,136 541,111C542,104 542,95 543,85C544,75 545,65 546,55C547,44 548,34 551,25C553,15 556,7 560,0l75,0C628,9 622,21 618,37C613,52 610,69 608,87C606,104 605,122 604,139C603,156 603,171 602,183C601,204 598,224 594,243C589,261 582,277 573,291C563,305 550,317 535,326C520,335 500,341 477,344l0,2C523,355 558,377 581,410C604,443 616,483 616,528C616,560 610,588 599,612C587,635 571,655 552,670C532,685 509,696 483,703C456,710 428,714 399,714z"
   id="glyph34" />
<glyph
   unicode="S"
   horiz-adv-x="630"
   d="M104,235l-68,0C34,191 40,153 54,122C67,91 87,65 112,45C137,25 168,10 204,1C240,-9 279,-14 321,-14C363,-14 399,-10 429,-2C459,5 484,15 505,28C525,40 541,54 553,69C564,84 573,100 580,115C586,130 590,144 592,157C593,170 594,181 594,189C594,218 589,243 580,264C570,285 557,302 540,317C523,331 503,343 481,353C458,362 434,370 409,377l-174,43C220,423 207,428 194,433C181,438 169,445 159,454C149,463 141,473 136,486C130,498 127,512 127,529C127,556 132,578 142,596C152,614 165,629 182,640C198,651 217,659 239,664C260,669 283,671 306,671C331,671 356,668 379,661C402,654 422,643 440,630C457,616 472,599 483,579C494,558 500,534 501,507l68,0C569,544 562,576 548,604C533,631 514,654 490,673C466,692 438,706 406,715C374,724 340,729 305,729C255,729 214,722 182,708C150,693 125,676 107,655C88,634 76,612 69,589C62,566 59,545 59,528C59,500 64,476 73,457C82,438 93,421 108,408C123,395 140,384 160,376C179,368 199,361 220,356l159,-39C396,313 413,308 430,302C447,295 463,287 478,277C492,267 504,255 513,240C522,225 526,208 526,188C526,162 520,140 507,122C494,103 479,88 460,77C441,65 420,56 398,51C376,46 356,43 337,43C304,43 274,46 245,53C216,59 192,69 171,84C150,99 133,118 121,143C109,168 103,198 104,235z"
   id="glyph36" />
<glyph
   unicode="T"
   horiz-adv-x="556"
   d="M-4,714l0,-58l248,0l0,-656l68,0l0,656l249,0l0,58z"
   id="glyph38" />
<glyph
   unicode="x"
   horiz-adv-x="481"
   d="M201,268l-200,-268l78,0l159,217l162,-217l80,0l-201,269l186,247l-79,0l-144,-196l-147,196l-79,0z"
   id="glyph40" />
</font>

	<font
   horiz-adv-x="1000"
   id="font94"
   horiz-origin-x="0"
   horiz-origin-y="0"
   vert-origin-x="512"
   vert-origin-y="768"
   vert-adv-y="1024">
<!-- Helvetica is a trademark of Heidelberger Druckmaschinen AG, exclusively licensed through Linotype GmbH, and may be registered in certain jurisdictions. -->
<font-face
   font-family="HelveticaNeue-Medium"
   units-per-em="1000"
   underline-position="-75"
   underline-thickness="50"
   id="font-face44" />
<missing-glyph
   horiz-adv-x="600"
   d="M512,50l0,617l-412,0l0,-617M562,714l0,-714l-512,0l0,714z"
   id="missing-glyph46" />
<glyph
   unicode=" "
   horiz-adv-x="278"
   id="glyph48" />
<glyph
   unicode="("
   horiz-adv-x="278"
   d="M193,-191C173,-159 154,-126 137,-92C119,-58 104,-22 91,16C78,53 67,93 60,135C53,177 49,222 49,270C49,351 62,430 87,508C112,586 147,660 193,731l93,0C246,659 216,585 195,510C174,434 163,354 163,270C163,186 173,106 193,30C213,-46 244,-120 286,-191z"
   id="glyph50" />
<glyph
   unicode=")"
   horiz-adv-x="278"
   d="M85,731C105,699 124,666 141,632C158,597 174,561 187,524C200,486 210,446 218,404C225,362 229,317 229,269C229,188 217,109 192,31C167,-47 131,-121 85,-191l-93,0C32,-120 63,-46 84,30C105,105 115,185 115,269C115,353 105,433 85,509C65,585 34,659 -8,731z"
   id="glyph52" />
<glyph
   unicode="C"
   horiz-adv-x="722"
   d="M558,487C553,508 545,527 536,544C527,561 515,576 500,589C485,602 468,612 449,619C429,626 406,629 380,629C342,629 309,621 282,606C254,591 231,570 214,545C197,519 184,490 176,457C167,424 163,391 163,357C163,323 167,290 176,257C184,224 197,195 214,170C231,144 254,123 282,108C309,93 342,85 380,85C408,85 433,90 454,100C475,109 494,123 509,140C524,157 536,176 545,199C554,222 559,246 562,272l122,0C681,229 672,190 657,155C641,120 620,89 593,64C566,38 535,18 499,4C463,-10 423,-17 380,-17C327,-17 279,-7 237,13C194,32 158,59 129,93C100,127 77,167 62,212C46,257 38,306 38,357C38,408 46,456 62,501C77,546 100,586 129,620C158,654 194,681 237,701C279,721 327,731 380,731C420,731 458,726 493,715C528,704 560,688 587,667C614,646 635,620 652,590C669,560 679,526 683,487z"
   id="glyph54" />
<glyph
   unicode="D"
   horiz-adv-x="722"
   d="M76,714l296,0C427,714 474,705 514,686C554,667 587,642 612,610C637,577 656,539 669,496C681,453 687,406 687,357C687,308 681,261 669,218C656,175 637,137 612,105C587,72 554,47 514,28C474,9 427,0 372,0l-296,0M201,102l123,0C373,102 413,109 444,122C475,135 499,153 517,176C534,199 546,226 553,257C559,288 562,321 562,357C562,393 559,427 553,458C546,489 534,516 517,539C499,562 475,580 444,593C413,606 373,612 324,612l-123,0z"
   id="glyph56" />
<glyph
   unicode="E"
   horiz-adv-x="630"
   d="M76,714l514,0l0,-108l-389,0l0,-187l360,0l0,-102l-360,0l0,-209l396,0l0,-108l-521,0z"
   id="glyph58" />
<glyph
   unicode="F"
   horiz-adv-x="593"
   d="M76,714l493,0l0,-108l-368,0l0,-187l323,0l0,-102l-323,0l0,-317l-125,0z"
   id="glyph60" />
<glyph
   unicode="M"
   horiz-adv-x="889"
   d="M74,714l176,0l197,-559l2,0l192,559l174,0l0,-714l-119,0l0,551l-2,0l-198,-551l-103,0l-198,551l-2,0l0,-551l-119,0z"
   id="glyph62" />
<glyph
   unicode="P"
   horiz-adv-x="667"
   d="M76,714l315,0C442,714 483,707 515,692C547,677 572,659 589,637C606,615 618,591 625,565C631,539 634,515 634,493C634,471 631,447 625,422C618,396 606,372 589,350C572,328 547,310 515,296C483,281 442,274 391,274l-190,0l0,-274l-125,0M201,376l183,0C398,376 412,378 427,382C442,386 455,393 468,402C480,411 490,423 498,438C505,453 509,471 509,494C509,517 506,537 499,552C492,567 483,580 472,589C461,598 448,604 433,607C418,610 403,612 386,612l-185,0z"
   id="glyph64" />
<glyph
   unicode="S"
   horiz-adv-x="648"
   d="M158,238C158,211 163,187 172,168C181,149 194,133 211,121C228,108 247,99 269,94C290,88 314,85 339,85C366,85 390,88 409,95C428,101 444,109 456,119C468,129 477,141 482,154C487,167 490,180 490,193C490,220 484,241 472,254C459,267 446,276 431,281C406,290 376,299 343,308C309,316 267,327 218,340C187,348 162,359 142,372C121,385 105,399 93,415C81,431 73,448 68,466C63,484 60,502 60,521C60,557 68,588 83,615C98,641 117,663 142,680C167,697 195,710 226,719C257,727 289,731 321,731C358,731 394,726 427,717C460,707 489,692 514,673C539,654 558,630 573,602C588,573 595,540 595,503l-125,0C467,549 451,582 423,601C395,620 359,629 316,629C301,629 286,628 271,625C256,622 242,617 229,610C216,603 206,593 198,581C189,569 185,554 185,536C185,511 193,491 209,477C224,462 245,451 270,444C273,443 283,441 302,436C320,431 340,425 363,419C386,413 408,407 430,402C451,396 467,392 476,389C499,382 520,372 537,359C554,346 569,332 581,316C592,299 601,282 607,263C612,244 615,226 615,207C615,167 607,133 591,105C574,76 553,53 526,35C499,17 469,4 435,-4C401,-13 366,-17 331,-17C290,-17 252,-12 216,-2C180,8 149,23 122,44C95,65 74,91 58,124C42,156 34,194 33,238z"
   id="glyph66" />
<glyph
   unicode="T"
   horiz-adv-x="593"
   d="M8,714l578,0l0,-108l-227,0l0,-606l-125,0l0,606l-226,0z"
   id="glyph68" />
<glyph
   unicode="a"
   horiz-adv-x="556"
   d="M493,115C493,101 495,91 499,85C502,79 509,76 520,76C523,76 527,76 532,76C537,76 542,77 548,78l0,-79C544,-2 539,-4 533,-5C526,-7 520,-9 513,-10C506,-11 500,-12 493,-13C486,-14 481,-14 476,-14C453,-14 433,-9 418,0C403,9 393,26 388,49C365,27 338,11 305,1C272,-9 240,-14 209,-14C186,-14 163,-11 142,-4C121,2 102,11 86,24C69,36 56,52 47,71C37,90 32,112 32,137C32,169 38,195 50,215C61,235 77,251 96,262C115,273 136,282 160,287C183,292 207,295 231,298C252,302 271,305 290,307C309,308 325,311 340,315C354,319 365,325 374,334C382,342 386,354 386,371C386,386 383,398 376,407C369,416 360,424 350,429C339,434 328,437 315,439C302,440 290,441 279,441C247,441 221,434 200,421C179,408 168,387 165,359l-114,0C53,392 61,420 75,442C89,464 107,482 129,495C150,508 175,518 202,523C229,528 257,531 286,531C311,531 336,528 361,523C386,518 408,509 428,497C447,485 463,470 475,451C487,432 493,408 493,381M379,259C362,248 340,241 315,239C290,236 264,233 239,228C227,226 215,223 204,220C193,216 183,211 174,205C165,198 159,190 154,180C149,169 146,157 146,142C146,129 150,119 157,110C164,101 173,95 184,90C194,85 205,81 218,79C230,77 241,76 251,76C264,76 277,78 292,81C307,84 321,90 334,98C347,106 357,116 366,129C375,141 379,156 379,174z"
   id="glyph70" />
<glyph
   unicode="c"
   horiz-adv-x="556"
   d="M409,344C404,376 392,400 371,417C350,433 323,441 291,441C276,441 261,439 244,434C227,429 212,419 198,406C184,392 172,373 163,349C154,324 149,292 149,253C149,232 152,210 157,189C162,168 170,149 181,132C192,115 206,102 223,92C240,81 261,76 286,76C319,76 347,86 369,107C390,128 404,157 409,194l114,0C512,127 487,75 447,40C406,4 353,-14 286,-14C245,-14 210,-7 179,7C148,20 121,39 100,63C79,86 63,114 52,147C41,180 35,215 35,253C35,292 40,328 51,362C62,396 78,426 99,451C120,476 147,495 179,510C210,524 247,531 290,531C320,531 349,527 376,520C403,512 427,500 448,485C469,470 486,450 499,427C512,404 520,376 523,344z"
   id="glyph72" />
<glyph
   unicode="d"
   horiz-adv-x="611"
   d="M547,0l-108,0l0,70l-2,0C422,40 399,19 370,6C341,-7 310,-14 277,-14C236,-14 201,-7 171,8C140,22 115,41 95,66C75,91 60,120 50,154C40,187 35,223 35,262C35,309 41,349 54,383C67,417 84,445 105,467C126,489 150,505 177,516C204,526 231,531 259,531C275,531 291,530 308,527C325,524 341,519 356,512C371,505 386,497 399,487C412,476 422,464 431,450l2,0l0,264l114,0M149,253C149,231 152,209 158,188C163,167 172,148 184,131C195,114 210,101 228,91C246,81 267,76 292,76C317,76 339,81 358,92C376,103 391,117 403,134C414,151 423,171 429,193C434,214 437,236 437,259C437,316 424,361 399,393C373,425 338,441 294,441C267,441 245,436 227,425C208,414 193,399 182,382C170,364 162,344 157,322C152,299 149,276 149,253z"
   id="glyph74" />
<glyph
   unicode="e"
   horiz-adv-x="556"
   d="M415,304C414,322 410,339 404,356C397,373 389,387 378,400C367,412 353,422 338,430C322,437 304,441 285,441C265,441 247,438 231,431C214,424 200,414 189,402C177,389 168,375 161,358C154,341 150,323 149,304M149,229C149,209 152,190 158,171C163,152 172,136 183,122C194,108 209,97 226,89C243,80 264,76 288,76C321,76 348,83 369,98C389,112 404,133 414,162l108,0C516,134 506,109 491,87C476,65 459,47 438,32C417,17 394,5 369,-2C343,-10 316,-14 288,-14C247,-14 211,-7 180,6C149,19 122,38 101,62C79,86 63,115 52,148C41,181 35,218 35,258C35,295 41,330 53,363C64,396 81,425 103,450C124,475 150,494 181,509C212,524 246,531 285,531C326,531 362,523 395,506C427,489 454,466 475,438C496,410 512,378 522,342C531,305 534,268 529,229z"
   id="glyph76" />
<glyph
   unicode="i"
   horiz-adv-x="241"
   d="M63,714l114,0l0,-108l-114,0M63,517l114,0l0,-517l-114,0z"
   id="glyph78" />
<glyph
   unicode="l"
   horiz-adv-x="241"
   d="M63,714l114,0l0,-714l-114,0z"
   id="glyph80" />
<glyph
   unicode="m"
   horiz-adv-x="870"
   d="M60,517l108,0l0,-72l3,0C180,458 189,469 199,480C209,491 220,500 233,507C245,514 259,520 275,525C291,529 309,531 330,531C361,531 391,524 418,510C445,496 464,474 475,445C494,472 517,493 542,508C567,523 599,531 637,531C692,531 734,518 765,491C795,464 810,420 810,357l0,-357l-114,0l0,302C696,323 695,342 694,359C693,376 689,390 683,403C676,415 667,424 654,431C641,438 624,441 602,441C563,441 535,429 518,405C501,381 492,347 492,303l0,-303l-114,0l0,332C378,368 372,395 359,414C346,432 322,441 287,441C272,441 258,438 245,432C231,426 219,417 209,406C198,395 190,381 184,364C177,347 174,328 174,307l0,-307l-114,0z"
   id="glyph82" />
<glyph
   unicode="n"
   horiz-adv-x="574"
   d="M60,517l108,0l0,-76l2,-2C187,468 210,490 238,507C266,523 297,531 331,531C388,531 432,516 465,487C498,458 514,414 514,355l0,-355l-114,0l0,325C399,366 390,395 374,414C358,432 333,441 299,441C280,441 262,438 247,431C232,424 219,414 208,402C197,389 189,375 183,358C177,341 174,324 174,305l0,-305l-114,0z"
   id="glyph84" />
<glyph
   unicode="o"
   horiz-adv-x="593"
   d="M297,-14C256,-14 219,-7 187,7C154,20 127,39 105,63C82,87 65,116 54,149C42,182 36,219 36,259C36,298 42,335 54,368C65,401 82,430 105,454C127,478 154,497 187,511C219,524 256,531 297,531C338,531 375,524 408,511C440,497 467,478 490,454C512,430 529,401 541,368C552,335 558,298 558,259C558,219 552,182 541,149C529,116 512,87 490,63C467,39 440,20 408,7C375,-7 338,-14 297,-14M297,76C322,76 344,81 363,92C382,103 397,117 409,134C421,151 430,171 436,193C441,214 444,236 444,259C444,281 441,303 436,325C430,347 421,367 409,384C397,401 382,414 363,425C344,436 322,441 297,441C272,441 250,436 231,425C212,414 197,401 185,384C173,367 164,347 159,325C153,303 150,281 150,259C150,236 153,214 159,193C164,171 173,151 185,134C197,117 212,103 231,92C250,81 272,76 297,76z"
   id="glyph86" />
<glyph
   unicode="r"
   horiz-adv-x="352"
   d="M60,517l107,0l0,-100l2,0C172,431 179,445 189,458C198,471 210,484 224,495C237,506 252,514 269,521C286,528 303,531 320,531C333,531 343,531 348,530C353,529 358,529 363,528l0,-110C355,419 347,421 339,422C330,423 322,423 314,423C295,423 277,419 260,412C243,404 228,393 215,378C202,363 192,344 185,322C178,300 174,275 174,246l0,-246l-114,0z"
   id="glyph88" />
<glyph
   unicode="t"
   horiz-adv-x="333"
   d="M8,517l86,0l0,155l114,0l0,-155l103,0l0,-85l-103,0l0,-276C208,144 209,134 210,125C211,116 213,109 217,103C220,97 226,93 233,90C240,87 250,85 263,85C271,85 279,85 287,86C295,86 303,87 311,89l0,-88C298,0 286,-2 274,-3C262,-4 250,-5 237,-5C207,-5 183,-2 165,4C146,9 132,18 122,29C111,40 104,53 101,70C97,87 95,106 94,127l0,305l-86,0z"
   id="glyph90" />
<glyph
   unicode="v"
   horiz-adv-x="519"
   d="M9,517l124,0l131,-397l2,0l126,397l118,0l-185,-517l-128,0z"
   id="glyph92" />
</font>

	<font
   horiz-adv-x="1000"
   id="font142"
   horiz-origin-x="0"
   horiz-origin-y="0"
   vert-origin-x="512"
   vert-origin-y="768"
   vert-adv-y="1024">
<!-- Avenir is a trademark of Heidelberger Druckmaschinen AG, exclusively licensed through Linotype GmbH, and may be registered in certain jurisdictions. -->
<!-- Copyright: Copyright 2019 Adobe System Incorporated. All rights reserved. -->
<font-face
   font-family="Avenir-Medium"
   units-per-em="1000"
   underline-position="-75"
   underline-thickness="50"
   id="font-face96" />
<missing-glyph
   horiz-adv-x="512"
   d="M222,117l0,67l56,0l0,-67M225,234l-2,17C223,288 227,315 236,332C241,341 247,350 254,360C261,369 271,380 282,391C293,401 301,410 308,418C315,425 320,432 323,439C326,445 329,451 330,457C331,462 332,468 332,474C332,498 325,518 310,535C295,551 277,559 256,559C235,559 218,552 203,537C188,522 178,498 174,464l-50,8C129,520 143,555 168,577C193,598 223,609 259,609C295,609 325,597 348,574C371,550 383,518 383,478C383,457 379,437 371,420C362,402 345,381 320,358C295,336 281,319 277,306C273,293 271,269 271,234M462,50l0,617l-412,0l0,-617M512,718l0,-718l-512,0l0,718z"
   id="missing-glyph98" />
<glyph
   unicode=" "
   horiz-adv-x="278"
   id="glyph100" />
<glyph
   unicode="C"
   horiz-adv-x="704"
   d="M584,555C564,581 539,601 508,615C477,629 446,636 413,636C373,636 337,629 305,614C272,599 245,578 222,552C199,526 181,496 168,461C155,426 149,388 149,348C149,311 155,275 167,242C179,209 196,179 219,154C242,129 269,109 302,94C335,79 372,72 413,72C454,72 489,80 520,97C551,114 577,137 598,167l81,-61C674,99 664,88 651,75C638,61 620,47 598,34C576,20 550,8 519,-2C488,-13 452,-18 411,-18C355,-18 305,-7 260,14C215,35 176,63 145,98C113,133 89,172 72,216C55,259 47,303 47,348C47,403 56,453 74,500C92,546 117,586 150,620C182,653 221,679 266,698C311,717 361,726 416,726C463,726 509,717 554,699C599,681 635,653 664,616z"
   id="glyph102" />
<glyph
   unicode="D"
   horiz-adv-x="741"
   d="M75,708l247,0C372,708 416,702 454,691C491,680 524,665 552,646C579,627 602,605 621,580C639,555 653,530 664,504C675,478 682,452 687,426C692,400 694,376 694,354C694,309 686,265 669,223C652,180 628,143 595,110C562,77 522,50 474,30C425,10 369,0 306,0l-231,0M171,90l121,0C333,90 371,96 408,107C444,118 476,134 503,156C530,178 552,206 568,239C584,272 592,310 592,354C592,377 588,403 581,434C574,464 560,493 540,520C519,547 491,571 455,590C419,609 372,618 315,618l-144,0z"
   id="glyph104" />
<glyph
   unicode="E"
   horiz-adv-x="611"
   d="M91,708l457,0l0,-90l-361,0l0,-211l336,0l0,-90l-336,0l0,-227l379,0l0,-90l-475,0z"
   id="glyph106" />
<glyph
   unicode="P"
   horiz-adv-x="593"
   d="M91,708l249,0C385,708 423,702 452,690C481,677 505,662 522,643C539,624 550,602 557,579C564,555 567,532 567,510C567,488 564,465 557,442C550,418 539,397 522,378C505,359 481,343 452,331C423,318 385,312 340,312l-153,0l0,-312l-96,0M187,396l126,0C332,396 350,398 369,401C387,404 403,409 418,417C432,425 443,437 452,452C461,467 465,486 465,510C465,534 461,554 452,569C443,584 432,595 418,603C403,611 387,617 369,620C350,623 332,624 313,624l-126,0z"
   id="glyph108" />
<glyph
   unicode="R"
   horiz-adv-x="611"
   d="M91,708l249,0C385,708 423,702 452,690C481,677 505,662 522,643C539,624 550,602 557,579C564,555 567,532 567,510C567,487 563,466 555,445C547,424 536,405 521,388C506,371 487,356 466,345C444,333 420,326 393,323l201,-323l-120,0l-180,312l-107,0l0,-312l-96,0M187,396l126,0C332,396 350,398 369,401C387,404 403,409 418,417C432,425 443,437 452,452C461,467 465,486 465,510C465,534 461,554 452,569C443,584 432,595 418,603C403,611 387,617 369,620C350,623 332,624 313,624l-126,0z"
   id="glyph110" />
<glyph
   unicode="S"
   horiz-adv-x="556"
   d="M112,148C129,122 152,103 179,91C206,78 233,72 262,72C278,72 294,75 311,80C328,85 343,92 357,102C370,112 381,124 390,139C399,154 403,171 403,190C403,217 394,238 377,253C360,267 338,279 313,289C287,298 259,308 229,317C198,326 170,338 145,354C119,370 97,392 80,419C63,446 54,482 54,528C54,549 59,571 68,594C77,617 91,639 110,658C129,677 154,694 185,707C215,720 251,726 294,726C333,726 370,721 405,710C440,699 471,678 498,645l-78,-71C408,593 391,608 369,619C347,630 322,636 294,636C267,636 245,633 228,626C210,619 196,610 185,599C174,588 167,576 163,563C158,550 156,539 156,528C156,498 165,475 182,459C199,443 221,430 247,420C272,410 300,401 331,393C361,385 389,374 415,360C440,345 462,326 479,302C496,277 505,244 505,201C505,167 499,136 486,109C473,82 455,59 433,40C411,21 385,7 355,-3C325,-13 293,-18 259,-18C214,-18 171,-10 130,6C89,22 57,47 33,80z"
   id="glyph112" />
<glyph
   unicode="c"
   horiz-adv-x="482"
   d="M407,348C390,365 373,379 355,388C336,397 314,401 289,401C264,401 243,397 225,388C206,379 191,366 179,351C166,335 157,317 151,297C144,276 141,255 141,233C141,211 145,190 152,171C159,151 170,134 183,119C196,104 212,93 231,85C250,76 271,72 294,72C319,72 341,77 359,86C377,95 394,108 409,125l64,-64C450,35 423,16 392,5C361,-6 328,-12 293,-12C256,-12 223,-6 193,6C162,18 136,35 114,57C92,78 75,104 63,135C51,165 45,198 45,235C45,272 51,305 63,336C75,367 92,393 114,415C135,437 161,454 192,467C222,479 256,485 293,485C328,485 361,479 393,467C424,454 452,435 475,410z"
   id="glyph114" />
<glyph
   unicode="e"
   horiz-adv-x="556"
   d="M136,204C136,183 141,165 150,148C159,131 170,116 185,104C200,92 217,83 236,76C255,69 275,66 296,66C324,66 348,73 369,86C390,99 409,116 426,137l68,-52C444,20 374,-12 284,-12C247,-12 213,-6 183,7C152,20 127,37 106,60C85,82 68,108 57,139C46,169 40,202 40,237C40,272 46,305 59,336C71,366 88,392 110,415C131,437 157,454 187,467C217,480 250,486 285,486C327,486 363,479 392,464C421,449 444,430 463,407C482,383 495,356 504,327C512,297 516,267 516,236l0,-32M420,276C419,296 416,314 411,331C405,348 396,362 385,375C374,387 360,397 343,404C326,411 306,414 283,414C261,414 241,410 223,402C204,393 189,382 176,369C163,356 154,341 147,325C140,308 136,292 136,276z"
   id="glyph116" />
<glyph
   unicode="f"
   horiz-adv-x="333"
   d="M103,396l-102,0l0,78l102,0l0,106C103,643 115,691 140,722C164,753 206,768 265,768C275,768 286,768 297,767C308,766 319,764 332,761l-10,-80C313,684 305,687 297,688C289,689 280,690 271,690C254,690 241,688 231,683C221,678 213,670 208,661C202,652 198,641 197,628C195,615 194,600 194,583l0,-109l107,0l0,-78l-108,0l0,-396l-90,0z"
   id="glyph118" />
<glyph
   unicode="h"
   horiz-adv-x="556"
   d="M68,756l90,0l0,-355l2,0C171,426 191,447 219,463C247,478 279,486 316,486C339,486 361,483 382,476C403,469 421,458 437,443C452,428 465,410 474,387C483,364 488,336 488,305l0,-305l-90,0l0,280C398,302 395,321 389,337C383,352 375,365 365,375C355,384 344,391 331,396C318,400 304,402 290,402C271,402 254,399 238,393C222,387 208,378 196,365C184,352 175,335 168,315C161,295 158,271 158,244l0,-244l-90,0z"
   id="glyph120" />
<glyph
   unicode="-"
   horiz-adv-x="316"
   d="M281,200l-246,0l0,84l246,0z"
   id="glyph122" />
<glyph
   unicode="i"
   horiz-adv-x="240"
   d="M75,474l90,0l0,-474l-90,0M54,644C54,662 61,678 74,691C87,704 102,710 120,710C138,710 154,704 167,691C180,678 186,662 186,644C186,626 180,611 167,598C154,585 138,578 120,578C102,578 87,585 74,598C61,611 54,626 54,644z"
   id="glyph124" />
<glyph
   unicode="n"
   horiz-adv-x="556"
   d="M68,474l90,0l0,-73l2,0C171,426 191,447 219,463C247,478 279,486 316,486C339,486 361,483 382,476C403,469 421,458 437,443C452,428 465,410 474,387C483,364 488,336 488,305l0,-305l-90,0l0,280C398,302 395,321 389,337C383,352 375,365 365,375C355,384 344,391 331,396C318,400 304,402 290,402C271,402 254,399 238,393C222,387 208,378 196,365C184,352 175,335 168,315C161,295 158,271 158,244l0,-244l-90,0z"
   id="glyph126" />
<glyph
   unicode="9"
   horiz-adv-x="556"
   d="M336,274l-4,0C310,263 284,258 254,258C229,258 203,262 177,271C151,280 128,293 107,312C86,330 68,353 55,382C42,410 35,443 35,482C35,521 42,555 55,585C68,614 85,639 107,659C129,679 155,694 184,705C213,715 245,720 278,720C311,720 343,715 372,704C401,693 427,678 449,658C471,638 489,614 502,586C515,558 521,527 521,492C521,470 519,450 516,432C513,414 508,397 502,381C495,364 488,348 479,332C470,316 461,300 450,283l-179,-283l-113,0M425,489C425,510 422,530 415,548C408,566 398,582 385,595C372,608 356,618 338,625C320,632 300,636 278,636C256,636 236,632 218,625C200,618 185,608 172,595C159,582 149,566 142,548C135,530 131,510 131,489C131,468 135,448 142,430C149,412 159,397 172,384C185,371 200,360 218,353C236,346 256,342 278,342C300,342 320,346 338,353C356,360 372,371 385,384C398,397 408,412 415,430C422,448 425,468 425,489z"
   id="glyph128" />
<glyph
   unicode="o"
   horiz-adv-x="594"
   d="M141,237C141,213 145,191 152,171C159,150 170,133 183,119C196,104 213,93 232,85C251,76 273,72 297,72C321,72 343,76 362,85C381,93 398,104 411,119C424,133 435,150 442,171C449,191 453,213 453,237C453,261 449,283 442,304C435,324 424,341 411,356C398,370 381,381 362,390C343,398 321,402 297,402C273,402 251,398 232,390C213,381 196,370 183,356C170,341 159,324 152,304C145,283 141,261 141,237M45,237C45,272 52,304 65,334C78,364 95,390 118,413C141,436 167,454 198,467C229,480 262,486 297,486C332,486 365,480 396,467C427,454 453,436 476,413C499,390 517,364 530,334C543,304 549,272 549,237C549,202 543,170 530,140C517,109 499,83 476,61C453,38 427,21 396,8C365,-5 332,-12 297,-12C262,-12 229,-5 198,8C167,21 141,38 118,61C95,83 78,109 65,140C52,170 45,202 45,237z"
   id="glyph130" />
<glyph
   unicode="r"
   horiz-adv-x="370"
   d="M68,474l90,0l0,-73l2,0C166,414 174,425 184,436C194,446 205,455 218,462C230,469 243,475 258,480C273,484 287,486 302,486C317,486 330,484 342,480l-4,-97C331,385 323,387 316,388C309,389 301,390 294,390C250,390 216,378 193,353C170,328 158,290 158,238l0,-238l-90,0z"
   id="glyph132" />
<glyph
   unicode="t"
   horiz-adv-x="370"
   d="M322,396l-129,0l0,-215C193,168 193,155 194,142C195,129 197,117 202,107C206,96 213,88 222,82C231,75 244,72 261,72C272,72 283,73 294,75C305,77 316,81 325,86l0,-82C314,-2 301,-6 284,-8C267,-11 253,-12 244,-12C209,-12 183,-7 164,3C145,12 131,25 122,40C113,55 107,73 106,92C104,111 103,130 103,149l0,247l-104,0l0,78l104,0l0,133l90,0l0,-133l129,0z"
   id="glyph134" />
<glyph
   unicode="3"
   horiz-adv-x="556"
   d="M147,173C158,139 174,114 193,97C212,80 240,72 277,72C296,72 313,75 330,82C346,88 360,97 373,108C386,119 396,132 403,148C410,163 414,181 414,200C414,229 408,253 396,271C383,288 367,302 348,311C329,320 307,325 284,328C261,331 238,332 215,332l0,84C252,416 282,419 305,424C328,429 347,436 360,445C373,454 383,466 388,480C393,494 396,510 396,527C396,565 385,594 362,613C339,632 311,642 277,642C251,642 228,635 207,620C186,605 170,585 159,560l-98,33C80,638 108,672 147,694C185,715 228,726 275,726C304,726 331,722 358,715C384,707 407,695 427,679C447,663 463,643 475,619C486,594 492,566 492,533C492,496 481,462 459,433C436,404 407,384 371,373l0,-2C393,367 413,360 430,349C447,338 462,325 474,309C486,293 495,275 501,256C507,236 510,215 510,193C510,159 504,129 491,104C478,78 460,57 439,40C417,23 392,10 364,1C335,-8 305,-12 274,-12C220,-12 173,0 132,25C91,50 62,89 46,142z"
   id="glyph136" />
<glyph
   unicode="2"
   horiz-adv-x="556"
   d="M46,102l284,282C340,393 350,404 359,415C368,426 377,437 384,449C391,461 397,474 402,487C406,500 408,514 408,529C408,546 405,562 399,576C392,590 384,602 373,612C362,621 349,629 334,634C319,639 303,642 286,642C251,642 223,632 200,613C177,594 163,567 157,533l-104,9C58,573 67,601 81,624C94,647 111,666 132,681C152,696 175,708 202,715C228,722 256,726 287,726C318,726 347,722 374,714C401,705 424,693 445,677C465,660 481,640 493,616C504,591 510,563 510,530C510,507 507,485 500,465C493,444 483,425 472,407C461,389 448,372 433,356C418,340 403,324 387,309l-233,-225l356,0l0,-84l-464,0z"
   id="glyph138" />
<glyph
   unicode="u"
   horiz-adv-x="556"
   d="M488,0l-90,0l0,73l-2,0C385,48 365,27 337,12C309,-4 277,-12 240,-12C217,-12 195,-8 174,-1C153,6 135,16 120,31C104,46 91,65 82,88C73,111 68,138 68,169l0,305l90,0l0,-280C158,172 161,153 167,138C173,122 181,109 191,100C201,90 213,83 226,79C239,74 252,72 266,72C285,72 302,75 318,81C334,87 348,97 360,110C372,123 381,139 388,159C395,179 398,203 398,230l0,244l90,0z"
   id="glyph140" />
</font>
</defs>
</svg>
